%TF.GenerationSoftware,KiCad,Pcbnew,8.0.9*%
%TF.CreationDate,2025-09-11T00:28:19+10:00*%
%TF.ProjectId,forager-pcb,666f7261-6765-4722-9d70-63622e6b6963,rev?*%
%TF.SameCoordinates,Original*%
%TF.FileFunction,Legend,Bot*%
%TF.FilePolarity,Positive*%
%FSLAX46Y46*%
G04 Gerber Fmt 4.6, Leading zero omitted, Abs format (unit mm)*
G04 Created by KiCad (PCBNEW 8.0.9) date 2025-09-11 00:28:19*
%MOMM*%
%LPD*%
G01*
G04 APERTURE LIST*
G04 Aperture macros list*
%AMRoundRect*
0 Rectangle with rounded corners*
0 $1 Rounding radius*
0 $2 $3 $4 $5 $6 $7 $8 $9 X,Y pos of 4 corners*
0 Add a 4 corners polygon primitive as box body*
4,1,4,$2,$3,$4,$5,$6,$7,$8,$9,$2,$3,0*
0 Add four circle primitives for the rounded corners*
1,1,$1+$1,$2,$3*
1,1,$1+$1,$4,$5*
1,1,$1+$1,$6,$7*
1,1,$1+$1,$8,$9*
0 Add four rect primitives between the rounded corners*
20,1,$1+$1,$2,$3,$4,$5,0*
20,1,$1+$1,$4,$5,$6,$7,0*
20,1,$1+$1,$6,$7,$8,$9,0*
20,1,$1+$1,$8,$9,$2,$3,0*%
G04 Aperture macros list end*
%ADD10C,0.100000*%
%ADD11C,0.150000*%
%ADD12C,0.300000*%
%ADD13C,0.120000*%
%ADD14C,0.500000*%
%ADD15RoundRect,0.225000X-0.375000X0.225000X-0.375000X-0.225000X0.375000X-0.225000X0.375000X0.225000X0*%
%ADD16RoundRect,0.225000X0.375000X-0.225000X0.375000X0.225000X-0.375000X0.225000X-0.375000X-0.225000X0*%
%ADD17C,1.700000*%
%ADD18C,3.400000*%
%ADD19C,3.300000*%
%ADD20RoundRect,0.260000X-0.525695X-1.392649X1.404741X-0.492472X0.525695X1.392649X-1.404741X0.492472X0*%
%ADD21RoundRect,0.225000X0.225000X0.375000X-0.225000X0.375000X-0.225000X-0.375000X0.225000X-0.375000X0*%
%ADD22C,6.200000*%
%ADD23RoundRect,0.260000X1.065000X1.040000X-1.065000X1.040000X-1.065000X-1.040000X1.065000X-1.040000X0*%
%ADD24RoundRect,0.150000X-0.275000X0.150000X-0.275000X-0.150000X0.275000X-0.150000X0.275000X0.150000X0*%
%ADD25RoundRect,0.175000X-0.225000X0.175000X-0.225000X-0.175000X0.225000X-0.175000X0.225000X0.175000X0*%
%ADD26O,1.800000X2.750000*%
%ADD27C,1.397000*%
%ADD28RoundRect,0.260000X-1.065000X-1.040000X1.065000X-1.040000X1.065000X1.040000X-1.065000X1.040000X0*%
%ADD29R,1.700000X1.700000*%
%ADD30O,1.700000X1.700000*%
%ADD31RoundRect,0.150000X0.275000X-0.150000X0.275000X0.150000X-0.275000X0.150000X-0.275000X-0.150000X0*%
%ADD32RoundRect,0.175000X0.225000X-0.175000X0.225000X0.175000X-0.225000X0.175000X-0.225000X-0.175000X0*%
%ADD33RoundRect,0.260000X-1.404741X-0.492472X0.525695X-1.392649X1.404741X0.492472X-0.525695X1.392649X0*%
%ADD34C,0.850000*%
%ADD35RoundRect,0.090000X0.535000X-0.210000X0.535000X0.210000X-0.535000X0.210000X-0.535000X-0.210000X0*%
%ADD36RoundRect,0.105000X-0.245000X-0.445000X0.245000X-0.445000X0.245000X0.445000X-0.245000X0.445000X0*%
%ADD37RoundRect,0.090000X-0.535000X0.210000X-0.535000X-0.210000X0.535000X-0.210000X0.535000X0.210000X0*%
%ADD38RoundRect,0.105000X0.245000X0.445000X-0.245000X0.445000X-0.245000X-0.445000X0.245000X-0.445000X0*%
%ADD39RoundRect,0.260000X1.404741X0.492472X-0.525695X1.392649X-1.404741X-0.492472X0.525695X-1.392649X0*%
G04 APERTURE END LIST*
D10*
X46000000Y-1000000D02*
X80000000Y-1000000D01*
X80000000Y-15000000D01*
X46000000Y-15000000D01*
X46000000Y-1000000D01*
X-80000000Y-1000000D02*
X-46000000Y-1000000D01*
X-46000000Y-15000000D01*
X-80000000Y-15000000D01*
X-80000000Y-1000000D01*
D11*
X-82158458Y-5581376D02*
X-82158458Y-4381376D01*
X-82158458Y-4381376D02*
X-82615601Y-4381376D01*
X-82615601Y-4381376D02*
X-82729886Y-4438519D01*
X-82729886Y-4438519D02*
X-82787029Y-4495662D01*
X-82787029Y-4495662D02*
X-82844172Y-4609948D01*
X-82844172Y-4609948D02*
X-82844172Y-4781376D01*
X-82844172Y-4781376D02*
X-82787029Y-4895662D01*
X-82787029Y-4895662D02*
X-82729886Y-4952805D01*
X-82729886Y-4952805D02*
X-82615601Y-5009948D01*
X-82615601Y-5009948D02*
X-82158458Y-5009948D01*
X-83529886Y-5581376D02*
X-83415601Y-5524234D01*
X-83415601Y-5524234D02*
X-83358458Y-5467091D01*
X-83358458Y-5467091D02*
X-83301315Y-5352805D01*
X-83301315Y-5352805D02*
X-83301315Y-5009948D01*
X-83301315Y-5009948D02*
X-83358458Y-4895662D01*
X-83358458Y-4895662D02*
X-83415601Y-4838519D01*
X-83415601Y-4838519D02*
X-83529886Y-4781376D01*
X-83529886Y-4781376D02*
X-83701315Y-4781376D01*
X-83701315Y-4781376D02*
X-83815601Y-4838519D01*
X-83815601Y-4838519D02*
X-83872744Y-4895662D01*
X-83872744Y-4895662D02*
X-83929886Y-5009948D01*
X-83929886Y-5009948D02*
X-83929886Y-5352805D01*
X-83929886Y-5352805D02*
X-83872744Y-5467091D01*
X-83872744Y-5467091D02*
X-83815601Y-5524234D01*
X-83815601Y-5524234D02*
X-83701315Y-5581376D01*
X-83701315Y-5581376D02*
X-83529886Y-5581376D01*
X-84387029Y-5524234D02*
X-84501315Y-5581376D01*
X-84501315Y-5581376D02*
X-84729886Y-5581376D01*
X-84729886Y-5581376D02*
X-84844172Y-5524234D01*
X-84844172Y-5524234D02*
X-84901315Y-5409948D01*
X-84901315Y-5409948D02*
X-84901315Y-5352805D01*
X-84901315Y-5352805D02*
X-84844172Y-5238519D01*
X-84844172Y-5238519D02*
X-84729886Y-5181376D01*
X-84729886Y-5181376D02*
X-84558458Y-5181376D01*
X-84558458Y-5181376D02*
X-84444172Y-5124234D01*
X-84444172Y-5124234D02*
X-84387029Y-5009948D01*
X-84387029Y-5009948D02*
X-84387029Y-4952805D01*
X-84387029Y-4952805D02*
X-84444172Y-4838519D01*
X-84444172Y-4838519D02*
X-84558458Y-4781376D01*
X-84558458Y-4781376D02*
X-84729886Y-4781376D01*
X-84729886Y-4781376D02*
X-84844172Y-4838519D01*
X-85415601Y-5581376D02*
X-85415601Y-4781376D01*
X-85415601Y-4381376D02*
X-85358458Y-4438519D01*
X-85358458Y-4438519D02*
X-85415601Y-4495662D01*
X-85415601Y-4495662D02*
X-85472744Y-4438519D01*
X-85472744Y-4438519D02*
X-85415601Y-4381376D01*
X-85415601Y-4381376D02*
X-85415601Y-4495662D01*
X-85815601Y-4781376D02*
X-86272744Y-4781376D01*
X-85987030Y-4381376D02*
X-85987030Y-5409948D01*
X-85987030Y-5409948D02*
X-86044173Y-5524234D01*
X-86044173Y-5524234D02*
X-86158458Y-5581376D01*
X-86158458Y-5581376D02*
X-86272744Y-5581376D01*
X-86672744Y-5581376D02*
X-86672744Y-4781376D01*
X-86672744Y-4381376D02*
X-86615601Y-4438519D01*
X-86615601Y-4438519D02*
X-86672744Y-4495662D01*
X-86672744Y-4495662D02*
X-86729887Y-4438519D01*
X-86729887Y-4438519D02*
X-86672744Y-4381376D01*
X-86672744Y-4381376D02*
X-86672744Y-4495662D01*
X-87129887Y-4781376D02*
X-87415601Y-5581376D01*
X-87415601Y-5581376D02*
X-87701316Y-4781376D01*
X-88615602Y-5524234D02*
X-88501316Y-5581376D01*
X-88501316Y-5581376D02*
X-88272745Y-5581376D01*
X-88272745Y-5581376D02*
X-88158459Y-5524234D01*
X-88158459Y-5524234D02*
X-88101316Y-5409948D01*
X-88101316Y-5409948D02*
X-88101316Y-4952805D01*
X-88101316Y-4952805D02*
X-88158459Y-4838519D01*
X-88158459Y-4838519D02*
X-88272745Y-4781376D01*
X-88272745Y-4781376D02*
X-88501316Y-4781376D01*
X-88501316Y-4781376D02*
X-88615602Y-4838519D01*
X-88615602Y-4838519D02*
X-88672745Y-4952805D01*
X-88672745Y-4952805D02*
X-88672745Y-5067091D01*
X-88672745Y-5067091D02*
X-88101316Y-5181376D01*
X-81529888Y-7513309D02*
X-81529888Y-6313309D01*
X-81529888Y-6313309D02*
X-82215602Y-7513309D01*
X-82215602Y-7513309D02*
X-82215602Y-6313309D01*
X-83244174Y-7456167D02*
X-83129888Y-7513309D01*
X-83129888Y-7513309D02*
X-82901317Y-7513309D01*
X-82901317Y-7513309D02*
X-82787031Y-7456167D01*
X-82787031Y-7456167D02*
X-82729888Y-7341881D01*
X-82729888Y-7341881D02*
X-82729888Y-6884738D01*
X-82729888Y-6884738D02*
X-82787031Y-6770452D01*
X-82787031Y-6770452D02*
X-82901317Y-6713309D01*
X-82901317Y-6713309D02*
X-83129888Y-6713309D01*
X-83129888Y-6713309D02*
X-83244174Y-6770452D01*
X-83244174Y-6770452D02*
X-83301317Y-6884738D01*
X-83301317Y-6884738D02*
X-83301317Y-6999024D01*
X-83301317Y-6999024D02*
X-82729888Y-7113309D01*
X-84329888Y-6713309D02*
X-84329888Y-7684738D01*
X-84329888Y-7684738D02*
X-84272745Y-7799024D01*
X-84272745Y-7799024D02*
X-84215602Y-7856167D01*
X-84215602Y-7856167D02*
X-84101316Y-7913309D01*
X-84101316Y-7913309D02*
X-83929888Y-7913309D01*
X-83929888Y-7913309D02*
X-83815602Y-7856167D01*
X-84329888Y-7456167D02*
X-84215602Y-7513309D01*
X-84215602Y-7513309D02*
X-83987030Y-7513309D01*
X-83987030Y-7513309D02*
X-83872745Y-7456167D01*
X-83872745Y-7456167D02*
X-83815602Y-7399024D01*
X-83815602Y-7399024D02*
X-83758459Y-7284738D01*
X-83758459Y-7284738D02*
X-83758459Y-6941881D01*
X-83758459Y-6941881D02*
X-83815602Y-6827595D01*
X-83815602Y-6827595D02*
X-83872745Y-6770452D01*
X-83872745Y-6770452D02*
X-83987030Y-6713309D01*
X-83987030Y-6713309D02*
X-84215602Y-6713309D01*
X-84215602Y-6713309D02*
X-84329888Y-6770452D01*
X-85415602Y-7513309D02*
X-85415602Y-6884738D01*
X-85415602Y-6884738D02*
X-85358459Y-6770452D01*
X-85358459Y-6770452D02*
X-85244173Y-6713309D01*
X-85244173Y-6713309D02*
X-85015602Y-6713309D01*
X-85015602Y-6713309D02*
X-84901316Y-6770452D01*
X-85415602Y-7456167D02*
X-85301316Y-7513309D01*
X-85301316Y-7513309D02*
X-85015602Y-7513309D01*
X-85015602Y-7513309D02*
X-84901316Y-7456167D01*
X-84901316Y-7456167D02*
X-84844173Y-7341881D01*
X-84844173Y-7341881D02*
X-84844173Y-7227595D01*
X-84844173Y-7227595D02*
X-84901316Y-7113309D01*
X-84901316Y-7113309D02*
X-85015602Y-7056167D01*
X-85015602Y-7056167D02*
X-85301316Y-7056167D01*
X-85301316Y-7056167D02*
X-85415602Y-6999024D01*
X-85815601Y-6713309D02*
X-86272744Y-6713309D01*
X-85987030Y-6313309D02*
X-85987030Y-7341881D01*
X-85987030Y-7341881D02*
X-86044173Y-7456167D01*
X-86044173Y-7456167D02*
X-86158458Y-7513309D01*
X-86158458Y-7513309D02*
X-86272744Y-7513309D01*
X-86672744Y-7513309D02*
X-86672744Y-6713309D01*
X-86672744Y-6313309D02*
X-86615601Y-6370452D01*
X-86615601Y-6370452D02*
X-86672744Y-6427595D01*
X-86672744Y-6427595D02*
X-86729887Y-6370452D01*
X-86729887Y-6370452D02*
X-86672744Y-6313309D01*
X-86672744Y-6313309D02*
X-86672744Y-6427595D01*
X-87129887Y-6713309D02*
X-87415601Y-7513309D01*
X-87415601Y-7513309D02*
X-87701316Y-6713309D01*
X-88615602Y-7456167D02*
X-88501316Y-7513309D01*
X-88501316Y-7513309D02*
X-88272745Y-7513309D01*
X-88272745Y-7513309D02*
X-88158459Y-7456167D01*
X-88158459Y-7456167D02*
X-88101316Y-7341881D01*
X-88101316Y-7341881D02*
X-88101316Y-6884738D01*
X-88101316Y-6884738D02*
X-88158459Y-6770452D01*
X-88158459Y-6770452D02*
X-88272745Y-6713309D01*
X-88272745Y-6713309D02*
X-88501316Y-6713309D01*
X-88501316Y-6713309D02*
X-88615602Y-6770452D01*
X-88615602Y-6770452D02*
X-88672745Y-6884738D01*
X-88672745Y-6884738D02*
X-88672745Y-6999024D01*
X-88672745Y-6999024D02*
X-88101316Y-7113309D01*
D12*
G36*
X34862543Y47596760D02*
G01*
X35568160Y47596760D01*
X35568160Y47315392D01*
X34913834Y47315392D01*
X34913834Y47010577D01*
X35568160Y47010577D01*
X35568160Y46377500D01*
X35962002Y46377500D01*
X35962002Y47901575D01*
X34862543Y47901575D01*
X34862543Y47596760D01*
G37*
G36*
X34086066Y47573151D02*
G01*
X34174891Y47567491D01*
X34257313Y47553745D01*
X34333330Y47531913D01*
X34402942Y47501996D01*
X34466151Y47463993D01*
X34533548Y47407716D01*
X34590447Y47341225D01*
X34635574Y47265950D01*
X34664188Y47196511D01*
X34684626Y47120971D01*
X34696889Y47039332D01*
X34700976Y46951592D01*
X34696915Y46864363D01*
X34684733Y46783108D01*
X34664429Y46707828D01*
X34636004Y46638523D01*
X34591173Y46563243D01*
X34534647Y46496568D01*
X34524120Y46486357D01*
X34455444Y46431901D01*
X34390992Y46395434D01*
X34319975Y46367071D01*
X34242393Y46346812D01*
X34158245Y46334657D01*
X34067532Y46330605D01*
X34048842Y46330767D01*
X33959340Y46336440D01*
X33876422Y46350216D01*
X33800086Y46372096D01*
X33730334Y46402079D01*
X33667165Y46440166D01*
X33600052Y46496568D01*
X33543526Y46563243D01*
X33498695Y46638523D01*
X33470269Y46707828D01*
X33449965Y46783108D01*
X33437783Y46864363D01*
X33433824Y46949394D01*
X33818038Y46949394D01*
X33818196Y46928734D01*
X33822526Y46849102D01*
X33835990Y46773173D01*
X33852030Y46727990D01*
X33890212Y46664363D01*
X33904823Y46647533D01*
X33967881Y46605744D01*
X33991077Y46598211D01*
X34064235Y46588525D01*
X34096223Y46590003D01*
X34169015Y46607210D01*
X34191112Y46618109D01*
X34247784Y46667294D01*
X34274190Y46710450D01*
X34299075Y46781599D01*
X34303196Y46799769D01*
X34313758Y46875041D01*
X34316660Y46949394D01*
X34316345Y46975927D01*
X34310973Y47054173D01*
X34296510Y47129279D01*
X34281055Y47174802D01*
X34242654Y47241753D01*
X34225684Y47259727D01*
X34162787Y47300737D01*
X34141172Y47307149D01*
X34067532Y47315392D01*
X34041085Y47314270D01*
X33967515Y47297440D01*
X33945098Y47286907D01*
X33888014Y47236624D01*
X33861968Y47194289D01*
X33836723Y47123784D01*
X33830373Y47096220D01*
X33820666Y47022690D01*
X33818038Y46949394D01*
X33433824Y46949394D01*
X33433722Y46951592D01*
X33437765Y47038725D01*
X33449894Y47119920D01*
X33470108Y47195174D01*
X33498408Y47264490D01*
X33543042Y47339830D01*
X33599319Y47406617D01*
X33620511Y47426803D01*
X33690544Y47479546D01*
X33756303Y47514546D01*
X33828789Y47541406D01*
X33908001Y47560127D01*
X33993939Y47570708D01*
X34067532Y47573312D01*
X34086066Y47573151D01*
G37*
G36*
X32337194Y47151261D02*
G01*
X32370167Y47151261D01*
X32443468Y47168474D01*
X32446737Y47168846D01*
X32520262Y47174502D01*
X32533931Y47174708D01*
X32608761Y47172144D01*
X32674249Y47164450D01*
X32749698Y47147795D01*
X32805041Y47130744D01*
X32805041Y46377500D01*
X33176168Y46377500D01*
X33176168Y47526418D01*
X32805041Y47526418D01*
X32805041Y47356425D01*
X32745690Y47404441D01*
X32683737Y47447567D01*
X32614944Y47484612D01*
X32591817Y47493811D01*
X32520413Y47514923D01*
X32444035Y47525908D01*
X32424755Y47526418D01*
X32380791Y47525319D01*
X32337194Y47522021D01*
X32337194Y47151261D01*
G37*
G36*
X31703169Y47572776D02*
G01*
X31777914Y47569105D01*
X31852602Y47561957D01*
X31927232Y47551331D01*
X31966765Y47544604D01*
X32041080Y47530814D01*
X32118108Y47513229D01*
X32118108Y47221603D01*
X32084036Y47221603D01*
X32075068Y47225464D01*
X32004667Y47253059D01*
X31934926Y47278389D01*
X31889984Y47292807D01*
X31815632Y47309285D01*
X31738921Y47315392D01*
X31659075Y47312291D01*
X31584156Y47301572D01*
X31508478Y47276191D01*
X31490102Y47265400D01*
X31443015Y47207296D01*
X31430076Y47134408D01*
X31430076Y47127814D01*
X31511249Y47122410D01*
X31591001Y47115724D01*
X31669335Y47107755D01*
X31746248Y47098504D01*
X31774393Y47094622D01*
X31853650Y47080077D01*
X31932605Y47058818D01*
X32001971Y47032192D01*
X32051040Y47006776D01*
X32113569Y46960580D01*
X32162804Y46904698D01*
X32194926Y46843492D01*
X32213715Y46771204D01*
X32219225Y46695870D01*
X32215309Y46637966D01*
X32194753Y46558596D01*
X32156576Y46488210D01*
X32107850Y46433187D01*
X32056564Y46393216D01*
X31983103Y46356250D01*
X31910700Y46337016D01*
X31831611Y46330605D01*
X31776630Y46333568D01*
X31703017Y46348557D01*
X31659397Y46363515D01*
X31589444Y46395085D01*
X31569546Y46405091D01*
X31506280Y46445277D01*
X31492775Y46455119D01*
X31431908Y46500232D01*
X31431908Y46377500D01*
X31064078Y46377500D01*
X31064078Y46672056D01*
X31431908Y46672056D01*
X31466340Y46646039D01*
X31532658Y46611606D01*
X31571777Y46598465D01*
X31645498Y46588525D01*
X31674342Y46588999D01*
X31748447Y46598417D01*
X31805233Y46629192D01*
X31836008Y46673155D01*
X31842236Y46732873D01*
X31841205Y46752858D01*
X31812927Y46821899D01*
X31794354Y46839790D01*
X31727930Y46873923D01*
X31667771Y46888460D01*
X31594940Y46899569D01*
X31578566Y46901588D01*
X31505136Y46909902D01*
X31431908Y46916788D01*
X31431908Y46672056D01*
X31064078Y46672056D01*
X31064078Y47168480D01*
X31064628Y47194194D01*
X31075206Y47277342D01*
X31099249Y47349830D01*
X31143213Y47419623D01*
X31204762Y47475493D01*
X31263688Y47508736D01*
X31334953Y47535102D01*
X31418557Y47554589D01*
X31497653Y47565575D01*
X31585317Y47571784D01*
X31661618Y47573312D01*
X31703169Y47572776D01*
G37*
G36*
X30340211Y47570794D02*
G01*
X30416684Y47557570D01*
X30491817Y47533012D01*
X30539513Y47511031D01*
X30603759Y47470502D01*
X30659246Y47420905D01*
X30701821Y47369979D01*
X30741216Y47307927D01*
X30772818Y47239555D01*
X30779955Y47219701D01*
X30798674Y47148546D01*
X30809593Y47069735D01*
X30812752Y46992259D01*
X30810691Y46919988D01*
X30802319Y46836330D01*
X30787507Y46760097D01*
X30761232Y46678416D01*
X30725683Y46607426D01*
X30680861Y46547126D01*
X30663940Y46529425D01*
X30597862Y46476463D01*
X30532741Y46442203D01*
X30459789Y46418220D01*
X30379005Y46404516D01*
X30305704Y46400947D01*
X30274905Y46401725D01*
X30199096Y46411032D01*
X30124354Y46432821D01*
X30104244Y46441144D01*
X30037375Y46475865D01*
X29975976Y46519282D01*
X29975976Y46499132D01*
X29977407Y46458897D01*
X29990631Y46383728D01*
X29996607Y46366335D01*
X30036793Y46304959D01*
X30066623Y46282617D01*
X30135345Y46254767D01*
X30151980Y46250560D01*
X30225170Y46239778D01*
X30302407Y46236816D01*
X30327074Y46237352D01*
X30401566Y46244565D01*
X30477895Y46258797D01*
X30501881Y46264362D01*
X30573350Y46283394D01*
X30643492Y46307158D01*
X30688921Y46307158D01*
X30688921Y46006739D01*
X30638412Y45995279D01*
X30563313Y45981532D01*
X30486688Y45970469D01*
X30472021Y45968650D01*
X30398297Y45961315D01*
X30323929Y45956915D01*
X30248918Y45955448D01*
X30212304Y45955889D01*
X30133440Y45960104D01*
X30059444Y45968782D01*
X29982937Y45983658D01*
X29919303Y46002102D01*
X29848928Y46032201D01*
X29781437Y46074516D01*
X29732879Y46117900D01*
X29687896Y46176450D01*
X29651744Y46246341D01*
X29638340Y46281817D01*
X29618347Y46360227D01*
X29608124Y46439301D01*
X29605216Y46516352D01*
X29605216Y47263368D01*
X29975976Y47263368D01*
X29975976Y46745329D01*
X30004577Y46728578D01*
X30073795Y46699534D01*
X30107441Y46690453D01*
X30182972Y46682315D01*
X30233775Y46685435D01*
X30307405Y46705305D01*
X30367986Y46747527D01*
X30375528Y46756068D01*
X30410561Y46823662D01*
X30426375Y46901400D01*
X30430268Y46977604D01*
X30429983Y46995895D01*
X30421653Y47071865D01*
X30398870Y47144107D01*
X30357361Y47208780D01*
X30347916Y47218851D01*
X30285734Y47262626D01*
X30214179Y47285366D01*
X30137543Y47291945D01*
X30128149Y47291825D01*
X30054378Y47284251D01*
X30048619Y47283268D01*
X29975976Y47263368D01*
X29605216Y47263368D01*
X29605216Y47526418D01*
X29964619Y47526418D01*
X29978174Y47489781D01*
X30044669Y47524678D01*
X30118125Y47550964D01*
X30142474Y47557402D01*
X30215123Y47569624D01*
X30288485Y47573312D01*
X30340211Y47570794D01*
G37*
G36*
X28726670Y47572648D02*
G01*
X28816552Y47565178D01*
X28900085Y47549407D01*
X28977266Y47525336D01*
X29048097Y47492964D01*
X29112578Y47452292D01*
X29170707Y47403319D01*
X29191958Y47381598D01*
X29239086Y47323162D01*
X29277646Y47258823D01*
X29307636Y47188581D01*
X29329058Y47112435D01*
X29341912Y47030386D01*
X29346196Y46942433D01*
X29345472Y46906232D01*
X29337325Y46820337D01*
X29320127Y46741024D01*
X29293877Y46668295D01*
X29258575Y46602149D01*
X29214221Y46542587D01*
X29160816Y46489607D01*
X29098904Y46443801D01*
X29029032Y46405758D01*
X28951199Y46375479D01*
X28865406Y46352965D01*
X28791040Y46340543D01*
X28711579Y46333089D01*
X28627023Y46330605D01*
X28618619Y46330627D01*
X28537103Y46333332D01*
X28460167Y46340545D01*
X28380826Y46353686D01*
X28359818Y46358196D01*
X28287976Y46376858D01*
X28213344Y46401101D01*
X28143788Y46427691D01*
X28143788Y46729209D01*
X28185188Y46729209D01*
X28224726Y46700880D01*
X28288894Y46664730D01*
X28359211Y46633222D01*
X28428848Y46609651D01*
X28507103Y46593807D01*
X28587089Y46588525D01*
X28642820Y46590439D01*
X28722836Y46601465D01*
X28799389Y46625582D01*
X28867724Y46666927D01*
X28884821Y46682239D01*
X28930789Y46742117D01*
X28959797Y46815590D01*
X28971405Y46893340D01*
X28122173Y46893340D01*
X28122173Y47022667D01*
X28123422Y47071578D01*
X28126689Y47104366D01*
X28491102Y47104366D01*
X28972504Y47104366D01*
X28968395Y47137466D01*
X28943898Y47209712D01*
X28895202Y47265200D01*
X28867909Y47282258D01*
X28793908Y47308334D01*
X28718980Y47315392D01*
X28691079Y47314562D01*
X28613527Y47300399D01*
X28548987Y47262269D01*
X28536062Y47248262D01*
X28502069Y47181151D01*
X28491102Y47104366D01*
X28126689Y47104366D01*
X28131057Y47148215D01*
X28149381Y47232129D01*
X28177700Y47307258D01*
X28216014Y47373602D01*
X28264322Y47431163D01*
X28302052Y47464479D01*
X28366869Y47506125D01*
X28441551Y47537775D01*
X28526100Y47559431D01*
X28604093Y47569842D01*
X28688938Y47573312D01*
X28726670Y47572648D01*
G37*
G36*
X27029308Y47151261D02*
G01*
X27062281Y47151261D01*
X27135582Y47168474D01*
X27138851Y47168846D01*
X27212376Y47174502D01*
X27226046Y47174708D01*
X27300876Y47172144D01*
X27366363Y47164450D01*
X27441812Y47147795D01*
X27497156Y47130744D01*
X27497156Y46377500D01*
X27868283Y46377500D01*
X27868283Y47526418D01*
X27497156Y47526418D01*
X27497156Y47356425D01*
X27437804Y47404441D01*
X27375852Y47447567D01*
X27307058Y47484612D01*
X27283931Y47493811D01*
X27212528Y47514923D01*
X27136149Y47525908D01*
X27116869Y47526418D01*
X27072906Y47525319D01*
X27029308Y47522021D01*
X27029308Y47151261D01*
G37*
G36*
X-28295097Y47596760D02*
G01*
X-27589480Y47596760D01*
X-27589480Y47315392D01*
X-28243806Y47315392D01*
X-28243806Y47010577D01*
X-27589480Y47010577D01*
X-27589480Y46377500D01*
X-27195638Y46377500D01*
X-27195638Y47901575D01*
X-28295097Y47901575D01*
X-28295097Y47596760D01*
G37*
G36*
X-29071574Y47573151D02*
G01*
X-28982749Y47567491D01*
X-28900327Y47553745D01*
X-28824310Y47531913D01*
X-28754698Y47501996D01*
X-28691489Y47463993D01*
X-28624092Y47407716D01*
X-28567193Y47341225D01*
X-28522066Y47265950D01*
X-28493452Y47196511D01*
X-28473014Y47120971D01*
X-28460751Y47039332D01*
X-28456664Y46951592D01*
X-28460725Y46864363D01*
X-28472907Y46783108D01*
X-28493211Y46707828D01*
X-28521636Y46638523D01*
X-28566467Y46563243D01*
X-28622993Y46496568D01*
X-28633520Y46486357D01*
X-28702196Y46431901D01*
X-28766648Y46395434D01*
X-28837665Y46367071D01*
X-28915247Y46346812D01*
X-28999395Y46334657D01*
X-29090108Y46330605D01*
X-29108798Y46330767D01*
X-29198300Y46336440D01*
X-29281218Y46350216D01*
X-29357554Y46372096D01*
X-29427306Y46402079D01*
X-29490475Y46440166D01*
X-29557588Y46496568D01*
X-29614114Y46563243D01*
X-29658945Y46638523D01*
X-29687371Y46707828D01*
X-29707675Y46783108D01*
X-29719857Y46864363D01*
X-29723816Y46949394D01*
X-29339602Y46949394D01*
X-29339444Y46928734D01*
X-29335114Y46849102D01*
X-29321650Y46773173D01*
X-29305610Y46727990D01*
X-29267428Y46664363D01*
X-29252817Y46647533D01*
X-29189759Y46605744D01*
X-29166563Y46598211D01*
X-29093405Y46588525D01*
X-29061417Y46590003D01*
X-28988625Y46607210D01*
X-28966528Y46618109D01*
X-28909856Y46667294D01*
X-28883450Y46710450D01*
X-28858565Y46781599D01*
X-28854444Y46799769D01*
X-28843882Y46875041D01*
X-28840980Y46949394D01*
X-28841295Y46975927D01*
X-28846667Y47054173D01*
X-28861130Y47129279D01*
X-28876585Y47174802D01*
X-28914986Y47241753D01*
X-28931956Y47259727D01*
X-28994853Y47300737D01*
X-29016468Y47307149D01*
X-29090108Y47315392D01*
X-29116555Y47314270D01*
X-29190125Y47297440D01*
X-29212542Y47286907D01*
X-29269626Y47236624D01*
X-29295672Y47194289D01*
X-29320917Y47123784D01*
X-29327267Y47096220D01*
X-29336974Y47022690D01*
X-29339602Y46949394D01*
X-29723816Y46949394D01*
X-29723918Y46951592D01*
X-29719875Y47038725D01*
X-29707746Y47119920D01*
X-29687532Y47195174D01*
X-29659232Y47264490D01*
X-29614598Y47339830D01*
X-29558321Y47406617D01*
X-29537129Y47426803D01*
X-29467096Y47479546D01*
X-29401337Y47514546D01*
X-29328851Y47541406D01*
X-29249639Y47560127D01*
X-29163701Y47570708D01*
X-29090108Y47573312D01*
X-29071574Y47573151D01*
G37*
G36*
X-30820446Y47151261D02*
G01*
X-30787473Y47151261D01*
X-30714172Y47168474D01*
X-30710903Y47168846D01*
X-30637378Y47174502D01*
X-30623709Y47174708D01*
X-30548879Y47172144D01*
X-30483391Y47164450D01*
X-30407942Y47147795D01*
X-30352599Y47130744D01*
X-30352599Y46377500D01*
X-29981472Y46377500D01*
X-29981472Y47526418D01*
X-30352599Y47526418D01*
X-30352599Y47356425D01*
X-30411950Y47404441D01*
X-30473903Y47447567D01*
X-30542696Y47484612D01*
X-30565823Y47493811D01*
X-30637227Y47514923D01*
X-30713605Y47525908D01*
X-30732885Y47526418D01*
X-30776849Y47525319D01*
X-30820446Y47522021D01*
X-30820446Y47151261D01*
G37*
G36*
X-31454471Y47572776D02*
G01*
X-31379726Y47569105D01*
X-31305038Y47561957D01*
X-31230408Y47551331D01*
X-31190875Y47544604D01*
X-31116560Y47530814D01*
X-31039532Y47513229D01*
X-31039532Y47221603D01*
X-31073604Y47221603D01*
X-31082572Y47225464D01*
X-31152973Y47253059D01*
X-31222714Y47278389D01*
X-31267656Y47292807D01*
X-31342008Y47309285D01*
X-31418719Y47315392D01*
X-31498565Y47312291D01*
X-31573484Y47301572D01*
X-31649162Y47276191D01*
X-31667538Y47265400D01*
X-31714625Y47207296D01*
X-31727564Y47134408D01*
X-31727564Y47127814D01*
X-31646391Y47122410D01*
X-31566639Y47115724D01*
X-31488305Y47107755D01*
X-31411392Y47098504D01*
X-31383247Y47094622D01*
X-31303990Y47080077D01*
X-31225035Y47058818D01*
X-31155669Y47032192D01*
X-31106600Y47006776D01*
X-31044071Y46960580D01*
X-30994836Y46904698D01*
X-30962714Y46843492D01*
X-30943925Y46771204D01*
X-30938415Y46695870D01*
X-30942331Y46637966D01*
X-30962887Y46558596D01*
X-31001064Y46488210D01*
X-31049790Y46433187D01*
X-31101076Y46393216D01*
X-31174537Y46356250D01*
X-31246940Y46337016D01*
X-31326029Y46330605D01*
X-31381010Y46333568D01*
X-31454623Y46348557D01*
X-31498243Y46363515D01*
X-31568196Y46395085D01*
X-31588094Y46405091D01*
X-31651360Y46445277D01*
X-31664865Y46455119D01*
X-31725732Y46500232D01*
X-31725732Y46377500D01*
X-32093562Y46377500D01*
X-32093562Y46672056D01*
X-31725732Y46672056D01*
X-31691300Y46646039D01*
X-31624982Y46611606D01*
X-31585863Y46598465D01*
X-31512142Y46588525D01*
X-31483298Y46588999D01*
X-31409193Y46598417D01*
X-31352407Y46629192D01*
X-31321632Y46673155D01*
X-31315404Y46732873D01*
X-31316435Y46752858D01*
X-31344713Y46821899D01*
X-31363286Y46839790D01*
X-31429710Y46873923D01*
X-31489869Y46888460D01*
X-31562700Y46899569D01*
X-31579074Y46901588D01*
X-31652504Y46909902D01*
X-31725732Y46916788D01*
X-31725732Y46672056D01*
X-32093562Y46672056D01*
X-32093562Y47168480D01*
X-32093012Y47194194D01*
X-32082434Y47277342D01*
X-32058391Y47349830D01*
X-32014427Y47419623D01*
X-31952878Y47475493D01*
X-31893952Y47508736D01*
X-31822687Y47535102D01*
X-31739083Y47554589D01*
X-31659987Y47565575D01*
X-31572323Y47571784D01*
X-31496022Y47573312D01*
X-31454471Y47572776D01*
G37*
G36*
X-32817429Y47570794D02*
G01*
X-32740956Y47557570D01*
X-32665823Y47533012D01*
X-32618127Y47511031D01*
X-32553881Y47470502D01*
X-32498394Y47420905D01*
X-32455819Y47369979D01*
X-32416424Y47307927D01*
X-32384822Y47239555D01*
X-32377685Y47219701D01*
X-32358966Y47148546D01*
X-32348047Y47069735D01*
X-32344888Y46992259D01*
X-32346949Y46919988D01*
X-32355321Y46836330D01*
X-32370133Y46760097D01*
X-32396408Y46678416D01*
X-32431957Y46607426D01*
X-32476779Y46547126D01*
X-32493700Y46529425D01*
X-32559778Y46476463D01*
X-32624899Y46442203D01*
X-32697851Y46418220D01*
X-32778635Y46404516D01*
X-32851936Y46400947D01*
X-32882735Y46401725D01*
X-32958544Y46411032D01*
X-33033286Y46432821D01*
X-33053396Y46441144D01*
X-33120265Y46475865D01*
X-33181664Y46519282D01*
X-33181664Y46499132D01*
X-33180233Y46458897D01*
X-33167009Y46383728D01*
X-33161033Y46366335D01*
X-33120847Y46304959D01*
X-33091017Y46282617D01*
X-33022295Y46254767D01*
X-33005660Y46250560D01*
X-32932470Y46239778D01*
X-32855233Y46236816D01*
X-32830566Y46237352D01*
X-32756074Y46244565D01*
X-32679745Y46258797D01*
X-32655759Y46264362D01*
X-32584290Y46283394D01*
X-32514148Y46307158D01*
X-32468719Y46307158D01*
X-32468719Y46006739D01*
X-32519228Y45995279D01*
X-32594327Y45981532D01*
X-32670952Y45970469D01*
X-32685619Y45968650D01*
X-32759343Y45961315D01*
X-32833711Y45956915D01*
X-32908722Y45955448D01*
X-32945336Y45955889D01*
X-33024200Y45960104D01*
X-33098196Y45968782D01*
X-33174703Y45983658D01*
X-33238337Y46002102D01*
X-33308712Y46032201D01*
X-33376203Y46074516D01*
X-33424761Y46117900D01*
X-33469744Y46176450D01*
X-33505896Y46246341D01*
X-33519300Y46281817D01*
X-33539293Y46360227D01*
X-33549516Y46439301D01*
X-33552424Y46516352D01*
X-33552424Y47263368D01*
X-33181664Y47263368D01*
X-33181664Y46745329D01*
X-33153063Y46728578D01*
X-33083845Y46699534D01*
X-33050199Y46690453D01*
X-32974668Y46682315D01*
X-32923865Y46685435D01*
X-32850235Y46705305D01*
X-32789654Y46747527D01*
X-32782112Y46756068D01*
X-32747079Y46823662D01*
X-32731265Y46901400D01*
X-32727372Y46977604D01*
X-32727657Y46995895D01*
X-32735987Y47071865D01*
X-32758770Y47144107D01*
X-32800279Y47208780D01*
X-32809724Y47218851D01*
X-32871906Y47262626D01*
X-32943461Y47285366D01*
X-33020097Y47291945D01*
X-33029491Y47291825D01*
X-33103262Y47284251D01*
X-33109021Y47283268D01*
X-33181664Y47263368D01*
X-33552424Y47263368D01*
X-33552424Y47526418D01*
X-33193021Y47526418D01*
X-33179466Y47489781D01*
X-33112971Y47524678D01*
X-33039515Y47550964D01*
X-33015166Y47557402D01*
X-32942517Y47569624D01*
X-32869155Y47573312D01*
X-32817429Y47570794D01*
G37*
G36*
X-34430970Y47572648D02*
G01*
X-34341088Y47565178D01*
X-34257555Y47549407D01*
X-34180374Y47525336D01*
X-34109543Y47492964D01*
X-34045062Y47452292D01*
X-33986933Y47403319D01*
X-33965682Y47381598D01*
X-33918554Y47323162D01*
X-33879994Y47258823D01*
X-33850004Y47188581D01*
X-33828582Y47112435D01*
X-33815728Y47030386D01*
X-33811444Y46942433D01*
X-33812168Y46906232D01*
X-33820315Y46820337D01*
X-33837513Y46741024D01*
X-33863763Y46668295D01*
X-33899065Y46602149D01*
X-33943419Y46542587D01*
X-33996824Y46489607D01*
X-34058736Y46443801D01*
X-34128608Y46405758D01*
X-34206441Y46375479D01*
X-34292234Y46352965D01*
X-34366600Y46340543D01*
X-34446061Y46333089D01*
X-34530617Y46330605D01*
X-34539021Y46330627D01*
X-34620537Y46333332D01*
X-34697473Y46340545D01*
X-34776814Y46353686D01*
X-34797822Y46358196D01*
X-34869664Y46376858D01*
X-34944296Y46401101D01*
X-35013852Y46427691D01*
X-35013852Y46729209D01*
X-34972452Y46729209D01*
X-34932914Y46700880D01*
X-34868746Y46664730D01*
X-34798429Y46633222D01*
X-34728792Y46609651D01*
X-34650537Y46593807D01*
X-34570551Y46588525D01*
X-34514820Y46590439D01*
X-34434804Y46601465D01*
X-34358251Y46625582D01*
X-34289916Y46666927D01*
X-34272819Y46682239D01*
X-34226851Y46742117D01*
X-34197843Y46815590D01*
X-34186235Y46893340D01*
X-35035467Y46893340D01*
X-35035467Y47022667D01*
X-35034218Y47071578D01*
X-35030951Y47104366D01*
X-34666538Y47104366D01*
X-34185136Y47104366D01*
X-34189245Y47137466D01*
X-34213742Y47209712D01*
X-34262438Y47265200D01*
X-34289731Y47282258D01*
X-34363732Y47308334D01*
X-34438660Y47315392D01*
X-34466561Y47314562D01*
X-34544113Y47300399D01*
X-34608653Y47262269D01*
X-34621578Y47248262D01*
X-34655571Y47181151D01*
X-34666538Y47104366D01*
X-35030951Y47104366D01*
X-35026583Y47148215D01*
X-35008259Y47232129D01*
X-34979940Y47307258D01*
X-34941626Y47373602D01*
X-34893318Y47431163D01*
X-34855588Y47464479D01*
X-34790771Y47506125D01*
X-34716089Y47537775D01*
X-34631540Y47559431D01*
X-34553547Y47569842D01*
X-34468702Y47573312D01*
X-34430970Y47572648D01*
G37*
G36*
X-36128332Y47151261D02*
G01*
X-36095359Y47151261D01*
X-36022058Y47168474D01*
X-36018789Y47168846D01*
X-35945264Y47174502D01*
X-35931594Y47174708D01*
X-35856764Y47172144D01*
X-35791277Y47164450D01*
X-35715828Y47147795D01*
X-35660484Y47130744D01*
X-35660484Y46377500D01*
X-35289357Y46377500D01*
X-35289357Y47526418D01*
X-35660484Y47526418D01*
X-35660484Y47356425D01*
X-35719836Y47404441D01*
X-35781788Y47447567D01*
X-35850582Y47484612D01*
X-35873709Y47493811D01*
X-35945112Y47514923D01*
X-36021491Y47525908D01*
X-36040771Y47526418D01*
X-36084734Y47525319D01*
X-36128332Y47522021D01*
X-36128332Y47151261D01*
G37*
G36*
X-27546249Y41377500D02*
G01*
X-27175122Y41377500D01*
X-27175122Y42995364D01*
X-27546249Y42995364D01*
X-27546249Y41377500D01*
G37*
G36*
X-28426993Y42572648D02*
G01*
X-28337110Y42565178D01*
X-28253578Y42549407D01*
X-28176396Y42525336D01*
X-28105565Y42492964D01*
X-28041085Y42452292D01*
X-27982955Y42403319D01*
X-27961704Y42381598D01*
X-27914576Y42323162D01*
X-27876017Y42258823D01*
X-27846026Y42188581D01*
X-27824604Y42112435D01*
X-27811751Y42030386D01*
X-27807466Y41942433D01*
X-27808190Y41906232D01*
X-27816337Y41820337D01*
X-27833535Y41741024D01*
X-27859786Y41668295D01*
X-27895088Y41602149D01*
X-27939441Y41542587D01*
X-27992847Y41489607D01*
X-28054758Y41443801D01*
X-28124630Y41405758D01*
X-28202463Y41375479D01*
X-28288256Y41352965D01*
X-28362623Y41340543D01*
X-28442084Y41333089D01*
X-28526639Y41330605D01*
X-28535043Y41330627D01*
X-28616559Y41333332D01*
X-28693495Y41340545D01*
X-28772836Y41353686D01*
X-28793845Y41358196D01*
X-28865686Y41376858D01*
X-28940319Y41401101D01*
X-29009874Y41427691D01*
X-29009874Y41729209D01*
X-28968475Y41729209D01*
X-28928936Y41700880D01*
X-28864768Y41664730D01*
X-28794452Y41633222D01*
X-28724814Y41609651D01*
X-28646559Y41593807D01*
X-28566573Y41588525D01*
X-28510842Y41590439D01*
X-28430826Y41601465D01*
X-28354274Y41625582D01*
X-28285938Y41666927D01*
X-28268841Y41682239D01*
X-28222874Y41742117D01*
X-28193865Y41815590D01*
X-28182257Y41893340D01*
X-29031489Y41893340D01*
X-29031489Y42022667D01*
X-29030240Y42071578D01*
X-29026973Y42104366D01*
X-28662561Y42104366D01*
X-28181158Y42104366D01*
X-28185267Y42137466D01*
X-28209764Y42209712D01*
X-28258461Y42265200D01*
X-28285753Y42282258D01*
X-28359755Y42308334D01*
X-28434682Y42315392D01*
X-28462583Y42314562D01*
X-28540136Y42300399D01*
X-28604675Y42262269D01*
X-28617601Y42248262D01*
X-28651593Y42181151D01*
X-28662561Y42104366D01*
X-29026973Y42104366D01*
X-29022605Y42148215D01*
X-29004281Y42232129D01*
X-28975962Y42307258D01*
X-28937649Y42373602D01*
X-28889340Y42431163D01*
X-28851610Y42464479D01*
X-28786794Y42506125D01*
X-28712111Y42537775D01*
X-28627563Y42559431D01*
X-28549569Y42569842D01*
X-28464724Y42573312D01*
X-28426993Y42572648D01*
G37*
G36*
X-30035694Y42713996D02*
G01*
X-30007850Y42713996D01*
X-29943370Y42729017D01*
X-29869639Y42737312D01*
X-29858374Y42737444D01*
X-29781277Y42730611D01*
X-29712858Y42698592D01*
X-29710362Y42696045D01*
X-29679257Y42625127D01*
X-29672044Y42550801D01*
X-29671894Y42536310D01*
X-29671894Y42526418D01*
X-29958391Y42526418D01*
X-29958391Y42268497D01*
X-29684351Y42268497D01*
X-29684351Y41377500D01*
X-29313224Y41377500D01*
X-29313224Y42268497D01*
X-29154588Y42268497D01*
X-29154588Y42526418D01*
X-29313224Y42526418D01*
X-29313224Y42559391D01*
X-29317191Y42637297D01*
X-29331847Y42718486D01*
X-29357302Y42789227D01*
X-29399617Y42857279D01*
X-29426064Y42886188D01*
X-29489742Y42933952D01*
X-29557370Y42964552D01*
X-29636112Y42984702D01*
X-29712452Y42993658D01*
X-29767882Y42995364D01*
X-29841700Y42994076D01*
X-29916992Y42989502D01*
X-29991183Y42981685D01*
X-30035694Y42974848D01*
X-30035694Y42713996D01*
G37*
G36*
X-30912037Y41365409D02*
G01*
X-30838540Y41348721D01*
X-30785275Y41340130D01*
X-30710812Y41332986D01*
X-30633484Y41330642D01*
X-30621510Y41330605D01*
X-30544205Y41333709D01*
X-30463847Y41345177D01*
X-30384976Y41368630D01*
X-30319935Y41403120D01*
X-30299110Y41418899D01*
X-30248105Y41478710D01*
X-30216781Y41548565D01*
X-30200191Y41622574D01*
X-30193700Y41708609D01*
X-30193597Y41721882D01*
X-30193597Y42268497D01*
X-30041189Y42268497D01*
X-30041189Y42526418D01*
X-30193597Y42526418D01*
X-30193597Y42854680D01*
X-30564724Y42854680D01*
X-30564724Y42526418D01*
X-30912037Y42526418D01*
X-30912037Y42268497D01*
X-30564724Y42268497D01*
X-30564724Y41855971D01*
X-30565197Y41782296D01*
X-30565823Y41748993D01*
X-30578686Y41676504D01*
X-30582309Y41667294D01*
X-30630966Y41611117D01*
X-30633234Y41609774D01*
X-30706942Y41589853D01*
X-30739846Y41588525D01*
X-30812770Y41603997D01*
X-30815683Y41605012D01*
X-30881263Y41635420D01*
X-30912037Y41635420D01*
X-30912037Y41365409D01*
G37*
G36*
X35002860Y44651261D02*
G01*
X35035833Y44651261D01*
X35109134Y44668474D01*
X35112403Y44668846D01*
X35185928Y44674502D01*
X35199598Y44674708D01*
X35274428Y44672144D01*
X35339915Y44664450D01*
X35415364Y44647795D01*
X35470707Y44630744D01*
X35470707Y43877500D01*
X35841834Y43877500D01*
X35841834Y45026418D01*
X35470707Y45026418D01*
X35470707Y44856425D01*
X35411356Y44904441D01*
X35349404Y44947567D01*
X35280610Y44984612D01*
X35257483Y44993811D01*
X35186080Y45014923D01*
X35109701Y45025908D01*
X35090421Y45026418D01*
X35046458Y45025319D01*
X35002860Y45022021D01*
X35002860Y44651261D01*
G37*
G36*
X34263166Y45072648D02*
G01*
X34353049Y45065178D01*
X34436581Y45049407D01*
X34513763Y45025336D01*
X34584594Y44992964D01*
X34649074Y44952292D01*
X34707204Y44903319D01*
X34728455Y44881598D01*
X34775583Y44823162D01*
X34814143Y44758823D01*
X34844133Y44688581D01*
X34865555Y44612435D01*
X34878408Y44530386D01*
X34882693Y44442433D01*
X34881969Y44406232D01*
X34873822Y44320337D01*
X34856624Y44241024D01*
X34830373Y44168295D01*
X34795072Y44102149D01*
X34750718Y44042587D01*
X34697312Y43989607D01*
X34635401Y43943801D01*
X34565529Y43905758D01*
X34487696Y43875479D01*
X34401903Y43852965D01*
X34327536Y43840543D01*
X34248075Y43833089D01*
X34163520Y43830605D01*
X34155116Y43830627D01*
X34073600Y43833332D01*
X33996664Y43840545D01*
X33917323Y43853686D01*
X33896315Y43858196D01*
X33824473Y43876858D01*
X33749840Y43901101D01*
X33680285Y43927691D01*
X33680285Y44229209D01*
X33721684Y44229209D01*
X33761223Y44200880D01*
X33825391Y44164730D01*
X33895707Y44133222D01*
X33965345Y44109651D01*
X34043600Y44093807D01*
X34123586Y44088525D01*
X34179317Y44090439D01*
X34259333Y44101465D01*
X34335885Y44125582D01*
X34404221Y44166927D01*
X34421318Y44182239D01*
X34467285Y44242117D01*
X34496294Y44315590D01*
X34507902Y44393340D01*
X33658670Y44393340D01*
X33658670Y44522667D01*
X33659919Y44571578D01*
X33663186Y44604366D01*
X34027599Y44604366D01*
X34509001Y44604366D01*
X34504892Y44637466D01*
X34480395Y44709712D01*
X34431698Y44765200D01*
X34404406Y44782258D01*
X34330404Y44808334D01*
X34255477Y44815392D01*
X34227576Y44814562D01*
X34150024Y44800399D01*
X34085484Y44762269D01*
X34072558Y44748262D01*
X34038566Y44681151D01*
X34027599Y44604366D01*
X33663186Y44604366D01*
X33667554Y44648215D01*
X33685878Y44732129D01*
X33714197Y44807258D01*
X33752510Y44873602D01*
X33800819Y44931163D01*
X33838549Y44964479D01*
X33903365Y45006125D01*
X33978048Y45037775D01*
X34062596Y45059431D01*
X34140590Y45069842D01*
X34225435Y45073312D01*
X34263166Y45072648D01*
G37*
G36*
X32239375Y45026418D02*
G01*
X32685606Y43877500D01*
X33106192Y43877500D01*
X33549127Y45026418D01*
X33156384Y45026418D01*
X32888572Y44236536D01*
X32623691Y45026418D01*
X32239375Y45026418D01*
G37*
G36*
X31641468Y43877500D02*
G01*
X32026883Y43877500D01*
X32026883Y44276104D01*
X31641468Y44276104D01*
X31641468Y43877500D01*
G37*
G36*
X29346196Y43877500D02*
G01*
X30550802Y43877500D01*
X30550802Y44142015D01*
X30490357Y44184748D01*
X30429877Y44228638D01*
X30369362Y44273686D01*
X30308812Y44319890D01*
X30274197Y44346812D01*
X30216096Y44392962D01*
X30156178Y44442140D01*
X30097037Y44492923D01*
X30051813Y44534024D01*
X29994042Y44590399D01*
X29939834Y44649331D01*
X29892993Y44709237D01*
X29874860Y44736990D01*
X29840702Y44807115D01*
X29823391Y44881687D01*
X29822103Y44908082D01*
X29833228Y44983095D01*
X29870094Y45046568D01*
X29889514Y45064886D01*
X29954081Y45100704D01*
X30031069Y45117560D01*
X30083687Y45120207D01*
X30162416Y45113677D01*
X30237988Y45096057D01*
X30283356Y45080640D01*
X30353409Y45050840D01*
X30419998Y45015845D01*
X30477529Y44979523D01*
X30510502Y44979523D01*
X30510502Y45327203D01*
X30439540Y45353696D01*
X30361643Y45376113D01*
X30294713Y45392416D01*
X30214313Y45408178D01*
X30133855Y45418781D01*
X30053339Y45424226D01*
X30008582Y45425022D01*
X29921825Y45422133D01*
X29841758Y45413466D01*
X29768381Y45399021D01*
X29689161Y45374059D01*
X29619574Y45340777D01*
X29568945Y45306687D01*
X29509845Y45250199D01*
X29465261Y45184279D01*
X29435193Y45108928D01*
X29420974Y45036835D01*
X29417271Y44971463D01*
X29423009Y44892605D01*
X29440223Y44815950D01*
X29468913Y44741497D01*
X29489811Y44701086D01*
X29530889Y44636652D01*
X29581585Y44571210D01*
X29633833Y44513122D01*
X29693443Y44454263D01*
X29711827Y44437304D01*
X29770553Y44385734D01*
X29829493Y44336812D01*
X29888648Y44290537D01*
X29900505Y44281599D01*
X29963772Y44234321D01*
X30024405Y44190037D01*
X30035327Y44182315D01*
X29346196Y44182315D01*
X29346196Y43877500D01*
G37*
G36*
X28675383Y43877500D02*
G01*
X29060798Y43877500D01*
X29060798Y44276104D01*
X28675383Y44276104D01*
X28675383Y43877500D01*
G37*
G36*
X27193439Y43877500D02*
G01*
X28217794Y43877500D01*
X28217794Y44135420D01*
X27894294Y44135420D01*
X27894294Y44932629D01*
X28217794Y44932629D01*
X28217794Y45190549D01*
X28140817Y45193031D01*
X28075645Y45199342D01*
X28002861Y45214433D01*
X27962438Y45230116D01*
X27901201Y45273156D01*
X27881838Y45297527D01*
X27855127Y45368164D01*
X27851063Y45401575D01*
X27509978Y45401575D01*
X27509978Y44135420D01*
X27193439Y44135420D01*
X27193439Y43877500D01*
G37*
G36*
X31664549Y42151261D02*
G01*
X31697522Y42151261D01*
X31770823Y42168474D01*
X31774092Y42168846D01*
X31847617Y42174502D01*
X31861287Y42174708D01*
X31936117Y42172144D01*
X32001604Y42164450D01*
X32077053Y42147795D01*
X32132396Y42130744D01*
X32132396Y41377500D01*
X32503523Y41377500D01*
X32503523Y42526418D01*
X32132396Y42526418D01*
X32132396Y42356425D01*
X32073045Y42404441D01*
X32011093Y42447567D01*
X31942299Y42484612D01*
X31919172Y42493811D01*
X31847769Y42514923D01*
X31771390Y42525908D01*
X31752110Y42526418D01*
X31708147Y42525319D01*
X31664549Y42522021D01*
X31664549Y42151261D01*
G37*
G36*
X31088991Y41377500D02*
G01*
X31460118Y41377500D01*
X31460118Y42526418D01*
X31088991Y42526418D01*
X31088991Y41377500D01*
G37*
G36*
X31078733Y42713996D02*
G01*
X31470376Y42713996D01*
X31470376Y42995364D01*
X31078733Y42995364D01*
X31078733Y42713996D01*
G37*
G36*
X30353400Y42570794D02*
G01*
X30429873Y42557570D01*
X30505006Y42533012D01*
X30552702Y42511031D01*
X30616948Y42470502D01*
X30672435Y42420905D01*
X30715010Y42369979D01*
X30754405Y42307927D01*
X30786008Y42239555D01*
X30793144Y42219701D01*
X30811863Y42148546D01*
X30822783Y42069735D01*
X30825941Y41992259D01*
X30823881Y41919988D01*
X30815509Y41836330D01*
X30800697Y41760097D01*
X30774421Y41678416D01*
X30738873Y41607426D01*
X30694050Y41547126D01*
X30677129Y41529425D01*
X30611052Y41476463D01*
X30545930Y41442203D01*
X30472978Y41418220D01*
X30392195Y41404516D01*
X30318893Y41400947D01*
X30288094Y41401725D01*
X30212286Y41411032D01*
X30137543Y41432821D01*
X30117433Y41441144D01*
X30050564Y41475865D01*
X29989165Y41519282D01*
X29989165Y41499132D01*
X29990596Y41458897D01*
X30003820Y41383728D01*
X30009796Y41366335D01*
X30049982Y41304959D01*
X30079812Y41282617D01*
X30148534Y41254767D01*
X30165169Y41250560D01*
X30238360Y41239778D01*
X30315596Y41236816D01*
X30340263Y41237352D01*
X30414755Y41244565D01*
X30491084Y41258797D01*
X30515070Y41264362D01*
X30586539Y41283394D01*
X30656681Y41307158D01*
X30702110Y41307158D01*
X30702110Y41006739D01*
X30651601Y40995279D01*
X30576502Y40981532D01*
X30499877Y40970469D01*
X30485210Y40968650D01*
X30411486Y40961315D01*
X30337118Y40956915D01*
X30262107Y40955448D01*
X30225493Y40955889D01*
X30146629Y40960104D01*
X30072633Y40968782D01*
X29996126Y40983658D01*
X29932493Y41002102D01*
X29862117Y41032201D01*
X29794626Y41074516D01*
X29746068Y41117900D01*
X29701085Y41176450D01*
X29664933Y41246341D01*
X29651529Y41281817D01*
X29631536Y41360227D01*
X29621313Y41439301D01*
X29618405Y41516352D01*
X29618405Y42263368D01*
X29989165Y42263368D01*
X29989165Y41745329D01*
X30017766Y41728578D01*
X30086985Y41699534D01*
X30120630Y41690453D01*
X30196161Y41682315D01*
X30246964Y41685435D01*
X30320594Y41705305D01*
X30381175Y41747527D01*
X30388717Y41756068D01*
X30423751Y41823662D01*
X30439564Y41901400D01*
X30443457Y41977604D01*
X30443172Y41995895D01*
X30434842Y42071865D01*
X30412059Y42144107D01*
X30370551Y42208780D01*
X30361105Y42218851D01*
X30298924Y42262626D01*
X30227368Y42285366D01*
X30150732Y42291945D01*
X30141338Y42291825D01*
X30067567Y42284251D01*
X30061809Y42283268D01*
X29989165Y42263368D01*
X29618405Y42263368D01*
X29618405Y42526418D01*
X29977808Y42526418D01*
X29991364Y42489781D01*
X30057859Y42524678D01*
X30131315Y42550964D01*
X30155663Y42557402D01*
X30228312Y42569624D01*
X30301674Y42573312D01*
X30353400Y42570794D01*
G37*
G36*
X28112648Y41377500D02*
G01*
X28485606Y41377500D01*
X28485606Y41952691D01*
X28487674Y42026937D01*
X28492934Y42092276D01*
X28505785Y42165291D01*
X28517480Y42195225D01*
X28570613Y42247434D01*
X28577930Y42250912D01*
X28651085Y42267106D01*
X28688572Y42268497D01*
X28762007Y42259981D01*
X28791154Y42252011D01*
X28859619Y42223675D01*
X28903994Y42199255D01*
X28903994Y41377500D01*
X29275121Y41377500D01*
X29275121Y42995364D01*
X28903994Y42995364D01*
X28903994Y42412845D01*
X28842922Y42457846D01*
X28777477Y42499166D01*
X28713851Y42531913D01*
X28642599Y42557141D01*
X28565680Y42570725D01*
X28511252Y42573312D01*
X28433256Y42568053D01*
X28353692Y42549162D01*
X28284340Y42516533D01*
X28225201Y42470165D01*
X28218527Y42463403D01*
X28172205Y42401671D01*
X28139117Y42326383D01*
X28121023Y42249386D01*
X28113578Y42175129D01*
X28112648Y42135141D01*
X28112648Y41377500D01*
G37*
G36*
X27040299Y41365409D02*
G01*
X27113797Y41348721D01*
X27167061Y41340130D01*
X27241525Y41332986D01*
X27318852Y41330642D01*
X27330826Y41330605D01*
X27408132Y41333709D01*
X27488490Y41345177D01*
X27567361Y41368630D01*
X27632402Y41403120D01*
X27653227Y41418899D01*
X27704232Y41478710D01*
X27735556Y41548565D01*
X27752145Y41622574D01*
X27758637Y41708609D01*
X27758740Y41721882D01*
X27758740Y42268497D01*
X27911147Y42268497D01*
X27911147Y42526418D01*
X27758740Y42526418D01*
X27758740Y42854680D01*
X27387613Y42854680D01*
X27387613Y42526418D01*
X27040299Y42526418D01*
X27040299Y42268497D01*
X27387613Y42268497D01*
X27387613Y41855971D01*
X27387139Y41782296D01*
X27386514Y41748993D01*
X27373651Y41676504D01*
X27370027Y41667294D01*
X27321371Y41611117D01*
X27319103Y41609774D01*
X27245395Y41589853D01*
X27212491Y41588525D01*
X27139567Y41603997D01*
X27136653Y41605012D01*
X27071074Y41635420D01*
X27040299Y41635420D01*
X27040299Y41365409D01*
G37*
D11*
X88615601Y-5581376D02*
X88615601Y-4381376D01*
X88615601Y-4381376D02*
X87929887Y-5581376D01*
X87929887Y-5581376D02*
X87929887Y-4381376D01*
X86901315Y-5524234D02*
X87015601Y-5581376D01*
X87015601Y-5581376D02*
X87244173Y-5581376D01*
X87244173Y-5581376D02*
X87358458Y-5524234D01*
X87358458Y-5524234D02*
X87415601Y-5409948D01*
X87415601Y-5409948D02*
X87415601Y-4952805D01*
X87415601Y-4952805D02*
X87358458Y-4838519D01*
X87358458Y-4838519D02*
X87244173Y-4781376D01*
X87244173Y-4781376D02*
X87015601Y-4781376D01*
X87015601Y-4781376D02*
X86901315Y-4838519D01*
X86901315Y-4838519D02*
X86844173Y-4952805D01*
X86844173Y-4952805D02*
X86844173Y-5067091D01*
X86844173Y-5067091D02*
X87415601Y-5181376D01*
X85815602Y-4781376D02*
X85815602Y-5752805D01*
X85815602Y-5752805D02*
X85872744Y-5867091D01*
X85872744Y-5867091D02*
X85929887Y-5924234D01*
X85929887Y-5924234D02*
X86044173Y-5981376D01*
X86044173Y-5981376D02*
X86215602Y-5981376D01*
X86215602Y-5981376D02*
X86329887Y-5924234D01*
X85815602Y-5524234D02*
X85929887Y-5581376D01*
X85929887Y-5581376D02*
X86158459Y-5581376D01*
X86158459Y-5581376D02*
X86272744Y-5524234D01*
X86272744Y-5524234D02*
X86329887Y-5467091D01*
X86329887Y-5467091D02*
X86387030Y-5352805D01*
X86387030Y-5352805D02*
X86387030Y-5009948D01*
X86387030Y-5009948D02*
X86329887Y-4895662D01*
X86329887Y-4895662D02*
X86272744Y-4838519D01*
X86272744Y-4838519D02*
X86158459Y-4781376D01*
X86158459Y-4781376D02*
X85929887Y-4781376D01*
X85929887Y-4781376D02*
X85815602Y-4838519D01*
X84729888Y-5581376D02*
X84729888Y-4952805D01*
X84729888Y-4952805D02*
X84787030Y-4838519D01*
X84787030Y-4838519D02*
X84901316Y-4781376D01*
X84901316Y-4781376D02*
X85129888Y-4781376D01*
X85129888Y-4781376D02*
X85244173Y-4838519D01*
X84729888Y-5524234D02*
X84844173Y-5581376D01*
X84844173Y-5581376D02*
X85129888Y-5581376D01*
X85129888Y-5581376D02*
X85244173Y-5524234D01*
X85244173Y-5524234D02*
X85301316Y-5409948D01*
X85301316Y-5409948D02*
X85301316Y-5295662D01*
X85301316Y-5295662D02*
X85244173Y-5181376D01*
X85244173Y-5181376D02*
X85129888Y-5124234D01*
X85129888Y-5124234D02*
X84844173Y-5124234D01*
X84844173Y-5124234D02*
X84729888Y-5067091D01*
X84329888Y-4781376D02*
X83872745Y-4781376D01*
X84158459Y-4381376D02*
X84158459Y-5409948D01*
X84158459Y-5409948D02*
X84101316Y-5524234D01*
X84101316Y-5524234D02*
X83987031Y-5581376D01*
X83987031Y-5581376D02*
X83872745Y-5581376D01*
X83472745Y-5581376D02*
X83472745Y-4781376D01*
X83472745Y-4381376D02*
X83529888Y-4438519D01*
X83529888Y-4438519D02*
X83472745Y-4495662D01*
X83472745Y-4495662D02*
X83415602Y-4438519D01*
X83415602Y-4438519D02*
X83472745Y-4381376D01*
X83472745Y-4381376D02*
X83472745Y-4495662D01*
X83015602Y-4781376D02*
X82729888Y-5581376D01*
X82729888Y-5581376D02*
X82444173Y-4781376D01*
X81529887Y-5524234D02*
X81644173Y-5581376D01*
X81644173Y-5581376D02*
X81872745Y-5581376D01*
X81872745Y-5581376D02*
X81987030Y-5524234D01*
X81987030Y-5524234D02*
X82044173Y-5409948D01*
X82044173Y-5409948D02*
X82044173Y-4952805D01*
X82044173Y-4952805D02*
X81987030Y-4838519D01*
X81987030Y-4838519D02*
X81872745Y-4781376D01*
X81872745Y-4781376D02*
X81644173Y-4781376D01*
X81644173Y-4781376D02*
X81529887Y-4838519D01*
X81529887Y-4838519D02*
X81472745Y-4952805D01*
X81472745Y-4952805D02*
X81472745Y-5067091D01*
X81472745Y-5067091D02*
X82044173Y-5181376D01*
X88615601Y-7513309D02*
X88615601Y-6313309D01*
X88615601Y-6313309D02*
X88158458Y-6313309D01*
X88158458Y-6313309D02*
X88044173Y-6370452D01*
X88044173Y-6370452D02*
X87987030Y-6427595D01*
X87987030Y-6427595D02*
X87929887Y-6541881D01*
X87929887Y-6541881D02*
X87929887Y-6713309D01*
X87929887Y-6713309D02*
X87987030Y-6827595D01*
X87987030Y-6827595D02*
X88044173Y-6884738D01*
X88044173Y-6884738D02*
X88158458Y-6941881D01*
X88158458Y-6941881D02*
X88615601Y-6941881D01*
X87244173Y-7513309D02*
X87358458Y-7456167D01*
X87358458Y-7456167D02*
X87415601Y-7399024D01*
X87415601Y-7399024D02*
X87472744Y-7284738D01*
X87472744Y-7284738D02*
X87472744Y-6941881D01*
X87472744Y-6941881D02*
X87415601Y-6827595D01*
X87415601Y-6827595D02*
X87358458Y-6770452D01*
X87358458Y-6770452D02*
X87244173Y-6713309D01*
X87244173Y-6713309D02*
X87072744Y-6713309D01*
X87072744Y-6713309D02*
X86958458Y-6770452D01*
X86958458Y-6770452D02*
X86901316Y-6827595D01*
X86901316Y-6827595D02*
X86844173Y-6941881D01*
X86844173Y-6941881D02*
X86844173Y-7284738D01*
X86844173Y-7284738D02*
X86901316Y-7399024D01*
X86901316Y-7399024D02*
X86958458Y-7456167D01*
X86958458Y-7456167D02*
X87072744Y-7513309D01*
X87072744Y-7513309D02*
X87244173Y-7513309D01*
X86387030Y-7456167D02*
X86272744Y-7513309D01*
X86272744Y-7513309D02*
X86044173Y-7513309D01*
X86044173Y-7513309D02*
X85929887Y-7456167D01*
X85929887Y-7456167D02*
X85872744Y-7341881D01*
X85872744Y-7341881D02*
X85872744Y-7284738D01*
X85872744Y-7284738D02*
X85929887Y-7170452D01*
X85929887Y-7170452D02*
X86044173Y-7113309D01*
X86044173Y-7113309D02*
X86215602Y-7113309D01*
X86215602Y-7113309D02*
X86329887Y-7056167D01*
X86329887Y-7056167D02*
X86387030Y-6941881D01*
X86387030Y-6941881D02*
X86387030Y-6884738D01*
X86387030Y-6884738D02*
X86329887Y-6770452D01*
X86329887Y-6770452D02*
X86215602Y-6713309D01*
X86215602Y-6713309D02*
X86044173Y-6713309D01*
X86044173Y-6713309D02*
X85929887Y-6770452D01*
X85358458Y-7513309D02*
X85358458Y-6713309D01*
X85358458Y-6313309D02*
X85415601Y-6370452D01*
X85415601Y-6370452D02*
X85358458Y-6427595D01*
X85358458Y-6427595D02*
X85301315Y-6370452D01*
X85301315Y-6370452D02*
X85358458Y-6313309D01*
X85358458Y-6313309D02*
X85358458Y-6427595D01*
X84958458Y-6713309D02*
X84501315Y-6713309D01*
X84787029Y-6313309D02*
X84787029Y-7341881D01*
X84787029Y-7341881D02*
X84729886Y-7456167D01*
X84729886Y-7456167D02*
X84615601Y-7513309D01*
X84615601Y-7513309D02*
X84501315Y-7513309D01*
X84101315Y-7513309D02*
X84101315Y-6713309D01*
X84101315Y-6313309D02*
X84158458Y-6370452D01*
X84158458Y-6370452D02*
X84101315Y-6427595D01*
X84101315Y-6427595D02*
X84044172Y-6370452D01*
X84044172Y-6370452D02*
X84101315Y-6313309D01*
X84101315Y-6313309D02*
X84101315Y-6427595D01*
X83644172Y-6713309D02*
X83358458Y-7513309D01*
X83358458Y-7513309D02*
X83072743Y-6713309D01*
X82158457Y-7456167D02*
X82272743Y-7513309D01*
X82272743Y-7513309D02*
X82501315Y-7513309D01*
X82501315Y-7513309D02*
X82615600Y-7456167D01*
X82615600Y-7456167D02*
X82672743Y-7341881D01*
X82672743Y-7341881D02*
X82672743Y-6884738D01*
X82672743Y-6884738D02*
X82615600Y-6770452D01*
X82615600Y-6770452D02*
X82501315Y-6713309D01*
X82501315Y-6713309D02*
X82272743Y-6713309D01*
X82272743Y-6713309D02*
X82158457Y-6770452D01*
X82158457Y-6770452D02*
X82101315Y-6884738D01*
X82101315Y-6884738D02*
X82101315Y-6999024D01*
X82101315Y-6999024D02*
X82672743Y-7113309D01*
D12*
G36*
X-28014096Y44651261D02*
G01*
X-27981123Y44651261D01*
X-27907822Y44668474D01*
X-27904553Y44668846D01*
X-27831028Y44674502D01*
X-27817358Y44674708D01*
X-27742528Y44672144D01*
X-27677041Y44664450D01*
X-27601592Y44647795D01*
X-27546249Y44630744D01*
X-27546249Y43877500D01*
X-27175122Y43877500D01*
X-27175122Y45026418D01*
X-27546249Y45026418D01*
X-27546249Y44856425D01*
X-27605600Y44904441D01*
X-27667552Y44947567D01*
X-27736346Y44984612D01*
X-27759473Y44993811D01*
X-27830876Y45014923D01*
X-27907255Y45025908D01*
X-27926535Y45026418D01*
X-27970498Y45025319D01*
X-28014096Y45022021D01*
X-28014096Y44651261D01*
G37*
G36*
X-28753790Y45072648D02*
G01*
X-28663907Y45065178D01*
X-28580375Y45049407D01*
X-28503193Y45025336D01*
X-28432362Y44992964D01*
X-28367882Y44952292D01*
X-28309752Y44903319D01*
X-28288501Y44881598D01*
X-28241373Y44823162D01*
X-28202813Y44758823D01*
X-28172823Y44688581D01*
X-28151401Y44612435D01*
X-28138548Y44530386D01*
X-28134263Y44442433D01*
X-28134987Y44406232D01*
X-28143134Y44320337D01*
X-28160332Y44241024D01*
X-28186583Y44168295D01*
X-28221884Y44102149D01*
X-28266238Y44042587D01*
X-28319644Y43989607D01*
X-28381555Y43943801D01*
X-28451427Y43905758D01*
X-28529260Y43875479D01*
X-28615053Y43852965D01*
X-28689420Y43840543D01*
X-28768881Y43833089D01*
X-28853436Y43830605D01*
X-28861840Y43830627D01*
X-28943356Y43833332D01*
X-29020292Y43840545D01*
X-29099633Y43853686D01*
X-29120641Y43858196D01*
X-29192483Y43876858D01*
X-29267116Y43901101D01*
X-29336671Y43927691D01*
X-29336671Y44229209D01*
X-29295272Y44229209D01*
X-29255733Y44200880D01*
X-29191565Y44164730D01*
X-29121249Y44133222D01*
X-29051611Y44109651D01*
X-28973356Y44093807D01*
X-28893370Y44088525D01*
X-28837639Y44090439D01*
X-28757623Y44101465D01*
X-28681071Y44125582D01*
X-28612735Y44166927D01*
X-28595638Y44182239D01*
X-28549671Y44242117D01*
X-28520662Y44315590D01*
X-28509054Y44393340D01*
X-29358286Y44393340D01*
X-29358286Y44522667D01*
X-29357037Y44571578D01*
X-29353770Y44604366D01*
X-28989357Y44604366D01*
X-28507955Y44604366D01*
X-28512064Y44637466D01*
X-28536561Y44709712D01*
X-28585258Y44765200D01*
X-28612550Y44782258D01*
X-28686552Y44808334D01*
X-28761479Y44815392D01*
X-28789380Y44814562D01*
X-28866932Y44800399D01*
X-28931472Y44762269D01*
X-28944398Y44748262D01*
X-28978390Y44681151D01*
X-28989357Y44604366D01*
X-29353770Y44604366D01*
X-29349402Y44648215D01*
X-29331078Y44732129D01*
X-29302759Y44807258D01*
X-29264446Y44873602D01*
X-29216137Y44931163D01*
X-29178407Y44964479D01*
X-29113591Y45006125D01*
X-29038908Y45037775D01*
X-28954360Y45059431D01*
X-28876366Y45069842D01*
X-28791521Y45073312D01*
X-28753790Y45072648D01*
G37*
G36*
X-30777581Y45026418D02*
G01*
X-30331350Y43877500D01*
X-29910764Y43877500D01*
X-29467829Y45026418D01*
X-29860572Y45026418D01*
X-30128384Y44236536D01*
X-30393265Y45026418D01*
X-30777581Y45026418D01*
G37*
G36*
X-31375488Y43877500D02*
G01*
X-30990073Y43877500D01*
X-30990073Y44276104D01*
X-31375488Y44276104D01*
X-31375488Y43877500D01*
G37*
G36*
X-33670760Y43877500D02*
G01*
X-32466154Y43877500D01*
X-32466154Y44142015D01*
X-32526599Y44184748D01*
X-32587079Y44228638D01*
X-32647594Y44273686D01*
X-32708144Y44319890D01*
X-32742759Y44346812D01*
X-32800860Y44392962D01*
X-32860778Y44442140D01*
X-32919919Y44492923D01*
X-32965143Y44534024D01*
X-33022914Y44590399D01*
X-33077122Y44649331D01*
X-33123963Y44709237D01*
X-33142096Y44736990D01*
X-33176254Y44807115D01*
X-33193565Y44881687D01*
X-33194853Y44908082D01*
X-33183728Y44983095D01*
X-33146862Y45046568D01*
X-33127442Y45064886D01*
X-33062875Y45100704D01*
X-32985887Y45117560D01*
X-32933269Y45120207D01*
X-32854540Y45113677D01*
X-32778968Y45096057D01*
X-32733600Y45080640D01*
X-32663547Y45050840D01*
X-32596958Y45015845D01*
X-32539427Y44979523D01*
X-32506454Y44979523D01*
X-32506454Y45327203D01*
X-32577416Y45353696D01*
X-32655313Y45376113D01*
X-32722243Y45392416D01*
X-32802643Y45408178D01*
X-32883101Y45418781D01*
X-32963617Y45424226D01*
X-33008374Y45425022D01*
X-33095131Y45422133D01*
X-33175198Y45413466D01*
X-33248575Y45399021D01*
X-33327795Y45374059D01*
X-33397382Y45340777D01*
X-33448011Y45306687D01*
X-33507111Y45250199D01*
X-33551695Y45184279D01*
X-33581763Y45108928D01*
X-33595982Y45036835D01*
X-33599685Y44971463D01*
X-33593947Y44892605D01*
X-33576733Y44815950D01*
X-33548043Y44741497D01*
X-33527145Y44701086D01*
X-33486067Y44636652D01*
X-33435371Y44571210D01*
X-33383123Y44513122D01*
X-33323513Y44454263D01*
X-33305129Y44437304D01*
X-33246403Y44385734D01*
X-33187463Y44336812D01*
X-33128308Y44290537D01*
X-33116451Y44281599D01*
X-33053184Y44234321D01*
X-32992551Y44190037D01*
X-32981629Y44182315D01*
X-33670760Y44182315D01*
X-33670760Y43877500D01*
G37*
G36*
X-34341573Y43877500D02*
G01*
X-33956158Y43877500D01*
X-33956158Y44276104D01*
X-34341573Y44276104D01*
X-34341573Y43877500D01*
G37*
G36*
X-35823517Y43877500D02*
G01*
X-34799162Y43877500D01*
X-34799162Y44135420D01*
X-35122662Y44135420D01*
X-35122662Y44932629D01*
X-34799162Y44932629D01*
X-34799162Y45190549D01*
X-34876139Y45193031D01*
X-34941311Y45199342D01*
X-35014095Y45214433D01*
X-35054518Y45230116D01*
X-35115755Y45273156D01*
X-35135118Y45297527D01*
X-35161829Y45368164D01*
X-35165893Y45401575D01*
X-35506978Y45401575D01*
X-35506978Y44135420D01*
X-35823517Y44135420D01*
X-35823517Y43877500D01*
G37*
D11*
X-97666666Y-9034819D02*
X-97666666Y-9749104D01*
X-97666666Y-9749104D02*
X-97619047Y-9891961D01*
X-97619047Y-9891961D02*
X-97523809Y-9987200D01*
X-97523809Y-9987200D02*
X-97380952Y-10034819D01*
X-97380952Y-10034819D02*
X-97285714Y-10034819D01*
X-98047619Y-9034819D02*
X-98666666Y-9034819D01*
X-98666666Y-9034819D02*
X-98333333Y-9415771D01*
X-98333333Y-9415771D02*
X-98476190Y-9415771D01*
X-98476190Y-9415771D02*
X-98571428Y-9463390D01*
X-98571428Y-9463390D02*
X-98619047Y-9511009D01*
X-98619047Y-9511009D02*
X-98666666Y-9606247D01*
X-98666666Y-9606247D02*
X-98666666Y-9844342D01*
X-98666666Y-9844342D02*
X-98619047Y-9939580D01*
X-98619047Y-9939580D02*
X-98571428Y-9987200D01*
X-98571428Y-9987200D02*
X-98476190Y-10034819D01*
X-98476190Y-10034819D02*
X-98190476Y-10034819D01*
X-98190476Y-10034819D02*
X-98095238Y-9987200D01*
X-98095238Y-9987200D02*
X-98047619Y-9939580D01*
X98333333Y-584819D02*
X98333333Y-1299104D01*
X98333333Y-1299104D02*
X98380952Y-1441961D01*
X98380952Y-1441961D02*
X98476190Y-1537200D01*
X98476190Y-1537200D02*
X98619047Y-1584819D01*
X98619047Y-1584819D02*
X98714285Y-1584819D01*
X97428571Y-918152D02*
X97428571Y-1584819D01*
X97666666Y-537200D02*
X97904761Y-1251485D01*
X97904761Y-1251485D02*
X97285714Y-1251485D01*
X-111995180Y17785713D02*
X-112995180Y17785713D01*
X-112995180Y17785713D02*
X-112995180Y17404761D01*
X-112995180Y17404761D02*
X-112947561Y17309523D01*
X-112947561Y17309523D02*
X-112899942Y17261904D01*
X-112899942Y17261904D02*
X-112804704Y17214285D01*
X-112804704Y17214285D02*
X-112661847Y17214285D01*
X-112661847Y17214285D02*
X-112566609Y17261904D01*
X-112566609Y17261904D02*
X-112518990Y17309523D01*
X-112518990Y17309523D02*
X-112471371Y17404761D01*
X-112471371Y17404761D02*
X-112471371Y17785713D01*
X-112042800Y16833332D02*
X-111995180Y16690475D01*
X-111995180Y16690475D02*
X-111995180Y16452380D01*
X-111995180Y16452380D02*
X-112042800Y16357142D01*
X-112042800Y16357142D02*
X-112090419Y16309523D01*
X-112090419Y16309523D02*
X-112185657Y16261904D01*
X-112185657Y16261904D02*
X-112280895Y16261904D01*
X-112280895Y16261904D02*
X-112376133Y16309523D01*
X-112376133Y16309523D02*
X-112423752Y16357142D01*
X-112423752Y16357142D02*
X-112471371Y16452380D01*
X-112471371Y16452380D02*
X-112518990Y16642856D01*
X-112518990Y16642856D02*
X-112566609Y16738094D01*
X-112566609Y16738094D02*
X-112614228Y16785713D01*
X-112614228Y16785713D02*
X-112709466Y16833332D01*
X-112709466Y16833332D02*
X-112804704Y16833332D01*
X-112804704Y16833332D02*
X-112899942Y16785713D01*
X-112899942Y16785713D02*
X-112947561Y16738094D01*
X-112947561Y16738094D02*
X-112995180Y16642856D01*
X-112995180Y16642856D02*
X-112995180Y16404761D01*
X-112995180Y16404761D02*
X-112947561Y16261904D01*
X-112995180Y15928570D02*
X-111995180Y15690475D01*
X-111995180Y15690475D02*
X-112709466Y15499999D01*
X-112709466Y15499999D02*
X-111995180Y15309523D01*
X-111995180Y15309523D02*
X-112995180Y15071428D01*
X-111995180Y14166666D02*
X-111995180Y14738094D01*
X-111995180Y14452380D02*
X-112995180Y14452380D01*
X-112995180Y14452380D02*
X-112852323Y14547618D01*
X-112852323Y14547618D02*
X-112757085Y14642856D01*
X-112757085Y14642856D02*
X-112709466Y14738094D01*
X111995180Y14214286D02*
X112995180Y14214286D01*
X112995180Y14214286D02*
X112995180Y14595238D01*
X112995180Y14595238D02*
X112947561Y14690476D01*
X112947561Y14690476D02*
X112899942Y14738095D01*
X112899942Y14738095D02*
X112804704Y14785714D01*
X112804704Y14785714D02*
X112661847Y14785714D01*
X112661847Y14785714D02*
X112566609Y14738095D01*
X112566609Y14738095D02*
X112518990Y14690476D01*
X112518990Y14690476D02*
X112471371Y14595238D01*
X112471371Y14595238D02*
X112471371Y14214286D01*
X112042800Y15166667D02*
X111995180Y15309524D01*
X111995180Y15309524D02*
X111995180Y15547619D01*
X111995180Y15547619D02*
X112042800Y15642857D01*
X112042800Y15642857D02*
X112090419Y15690476D01*
X112090419Y15690476D02*
X112185657Y15738095D01*
X112185657Y15738095D02*
X112280895Y15738095D01*
X112280895Y15738095D02*
X112376133Y15690476D01*
X112376133Y15690476D02*
X112423752Y15642857D01*
X112423752Y15642857D02*
X112471371Y15547619D01*
X112471371Y15547619D02*
X112518990Y15357143D01*
X112518990Y15357143D02*
X112566609Y15261905D01*
X112566609Y15261905D02*
X112614228Y15214286D01*
X112614228Y15214286D02*
X112709466Y15166667D01*
X112709466Y15166667D02*
X112804704Y15166667D01*
X112804704Y15166667D02*
X112899942Y15214286D01*
X112899942Y15214286D02*
X112947561Y15261905D01*
X112947561Y15261905D02*
X112995180Y15357143D01*
X112995180Y15357143D02*
X112995180Y15595238D01*
X112995180Y15595238D02*
X112947561Y15738095D01*
X112995180Y16071429D02*
X111995180Y16309524D01*
X111995180Y16309524D02*
X112709466Y16500000D01*
X112709466Y16500000D02*
X111995180Y16690476D01*
X111995180Y16690476D02*
X112995180Y16928572D01*
X112899942Y17261905D02*
X112947561Y17309524D01*
X112947561Y17309524D02*
X112995180Y17404762D01*
X112995180Y17404762D02*
X112995180Y17642857D01*
X112995180Y17642857D02*
X112947561Y17738095D01*
X112947561Y17738095D02*
X112899942Y17785714D01*
X112899942Y17785714D02*
X112804704Y17833333D01*
X112804704Y17833333D02*
X112709466Y17833333D01*
X112709466Y17833333D02*
X112566609Y17785714D01*
X112566609Y17785714D02*
X111995180Y17214286D01*
X111995180Y17214286D02*
X111995180Y17833333D01*
D13*
%TO.C,RD1*%
X64000000Y43350000D02*
X64000000Y47360000D01*
X66000000Y47360000D02*
X64000000Y47360000D01*
X66000000Y43350000D02*
X66000000Y47360000D01*
%TO.C,LD12*%
X-86000000Y-11350000D02*
X-86000000Y-15360000D01*
X-86000000Y-15360000D02*
X-84000000Y-15360000D01*
X-84000000Y-11350000D02*
X-84000000Y-15360000D01*
%TO.C,RCH16*%
X12771280Y-25966538D02*
X12384329Y-27029679D01*
X13673314Y-29793918D02*
X14736455Y-30180870D01*
X13677588Y-25543920D02*
X12771280Y-25966538D01*
X15642763Y-29758251D02*
X14736455Y-30180870D01*
X22899172Y-28746795D02*
X23805480Y-28324177D01*
X23509647Y-27689761D02*
X23805480Y-28324177D01*
X20885056Y-24555285D02*
G75*
G02*
X21948197Y-24942237I338095J-725046D01*
G01*
%TO.C,RD17*%
X43350000Y-15500000D02*
X47360000Y-15500000D01*
X43350000Y-17500000D02*
X47360000Y-17500000D01*
X47360000Y-17500000D02*
X47360000Y-15500000D01*
%TO.C,LD17*%
X-23650000Y-5500000D02*
X-19640000Y-5500000D01*
X-23650000Y-7500000D02*
X-19640000Y-7500000D01*
X-19640000Y-7500000D02*
X-19640000Y-5500000D01*
%TO.C,RCH6*%
X27496000Y14825000D02*
X27496000Y15525000D01*
X28496000Y15525000D02*
X27496000Y15525000D01*
X35500000Y13375000D02*
X36500000Y13375000D01*
X35500000Y8725000D02*
X36500000Y8725000D01*
X36500000Y8725000D02*
X37300000Y9525000D01*
X37300000Y12575000D02*
X36500000Y13375000D01*
X28550000Y10875000D02*
G75*
G02*
X27750000Y11675000I0J800000D01*
G01*
%TO.C,LCH9*%
X-60504000Y16825000D02*
X-60504000Y17525000D01*
X-59504000Y17525000D02*
X-60504000Y17525000D01*
X-52500000Y15375000D02*
X-51500000Y15375000D01*
X-52500000Y10725000D02*
X-51500000Y10725000D01*
X-51500000Y10725000D02*
X-50700000Y11525000D01*
X-50700000Y14575000D02*
X-51500000Y15375000D01*
X-59450000Y12875000D02*
G75*
G02*
X-60250000Y13675000I0J800000D01*
G01*
%TO.C,RD13*%
X81000000Y-11850000D02*
X81000000Y-15860000D01*
X81000000Y-15860000D02*
X83000000Y-15860000D01*
X83000000Y-11850000D02*
X83000000Y-15860000D01*
%TO.C,RD5*%
X76400000Y43350000D02*
X76400000Y47360000D01*
X78400000Y47360000D02*
X76400000Y47360000D01*
X78400000Y43350000D02*
X78400000Y47360000D01*
%TO.C,RD8*%
X68000000Y25350000D02*
X68000000Y29360000D01*
X70000000Y29360000D02*
X68000000Y29360000D01*
X70000000Y25350000D02*
X70000000Y29360000D01*
%TO.C,RD2*%
X67400000Y43350000D02*
X67400000Y47360000D01*
X69400000Y47360000D02*
X67400000Y47360000D01*
X69400000Y43350000D02*
X69400000Y47360000D01*
%TO.C,RCH10*%
X99496000Y8825000D02*
X99496000Y9525000D01*
X100496000Y9525000D02*
X99496000Y9525000D01*
X107500000Y7375000D02*
X108500000Y7375000D01*
X107500000Y2725000D02*
X108500000Y2725000D01*
X108500000Y2725000D02*
X109300000Y3525000D01*
X109300000Y6575000D02*
X108500000Y7375000D01*
X100550000Y4875000D02*
G75*
G02*
X99750000Y5675000I0J800000D01*
G01*
%TO.C,LD9*%
X-23650000Y15000000D02*
X-19640000Y15000000D01*
X-23650000Y13000000D02*
X-19640000Y13000000D01*
X-19640000Y13000000D02*
X-19640000Y15000000D01*
%TO.C,LD15*%
X-63000000Y3150000D02*
X-63000000Y-860000D01*
X-63000000Y-860000D02*
X-61000000Y-860000D01*
X-61000000Y3150000D02*
X-61000000Y-860000D01*
%TO.C,LD4*%
X-45000000Y44350000D02*
X-45000000Y48360000D01*
X-43000000Y48360000D02*
X-45000000Y48360000D01*
X-43000000Y44350000D02*
X-43000000Y48360000D01*
%TO.C,RD9*%
X71000000Y25350000D02*
X71000000Y29360000D01*
X73000000Y29360000D02*
X71000000Y29360000D01*
X73000000Y25350000D02*
X73000000Y29360000D01*
%TO.C,J1*%
X-95153553Y-5150000D02*
X-95153553Y-5650000D01*
X-95153553Y-5650000D02*
X-94800000Y-5400000D01*
X-94800000Y-5400000D02*
X-95153553Y-5150000D01*
X-94300000Y-4840000D02*
X-94110000Y-4840000D01*
X-94110000Y-3790000D02*
X-90760000Y-3790000D01*
X-94110000Y-4840000D02*
X-94110000Y-3790000D01*
X-94110000Y-7160000D02*
X-94110000Y-8210000D01*
X-94110000Y-8210000D02*
X-90760000Y-8210000D01*
X-90090000Y-5610000D02*
X-89590000Y-5210000D01*
X-90090000Y-6390000D02*
X-90090000Y-5610000D01*
X-89590000Y-5210000D02*
X-89590000Y-4860000D01*
X-89590000Y-6790000D02*
X-90090000Y-6390000D01*
X-89590000Y-7140000D02*
X-89590000Y-6790000D01*
%TO.C,RD12*%
X43500000Y-8350000D02*
X43500000Y-12360000D01*
X43500000Y-12360000D02*
X45500000Y-12360000D01*
X45500000Y-8350000D02*
X45500000Y-12360000D01*
%TO.C,LCH2*%
X-91300000Y38425000D02*
X-90500000Y37625000D01*
X-90500000Y42275000D02*
X-91300000Y41475000D01*
X-89500000Y42275000D02*
X-90500000Y42275000D01*
X-89500000Y37625000D02*
X-90500000Y37625000D01*
X-82496000Y35475000D02*
X-81496000Y35475000D01*
X-81496000Y36175000D02*
X-81496000Y35475000D01*
X-82550000Y40125000D02*
G75*
G02*
X-81750000Y39325000I0J-800000D01*
G01*
%TO.C,LCH7*%
X-96504000Y14825000D02*
X-96504000Y15525000D01*
X-95504000Y15525000D02*
X-96504000Y15525000D01*
X-88500000Y13375000D02*
X-87500000Y13375000D01*
X-88500000Y8725000D02*
X-87500000Y8725000D01*
X-87500000Y8725000D02*
X-86700000Y9525000D01*
X-86700000Y12575000D02*
X-87500000Y13375000D01*
X-95450000Y10875000D02*
G75*
G02*
X-96250000Y11675000I0J800000D01*
G01*
%TO.C,RD6*%
X62000000Y25350000D02*
X62000000Y29360000D01*
X64000000Y29360000D02*
X62000000Y29360000D01*
X64000000Y25350000D02*
X64000000Y29360000D01*
%TO.C,RCH14*%
X86700000Y4425000D02*
X87500000Y3625000D01*
X87500000Y8275000D02*
X86700000Y7475000D01*
X88500000Y8275000D02*
X87500000Y8275000D01*
X88500000Y3625000D02*
X87500000Y3625000D01*
X95504000Y1475000D02*
X96504000Y1475000D01*
X96504000Y2175000D02*
X96504000Y1475000D01*
X95450000Y6125000D02*
G75*
G02*
X96250000Y5325000I0J-800000D01*
G01*
%TO.C,RCH2*%
X45496000Y33825000D02*
X45496000Y34525000D01*
X46496000Y34525000D02*
X45496000Y34525000D01*
X53500000Y32375000D02*
X54500000Y32375000D01*
X53500000Y27725000D02*
X54500000Y27725000D01*
X54500000Y27725000D02*
X55300000Y28525000D01*
X55300000Y31575000D02*
X54500000Y32375000D01*
X46550000Y29875000D02*
G75*
G02*
X45750000Y30675000I0J800000D01*
G01*
%TO.C,LCH4*%
X-60504000Y33825000D02*
X-60504000Y34525000D01*
X-59504000Y34525000D02*
X-60504000Y34525000D01*
X-52500000Y32375000D02*
X-51500000Y32375000D01*
X-52500000Y27725000D02*
X-51500000Y27725000D01*
X-51500000Y27725000D02*
X-50700000Y28525000D01*
X-50700000Y31575000D02*
X-51500000Y32375000D01*
X-59450000Y29875000D02*
G75*
G02*
X-60250000Y30675000I0J800000D01*
G01*
%TO.C,LCH11*%
X-114504000Y-8175000D02*
X-114504000Y-7475000D01*
X-113504000Y-7475000D02*
X-114504000Y-7475000D01*
X-106500000Y-9625000D02*
X-105500000Y-9625000D01*
X-106500000Y-14275000D02*
X-105500000Y-14275000D01*
X-105500000Y-14275000D02*
X-104700000Y-13475000D01*
X-104700000Y-10425000D02*
X-105500000Y-9625000D01*
X-113450000Y-12125000D02*
G75*
G02*
X-114250000Y-11325000I0J800000D01*
G01*
%TO.C,RD7*%
X65000000Y25350000D02*
X65000000Y29360000D01*
X67000000Y29360000D02*
X65000000Y29360000D01*
X67000000Y25350000D02*
X67000000Y29360000D01*
%TO.C,RCH9*%
X81496000Y14825000D02*
X81496000Y15525000D01*
X82496000Y15525000D02*
X81496000Y15525000D01*
X89500000Y13375000D02*
X90500000Y13375000D01*
X89500000Y8725000D02*
X90500000Y8725000D01*
X90500000Y8725000D02*
X91300000Y9525000D01*
X91300000Y12575000D02*
X90500000Y13375000D01*
X82550000Y10875000D02*
G75*
G02*
X81750000Y11675000I0J800000D01*
G01*
%TO.C,LCH13*%
X-73300000Y9425000D02*
X-72500000Y8625000D01*
X-72500000Y13275000D02*
X-73300000Y12475000D01*
X-71500000Y13275000D02*
X-72500000Y13275000D01*
X-71500000Y8625000D02*
X-72500000Y8625000D01*
X-64496000Y6475000D02*
X-63496000Y6475000D01*
X-63496000Y7175000D02*
X-63496000Y6475000D01*
X-64550000Y11125000D02*
G75*
G02*
X-63750000Y10325000I0J-800000D01*
G01*
%TO.C,J3*%
X-99330000Y-3380000D02*
X-99330000Y-5979999D01*
X-99330000Y-8580000D02*
X-99330000Y-7250000D01*
X-98000000Y-8580000D02*
X-99330000Y-8580000D01*
X-96670000Y-3380000D02*
X-99330000Y-3380000D01*
X-96670000Y-3380000D02*
X-96670000Y-5979999D01*
X-96670000Y-5979999D02*
X-99330000Y-5979999D01*
%TO.C,LCH3*%
X-73300000Y43425000D02*
X-72500000Y42625000D01*
X-72500000Y47275000D02*
X-73300000Y46475000D01*
X-71500000Y47275000D02*
X-72500000Y47275000D01*
X-71500000Y42625000D02*
X-72500000Y42625000D01*
X-64496000Y40475000D02*
X-63496000Y40475000D01*
X-63496000Y41175000D02*
X-63496000Y40475000D01*
X-64550000Y45125000D02*
G75*
G02*
X-63750000Y44325000I0J-800000D01*
G01*
%TO.C,RCH12*%
X50700000Y6425000D02*
X51500000Y5625000D01*
X51500000Y10275000D02*
X50700000Y9475000D01*
X52500000Y10275000D02*
X51500000Y10275000D01*
X52500000Y5625000D02*
X51500000Y5625000D01*
X59504000Y3475000D02*
X60504000Y3475000D01*
X60504000Y4175000D02*
X60504000Y3475000D01*
X59450000Y8125000D02*
G75*
G02*
X60250000Y7325000I0J-800000D01*
G01*
%TO.C,J4*%
X96670000Y-4730000D02*
X99330000Y-4730000D01*
X96670000Y-7330000D02*
X96670000Y-4730000D01*
X96670000Y-7330000D02*
X99330000Y-7330000D01*
X98000000Y-2130000D02*
X99330000Y-2130000D01*
X99330000Y-2130000D02*
X99330000Y-3460000D01*
X99330000Y-7330000D02*
X99330000Y-4730000D01*
%TO.C,LCH8*%
X-78504000Y19825000D02*
X-78504000Y20525000D01*
X-77504000Y20525000D02*
X-78504000Y20525000D01*
X-70500000Y18375000D02*
X-69500000Y18375000D01*
X-70500000Y13725000D02*
X-69500000Y13725000D01*
X-69500000Y13725000D02*
X-68700000Y14525000D01*
X-68700000Y17575000D02*
X-69500000Y18375000D01*
X-77450000Y15875000D02*
G75*
G02*
X-78250000Y16675000I0J800000D01*
G01*
%TO.C,LD13*%
X-69000000Y3150000D02*
X-69000000Y-860000D01*
X-69000000Y-860000D02*
X-67000000Y-860000D01*
X-67000000Y3150000D02*
X-67000000Y-860000D01*
%TO.C,RCH7*%
X45496000Y16825000D02*
X45496000Y17525000D01*
X46496000Y17525000D02*
X45496000Y17525000D01*
X53500000Y15375000D02*
X54500000Y15375000D01*
X53500000Y10725000D02*
X54500000Y10725000D01*
X54500000Y10725000D02*
X55300000Y11525000D01*
X55300000Y14575000D02*
X54500000Y15375000D01*
X46550000Y12875000D02*
G75*
G02*
X45750000Y13675000I0J800000D01*
G01*
%TO.C,LCH15*%
X-42504000Y-2175000D02*
X-42504000Y-1475000D01*
X-41504000Y-1475000D02*
X-42504000Y-1475000D01*
X-34500000Y-3625000D02*
X-33500000Y-3625000D01*
X-34500000Y-8275000D02*
X-33500000Y-8275000D01*
X-33500000Y-8275000D02*
X-32700000Y-7475000D01*
X-32700000Y-4425000D02*
X-33500000Y-3625000D01*
X-41450000Y-6125000D02*
G75*
G02*
X-42250000Y-5325000I0J800000D01*
G01*
%TO.C,LCH1*%
X-114504000Y25825000D02*
X-114504000Y26525000D01*
X-113504000Y26525000D02*
X-114504000Y26525000D01*
X-106500000Y24375000D02*
X-105500000Y24375000D01*
X-106500000Y19725000D02*
X-105500000Y19725000D01*
X-105500000Y19725000D02*
X-104700000Y20525000D01*
X-104700000Y23575000D02*
X-105500000Y24375000D01*
X-113450000Y21875000D02*
G75*
G02*
X-114250000Y22675000I0J800000D01*
G01*
%TO.C,RCH13*%
X68700000Y9425000D02*
X69500000Y8625000D01*
X69500000Y13275000D02*
X68700000Y12475000D01*
X70500000Y13275000D02*
X69500000Y13275000D01*
X70500000Y8625000D02*
X69500000Y8625000D01*
X77504000Y6475000D02*
X78504000Y6475000D01*
X78504000Y7175000D02*
X78504000Y6475000D01*
X77450000Y11125000D02*
G75*
G02*
X78250000Y10325000I0J-800000D01*
G01*
%TO.C,LD7*%
X-23650000Y21000000D02*
X-19640000Y21000000D01*
X-23650000Y19000000D02*
X-19640000Y19000000D01*
X-19640000Y19000000D02*
X-19640000Y21000000D01*
%TO.C,LCH6*%
X-114504000Y8825000D02*
X-114504000Y9525000D01*
X-113504000Y9525000D02*
X-114504000Y9525000D01*
X-106500000Y7375000D02*
X-105500000Y7375000D01*
X-106500000Y2725000D02*
X-105500000Y2725000D01*
X-105500000Y2725000D02*
X-104700000Y3525000D01*
X-104700000Y6575000D02*
X-105500000Y7375000D01*
X-113450000Y4875000D02*
G75*
G02*
X-114250000Y5675000I0J800000D01*
G01*
%TO.C,RD15*%
X87000000Y-11850000D02*
X87000000Y-15860000D01*
X87000000Y-15860000D02*
X89000000Y-15860000D01*
X89000000Y-11850000D02*
X89000000Y-15860000D01*
%TO.C,RCH5*%
X99496000Y25825000D02*
X99496000Y26525000D01*
X100496000Y26525000D02*
X99496000Y26525000D01*
X107500000Y24375000D02*
X108500000Y24375000D01*
X107500000Y19725000D02*
X108500000Y19725000D01*
X108500000Y19725000D02*
X109300000Y20525000D01*
X109300000Y23575000D02*
X108500000Y24375000D01*
X100550000Y21875000D02*
G75*
G02*
X99750000Y22675000I0J800000D01*
G01*
%TO.C,J2*%
X89590000Y-4860000D02*
X89590000Y-5210000D01*
X89590000Y-5210000D02*
X90090000Y-5610000D01*
X89590000Y-6790000D02*
X89590000Y-7140000D01*
X90090000Y-5610000D02*
X90090000Y-6390000D01*
X90090000Y-6390000D02*
X89590000Y-6790000D01*
X94110000Y-3790000D02*
X90760000Y-3790000D01*
X94110000Y-4840000D02*
X94110000Y-3790000D01*
X94110000Y-7160000D02*
X94110000Y-8210000D01*
X94110000Y-8210000D02*
X90760000Y-8210000D01*
X94300000Y-7160000D02*
X94110000Y-7160000D01*
X94800000Y-6600000D02*
X95153553Y-6850000D01*
X95153553Y-6350000D02*
X94800000Y-6600000D01*
X95153553Y-6850000D02*
X95153553Y-6350000D01*
%TO.C,LCH12*%
X-91300000Y4425000D02*
X-90500000Y3625000D01*
X-90500000Y8275000D02*
X-91300000Y7475000D01*
X-89500000Y8275000D02*
X-90500000Y8275000D01*
X-89500000Y3625000D02*
X-90500000Y3625000D01*
X-82496000Y1475000D02*
X-81496000Y1475000D01*
X-81496000Y2175000D02*
X-81496000Y1475000D01*
X-82550000Y6125000D02*
G75*
G02*
X-81750000Y5325000I0J-800000D01*
G01*
%TO.C,RCH8*%
X63496000Y19825000D02*
X63496000Y20525000D01*
X64496000Y20525000D02*
X63496000Y20525000D01*
X71500000Y18375000D02*
X72500000Y18375000D01*
X71500000Y13725000D02*
X72500000Y13725000D01*
X72500000Y13725000D02*
X73300000Y14525000D01*
X73300000Y17575000D02*
X72500000Y18375000D01*
X64550000Y15875000D02*
G75*
G02*
X63750000Y16675000I0J800000D01*
G01*
%TO.C,LD5*%
X-42000000Y44350000D02*
X-42000000Y48360000D01*
X-40000000Y48360000D02*
X-42000000Y48360000D01*
X-40000000Y44350000D02*
X-40000000Y48360000D01*
%TO.C,LCH10*%
X-42504000Y14825000D02*
X-42504000Y15525000D01*
X-41504000Y15525000D02*
X-42504000Y15525000D01*
X-34500000Y13375000D02*
X-33500000Y13375000D01*
X-34500000Y8725000D02*
X-33500000Y8725000D01*
X-33500000Y8725000D02*
X-32700000Y9525000D01*
X-32700000Y12575000D02*
X-33500000Y13375000D01*
X-41450000Y10875000D02*
G75*
G02*
X-42250000Y11675000I0J800000D01*
G01*
%TO.C,RD16*%
X43350000Y-18500000D02*
X47360000Y-18500000D01*
X43350000Y-20500000D02*
X47360000Y-20500000D01*
X47360000Y-20500000D02*
X47360000Y-18500000D01*
%TO.C,LCH14*%
X-55300000Y6425000D02*
X-54500000Y5625000D01*
X-54500000Y10275000D02*
X-55300000Y9475000D01*
X-53500000Y10275000D02*
X-54500000Y10275000D01*
X-53500000Y5625000D02*
X-54500000Y5625000D01*
X-46496000Y3475000D02*
X-45496000Y3475000D01*
X-45496000Y4175000D02*
X-45496000Y3475000D01*
X-46550000Y8125000D02*
G75*
G02*
X-45750000Y7325000I0J-800000D01*
G01*
%TO.C,LD1*%
X-48000000Y44350000D02*
X-48000000Y48360000D01*
X-46000000Y48360000D02*
X-48000000Y48360000D01*
X-46000000Y44350000D02*
X-46000000Y48360000D01*
%TO.C,RCH11*%
X27496000Y-2175000D02*
X27496000Y-1475000D01*
X28496000Y-1475000D02*
X27496000Y-1475000D01*
X35500000Y-3625000D02*
X36500000Y-3625000D01*
X35500000Y-8275000D02*
X36500000Y-8275000D01*
X36500000Y-8275000D02*
X37300000Y-7475000D01*
X37300000Y-4425000D02*
X36500000Y-3625000D01*
X28550000Y-6125000D02*
G75*
G02*
X27750000Y-5325000I0J800000D01*
G01*
%TO.C,LD2*%
X-51000000Y44350000D02*
X-51000000Y48360000D01*
X-49000000Y48360000D02*
X-51000000Y48360000D01*
X-49000000Y44350000D02*
X-49000000Y48360000D01*
%TO.C,LD11*%
X-89000000Y-11350000D02*
X-89000000Y-15360000D01*
X-89000000Y-15360000D02*
X-87000000Y-15360000D01*
X-87000000Y-11350000D02*
X-87000000Y-15360000D01*
%TO.C,RCH4*%
X81496000Y31825000D02*
X81496000Y32525000D01*
X82496000Y32525000D02*
X81496000Y32525000D01*
X89500000Y30375000D02*
X90500000Y30375000D01*
X89500000Y25725000D02*
X90500000Y25725000D01*
X90500000Y25725000D02*
X91300000Y26525000D01*
X91300000Y29575000D02*
X90500000Y30375000D01*
X82550000Y27875000D02*
G75*
G02*
X81750000Y28675000I0J800000D01*
G01*
%TO.C,LD14*%
X-66000000Y3150000D02*
X-66000000Y-860000D01*
X-66000000Y-860000D02*
X-64000000Y-860000D01*
X-64000000Y3150000D02*
X-64000000Y-860000D01*
%TO.C,LD16*%
X-23650000Y-2000000D02*
X-19640000Y-2000000D01*
X-23650000Y-4000000D02*
X-19640000Y-4000000D01*
X-19640000Y-4000000D02*
X-19640000Y-2000000D01*
%TO.C,LCH17*%
X-17842330Y-27849874D02*
X-17455378Y-28913015D01*
X-16549071Y-29335633D02*
X-17455378Y-28913015D01*
X-15490204Y-24698684D02*
X-16553344Y-25085635D01*
X-14583896Y-25121302D02*
X-15490204Y-24698684D01*
X-11109920Y-34244213D02*
X-10203612Y-34666831D01*
X-9907780Y-34032416D02*
X-10203612Y-34666831D01*
X-9193686Y-30007061D02*
G75*
G02*
X-8806734Y-31070201I-338095J-725046D01*
G01*
%TO.C,LD8*%
X-23650000Y18000000D02*
X-19640000Y18000000D01*
X-23650000Y16000000D02*
X-19640000Y16000000D01*
X-19640000Y16000000D02*
X-19640000Y18000000D01*
%TO.C,RCH15*%
X99496000Y-8175000D02*
X99496000Y-7475000D01*
X100496000Y-7475000D02*
X99496000Y-7475000D01*
X107500000Y-9625000D02*
X108500000Y-9625000D01*
X107500000Y-14275000D02*
X108500000Y-14275000D01*
X108500000Y-14275000D02*
X109300000Y-13475000D01*
X109300000Y-10425000D02*
X108500000Y-9625000D01*
X100550000Y-12125000D02*
G75*
G02*
X99750000Y-11325000I0J800000D01*
G01*
%TO.C,RD11*%
X40500000Y-8350000D02*
X40500000Y-12360000D01*
X40500000Y-12360000D02*
X42500000Y-12360000D01*
X42500000Y-8350000D02*
X42500000Y-12360000D01*
%TO.C,LD3*%
X-54000000Y44350000D02*
X-54000000Y48360000D01*
X-52000000Y48360000D02*
X-54000000Y48360000D01*
X-52000000Y44350000D02*
X-52000000Y48360000D01*
%TO.C,RCH17*%
X27394347Y-14734178D02*
X27007396Y-15797319D01*
X28296381Y-18561558D02*
X29359522Y-18948510D01*
X28300655Y-14311560D02*
X27394347Y-14734178D01*
X30265830Y-18525891D02*
X29359522Y-18948510D01*
X37522239Y-17514435D02*
X38428547Y-17091817D01*
X38132714Y-16457401D02*
X38428547Y-17091817D01*
X35508123Y-13322925D02*
G75*
G02*
X36571264Y-13709877I338095J-725046D01*
G01*
%TO.C,PSW1*%
X-118000000Y12950000D02*
X-118000000Y19050000D01*
X-117099999Y12450000D02*
X-115800001Y12450000D01*
X-115800001Y19550000D02*
X-117099999Y19550000D01*
X-114900000Y19050000D02*
X-114900000Y18700000D01*
X-114900000Y13300000D02*
X-114900000Y12950000D01*
%TO.C,PSW2*%
X114900000Y18700000D02*
X114900000Y19050000D01*
X114900000Y12950000D02*
X114900000Y13300000D01*
X115800001Y12450000D02*
X117099999Y12450000D01*
X117099999Y19550000D02*
X115800001Y19550000D01*
X118000000Y19050000D02*
X118000000Y12950000D01*
%TO.C,LCH5*%
X-42504000Y31825000D02*
X-42504000Y32525000D01*
X-41504000Y32525000D02*
X-42504000Y32525000D01*
X-34500000Y30375000D02*
X-33500000Y30375000D01*
X-34500000Y25725000D02*
X-33500000Y25725000D01*
X-33500000Y25725000D02*
X-32700000Y26525000D01*
X-32700000Y29575000D02*
X-33500000Y30375000D01*
X-41450000Y27875000D02*
G75*
G02*
X-42250000Y28675000I0J800000D01*
G01*
%TO.C,LD6*%
X-23650000Y24000000D02*
X-19640000Y24000000D01*
X-23650000Y22000000D02*
X-19640000Y22000000D01*
X-19640000Y22000000D02*
X-19640000Y24000000D01*
%TO.C,LCH16*%
X-39971103Y-20399840D02*
X-39675271Y-19765425D01*
X-38768963Y-20188043D02*
X-39675271Y-19765425D01*
X-35294987Y-29310954D02*
X-34388679Y-29733572D01*
X-34388679Y-29733572D02*
X-33325539Y-29346621D01*
X-33329812Y-25096623D02*
X-32423505Y-25519241D01*
X-32036553Y-26582382D02*
X-32423505Y-25519241D01*
X-40685197Y-24425195D02*
G75*
G02*
X-41072149Y-23362055I338095J725046D01*
G01*
%TO.C,RCH3*%
X63496000Y36825000D02*
X63496000Y37525000D01*
X64496000Y37525000D02*
X63496000Y37525000D01*
X71500000Y35375000D02*
X72500000Y35375000D01*
X71500000Y30725000D02*
X72500000Y30725000D01*
X72500000Y30725000D02*
X73300000Y31525000D01*
X73300000Y34575000D02*
X72500000Y35375000D01*
X64550000Y32875000D02*
G75*
G02*
X63750000Y33675000I0J800000D01*
G01*
%TO.C,RD3*%
X70400000Y43350000D02*
X70400000Y47360000D01*
X72400000Y47360000D02*
X70400000Y47360000D01*
X72400000Y43350000D02*
X72400000Y47360000D01*
%TO.C,RD10*%
X74000000Y25350000D02*
X74000000Y29360000D01*
X76000000Y29360000D02*
X74000000Y29360000D01*
X76000000Y25350000D02*
X76000000Y29360000D01*
%TO.C,RD14*%
X84000000Y-11850000D02*
X84000000Y-15860000D01*
X84000000Y-15860000D02*
X86000000Y-15860000D01*
X86000000Y-11850000D02*
X86000000Y-15860000D01*
%TO.C,LD10*%
X-23650000Y12000000D02*
X-19640000Y12000000D01*
X-23650000Y10000000D02*
X-19640000Y10000000D01*
X-19640000Y10000000D02*
X-19640000Y12000000D01*
%TO.C,RD4*%
X73400000Y43350000D02*
X73400000Y47360000D01*
X75400000Y47360000D02*
X73400000Y47360000D01*
X75400000Y43350000D02*
X75400000Y47360000D01*
%TO.C,RCH1*%
X27496000Y31825000D02*
X27496000Y32525000D01*
X28496000Y32525000D02*
X27496000Y32525000D01*
X35500000Y30375000D02*
X36500000Y30375000D01*
X35500000Y25725000D02*
X36500000Y25725000D01*
X36500000Y25725000D02*
X37300000Y26525000D01*
X37300000Y29575000D02*
X36500000Y30375000D01*
X28550000Y27875000D02*
G75*
G02*
X27750000Y28675000I0J800000D01*
G01*
%TD*%
%LPC*%
D14*
%TO.C,REF\u002A\u002A*%
X17873023Y-8150000D03*
X17873023Y-8890000D03*
X17873023Y-9630000D03*
X17873023Y-10370000D03*
X17873023Y-11110000D03*
X17873023Y-11850000D03*
%TD*%
%TO.C,REF\u002A\u002A*%
X17873023Y41850000D03*
X17873023Y41110000D03*
X17873023Y40370000D03*
X17873023Y39630000D03*
X17873023Y38890000D03*
X17873023Y38150000D03*
%TD*%
%TO.C,REF\u002A\u002A*%
X-17873023Y-11850000D03*
X-17873023Y-11110000D03*
X-17873023Y-10370000D03*
X-17873023Y-9630000D03*
X-17873023Y-8890000D03*
X-17873023Y-8150000D03*
%TD*%
%TO.C,REF\u002A\u002A*%
X-17873023Y38150000D03*
X-17873023Y38890000D03*
X-17873023Y39630000D03*
X-17873023Y40370000D03*
X-17873023Y41110000D03*
X-17873023Y41850000D03*
%TD*%
D15*
%TO.C,RD1*%
X65000000Y46650000D03*
X65000000Y43350000D03*
%TD*%
D16*
%TO.C,LD12*%
X-85000000Y-14650000D03*
X-85000000Y-11350000D03*
%TD*%
D17*
%TO.C,RCH16*%
X12643215Y-35156708D03*
D18*
X17627908Y-32832308D03*
D17*
X22612601Y-30507908D03*
D19*
X20574628Y-27320562D03*
D20*
X23515597Y-25949166D03*
X12172361Y-28811173D03*
D19*
X15113329Y-27439777D03*
%TD*%
D21*
%TO.C,RD17*%
X46650000Y-16500000D03*
X43350000Y-16500000D03*
%TD*%
%TO.C,LD17*%
X-20350000Y-6500000D03*
X-23650000Y-6500000D03*
%TD*%
D22*
%TO.C,REF\u002A\u002A*%
X-21923023Y-12750000D03*
%TD*%
D17*
%TO.C,RCH6*%
X40500000Y17000000D03*
D18*
X35000000Y17000000D03*
D17*
X29500000Y17000000D03*
D19*
X30000000Y13250000D03*
D23*
X26755000Y13250000D03*
X38245000Y11050000D03*
D19*
X35000000Y11050000D03*
%TD*%
D17*
%TO.C,LCH9*%
X-47500000Y19000000D03*
D18*
X-53000000Y19000000D03*
D17*
X-58500000Y19000000D03*
D19*
X-58000000Y15250000D03*
D23*
X-61245000Y15250000D03*
X-49755000Y13050000D03*
D19*
X-53000000Y13050000D03*
%TD*%
D16*
%TO.C,RD13*%
X82000000Y-15150000D03*
X82000000Y-11850000D03*
%TD*%
D15*
%TO.C,RD5*%
X77400000Y46650000D03*
X77400000Y43350000D03*
%TD*%
%TO.C,RD8*%
X69000000Y28650000D03*
X69000000Y25350000D03*
%TD*%
%TO.C,RD2*%
X68400000Y46650000D03*
X68400000Y43350000D03*
%TD*%
D17*
%TO.C,RCH10*%
X112500000Y11000000D03*
D18*
X107000000Y11000000D03*
D17*
X101500000Y11000000D03*
D19*
X102000000Y7250000D03*
D23*
X98755000Y7250000D03*
X110245000Y5050000D03*
D19*
X107000000Y5050000D03*
%TD*%
D21*
%TO.C,LD9*%
X-20350000Y14000000D03*
X-23650000Y14000000D03*
%TD*%
D16*
%TO.C,LD15*%
X-62000000Y-150000D03*
X-62000000Y3150000D03*
%TD*%
D15*
%TO.C,LD4*%
X-44000000Y47650000D03*
X-44000000Y44350000D03*
%TD*%
%TO.C,RD9*%
X72000000Y28650000D03*
X72000000Y25350000D03*
%TD*%
D24*
%TO.C,J1*%
X-93875000Y-5400000D03*
X-93875000Y-6600000D03*
D25*
X-90100000Y-4250000D03*
X-90100000Y-7750000D03*
%TD*%
D26*
%TO.C,LU1*%
X-115120000Y48095000D03*
X-112580000Y48095000D03*
X-110040000Y48095000D03*
X-107500000Y48095000D03*
X-104960000Y48095000D03*
X-102420000Y48095000D03*
X-99880000Y48095000D03*
X-115120000Y31905000D03*
X-112580000Y31905000D03*
X-110040000Y31905000D03*
X-107500000Y31905000D03*
X-104960000Y31905000D03*
X-102420000Y31905000D03*
X-99880000Y31905000D03*
D27*
X-109722000Y44445000D03*
X-107817000Y44445000D03*
X-116072000Y41270000D03*
X-116072000Y38730000D03*
X-113532000Y41270000D03*
X-113532000Y38730000D03*
%TD*%
D16*
%TO.C,RD12*%
X44500000Y-11650000D03*
X44500000Y-8350000D03*
%TD*%
D17*
%TO.C,LCH2*%
X-94500000Y34000000D03*
D18*
X-89000000Y34000000D03*
D17*
X-83500000Y34000000D03*
D19*
X-84000000Y37750000D03*
D28*
X-80755000Y37750000D03*
X-92245000Y39950000D03*
D19*
X-89000000Y39950000D03*
%TD*%
D17*
%TO.C,LCH7*%
X-83500000Y17000000D03*
D18*
X-89000000Y17000000D03*
D17*
X-94500000Y17000000D03*
D19*
X-94000000Y13250000D03*
D23*
X-97245000Y13250000D03*
X-85755000Y11050000D03*
D19*
X-89000000Y11050000D03*
%TD*%
D15*
%TO.C,RD6*%
X63000000Y28650000D03*
X63000000Y25350000D03*
%TD*%
D17*
%TO.C,RCH14*%
X83500000Y0D03*
D18*
X89000000Y0D03*
D17*
X94500000Y0D03*
D19*
X94000000Y3750000D03*
D28*
X97245000Y3750000D03*
X85755000Y5950000D03*
D19*
X89000000Y5950000D03*
%TD*%
D17*
%TO.C,RCH2*%
X58500000Y36000000D03*
D18*
X53000000Y36000000D03*
D17*
X47500000Y36000000D03*
D19*
X48000000Y32250000D03*
D23*
X44755000Y32250000D03*
X56245000Y30050000D03*
D19*
X53000000Y30050000D03*
%TD*%
D17*
%TO.C,LCH4*%
X-47500000Y36000000D03*
D18*
X-53000000Y36000000D03*
D17*
X-58500000Y36000000D03*
D19*
X-58000000Y32250000D03*
D23*
X-61245000Y32250000D03*
X-49755000Y30050000D03*
D19*
X-53000000Y30050000D03*
%TD*%
D17*
%TO.C,LCH11*%
X-101500000Y-6000000D03*
D18*
X-107000000Y-6000000D03*
D17*
X-112500000Y-6000000D03*
D19*
X-112000000Y-9750000D03*
D23*
X-115245000Y-9750000D03*
X-103755000Y-11950000D03*
D19*
X-107000000Y-11950000D03*
%TD*%
D15*
%TO.C,RD7*%
X66000000Y28650000D03*
X66000000Y25350000D03*
%TD*%
D17*
%TO.C,RCH9*%
X94500000Y17000000D03*
D18*
X89000000Y17000000D03*
D17*
X83500000Y17000000D03*
D19*
X84000000Y13250000D03*
D23*
X80755000Y13250000D03*
X92245000Y11050000D03*
D19*
X89000000Y11050000D03*
%TD*%
D17*
%TO.C,LCH13*%
X-76500000Y5000000D03*
D18*
X-71000000Y5000000D03*
D17*
X-65500000Y5000000D03*
D19*
X-66000000Y8750000D03*
D28*
X-62755000Y8750000D03*
X-74245000Y10950000D03*
D19*
X-71000000Y10950000D03*
%TD*%
D29*
%TO.C,J3*%
X-98000000Y-7250000D03*
D30*
X-98000000Y-4710000D03*
%TD*%
D17*
%TO.C,LCH3*%
X-76500000Y39000000D03*
D18*
X-71000000Y39000000D03*
D17*
X-65500000Y39000000D03*
D19*
X-66000000Y42750000D03*
D28*
X-62755000Y42750000D03*
X-74245000Y44950000D03*
D19*
X-71000000Y44950000D03*
%TD*%
D17*
%TO.C,RCH12*%
X47500000Y2000000D03*
D18*
X53000000Y2000000D03*
D17*
X58500000Y2000000D03*
D19*
X58000000Y5750000D03*
D28*
X61245000Y5750000D03*
X49755000Y7950000D03*
D19*
X53000000Y7950000D03*
%TD*%
D22*
%TO.C,REF\u002A\u002A*%
X21923023Y45750000D03*
%TD*%
D29*
%TO.C,J4*%
X98000000Y-3460000D03*
D30*
X98000000Y-6000000D03*
%TD*%
D17*
%TO.C,LCH8*%
X-65500000Y22000000D03*
D18*
X-71000000Y22000000D03*
D17*
X-76500000Y22000000D03*
D19*
X-76000000Y18250000D03*
D23*
X-79245000Y18250000D03*
X-67755000Y16050000D03*
D19*
X-71000000Y16050000D03*
%TD*%
D16*
%TO.C,LD13*%
X-68000000Y-150000D03*
X-68000000Y3150000D03*
%TD*%
D22*
%TO.C,REF\u002A\u002A*%
X93250000Y-12750000D03*
%TD*%
%TO.C,REF\u002A\u002A*%
X-93250000Y-12750000D03*
%TD*%
%TO.C,REF\u002A\u002A*%
X93250000Y45750000D03*
%TD*%
D17*
%TO.C,RCH7*%
X58500000Y19000000D03*
D18*
X53000000Y19000000D03*
D17*
X47500000Y19000000D03*
D19*
X48000000Y15250000D03*
D23*
X44755000Y15250000D03*
X56245000Y13050000D03*
D19*
X53000000Y13050000D03*
%TD*%
D17*
%TO.C,LCH15*%
X-29500000Y0D03*
D18*
X-35000000Y0D03*
D17*
X-40500000Y0D03*
D19*
X-40000000Y-3750000D03*
D23*
X-43245000Y-3750000D03*
X-31755000Y-5950000D03*
D19*
X-35000000Y-5950000D03*
%TD*%
D17*
%TO.C,LCH1*%
X-101500000Y28000000D03*
D18*
X-107000000Y28000000D03*
D17*
X-112500000Y28000000D03*
D19*
X-112000000Y24250000D03*
D23*
X-115245000Y24250000D03*
X-103755000Y22050000D03*
D19*
X-107000000Y22050000D03*
%TD*%
D17*
%TO.C,RCH13*%
X65500000Y5000000D03*
D18*
X71000000Y5000000D03*
D17*
X76500000Y5000000D03*
D19*
X76000000Y8750000D03*
D28*
X79245000Y8750000D03*
X67755000Y10950000D03*
D19*
X71000000Y10950000D03*
%TD*%
D21*
%TO.C,LD7*%
X-20350000Y20000000D03*
X-23650000Y20000000D03*
%TD*%
D17*
%TO.C,LCH6*%
X-101500000Y11000000D03*
D18*
X-107000000Y11000000D03*
D17*
X-112500000Y11000000D03*
D19*
X-112000000Y7250000D03*
D23*
X-115245000Y7250000D03*
X-103755000Y5050000D03*
D19*
X-107000000Y5050000D03*
%TD*%
D16*
%TO.C,RD15*%
X88000000Y-15150000D03*
X88000000Y-11850000D03*
%TD*%
D17*
%TO.C,RCH5*%
X112500000Y28000000D03*
D18*
X107000000Y28000000D03*
D17*
X101500000Y28000000D03*
D19*
X102000000Y24250000D03*
D23*
X98755000Y24250000D03*
X110245000Y22050000D03*
D19*
X107000000Y22050000D03*
%TD*%
D31*
%TO.C,J2*%
X93875000Y-6600000D03*
X93875000Y-5400000D03*
D32*
X90100000Y-7750000D03*
X90100000Y-4250000D03*
%TD*%
D17*
%TO.C,LCH12*%
X-94500000Y0D03*
D18*
X-89000000Y0D03*
D17*
X-83500000Y0D03*
D19*
X-84000000Y3750000D03*
D28*
X-80755000Y3750000D03*
X-92245000Y5950000D03*
D19*
X-89000000Y5950000D03*
%TD*%
D17*
%TO.C,RCH8*%
X76500000Y22000000D03*
D18*
X71000000Y22000000D03*
D17*
X65500000Y22000000D03*
D19*
X66000000Y18250000D03*
D23*
X62755000Y18250000D03*
X74245000Y16050000D03*
D19*
X71000000Y16050000D03*
%TD*%
D26*
%TO.C,RU1*%
X115120000Y31905000D03*
X112580000Y31905000D03*
X110040000Y31905000D03*
X107500000Y31905000D03*
X104960000Y31905000D03*
X102420000Y31905000D03*
X99880000Y31905000D03*
X115120000Y48095000D03*
X112580000Y48095000D03*
X110040000Y48095000D03*
X107500000Y48095000D03*
X104960000Y48095000D03*
X102420000Y48095000D03*
X99880000Y48095000D03*
D27*
X109722000Y35555000D03*
X107817000Y35555000D03*
X116072000Y38730000D03*
X116072000Y41270000D03*
X113532000Y38730000D03*
X113532000Y41270000D03*
%TD*%
D15*
%TO.C,LD5*%
X-41000000Y47650000D03*
X-41000000Y44350000D03*
%TD*%
D22*
%TO.C,REF\u002A\u002A*%
X13909849Y-42013868D03*
%TD*%
D17*
%TO.C,LCH10*%
X-29500000Y17000000D03*
D18*
X-35000000Y17000000D03*
D17*
X-40500000Y17000000D03*
D19*
X-40000000Y13250000D03*
D23*
X-43245000Y13250000D03*
X-31755000Y11050000D03*
D19*
X-35000000Y11050000D03*
%TD*%
D21*
%TO.C,RD16*%
X46650000Y-19500000D03*
X43350000Y-19500000D03*
%TD*%
D17*
%TO.C,LCH14*%
X-58500000Y2000000D03*
D18*
X-53000000Y2000000D03*
D17*
X-47500000Y2000000D03*
D19*
X-48000000Y5750000D03*
D28*
X-44755000Y5750000D03*
X-56245000Y7950000D03*
D19*
X-53000000Y7950000D03*
%TD*%
D15*
%TO.C,LD1*%
X-47000000Y47650000D03*
X-47000000Y44350000D03*
%TD*%
D17*
%TO.C,RCH11*%
X40500000Y0D03*
D18*
X35000000Y0D03*
D17*
X29500000Y0D03*
D19*
X30000000Y-3750000D03*
D23*
X26755000Y-3750000D03*
X38245000Y-5950000D03*
D19*
X35000000Y-5950000D03*
%TD*%
D15*
%TO.C,LD2*%
X-50000000Y47650000D03*
X-50000000Y44350000D03*
%TD*%
D16*
%TO.C,LD11*%
X-88000000Y-14650000D03*
X-88000000Y-11350000D03*
%TD*%
D17*
%TO.C,RCH4*%
X94500000Y34000000D03*
D18*
X89000000Y34000000D03*
D17*
X83500000Y34000000D03*
D19*
X84000000Y30250000D03*
D23*
X80755000Y30250000D03*
X92245000Y28050000D03*
D19*
X89000000Y28050000D03*
%TD*%
D16*
%TO.C,LD14*%
X-65000000Y-150000D03*
X-65000000Y3150000D03*
%TD*%
D21*
%TO.C,LD16*%
X-20350000Y-3000000D03*
X-23650000Y-3000000D03*
%TD*%
D17*
%TO.C,LCH17*%
X-22612601Y-30507908D03*
D18*
X-17627908Y-32832308D03*
D17*
X-12643215Y-35156708D03*
D19*
X-11511551Y-31546745D03*
D33*
X-8570582Y-32918141D03*
X-18054298Y-26068380D03*
D19*
X-15113329Y-27439777D03*
%TD*%
D21*
%TO.C,LD8*%
X-20350000Y17000000D03*
X-23650000Y17000000D03*
%TD*%
D17*
%TO.C,RCH15*%
X112500000Y-6000000D03*
D18*
X107000000Y-6000000D03*
D17*
X101500000Y-6000000D03*
D19*
X102000000Y-9750000D03*
D23*
X98755000Y-9750000D03*
X110245000Y-11950000D03*
D19*
X107000000Y-11950000D03*
%TD*%
D16*
%TO.C,RD11*%
X41500000Y-11650000D03*
X41500000Y-8350000D03*
%TD*%
D15*
%TO.C,LD3*%
X-53000000Y47650000D03*
X-53000000Y44350000D03*
%TD*%
D17*
%TO.C,RCH17*%
X27266282Y-23924348D03*
D18*
X32250975Y-21599948D03*
D17*
X37235668Y-19275548D03*
D19*
X35197695Y-16088202D03*
D20*
X38138664Y-14716806D03*
X26795428Y-17578813D03*
D19*
X29736396Y-16207417D03*
%TD*%
D34*
%TO.C,PSW1*%
X-116450000Y17500000D03*
X-116450000Y14500000D03*
D35*
X-114450000Y13750000D03*
X-114450000Y16750001D03*
X-114450000Y18250000D03*
D36*
X-115300000Y19700000D03*
X-117600000Y19700000D03*
X-115300000Y12300000D03*
X-117600000Y12300000D03*
%TD*%
D34*
%TO.C,PSW2*%
X116450000Y14500000D03*
X116450000Y17500000D03*
D37*
X114450000Y18250000D03*
X114450000Y15249999D03*
X114450000Y13750000D03*
D38*
X115300000Y12300000D03*
X117600000Y12300000D03*
X115300000Y19700000D03*
X117600000Y19700000D03*
%TD*%
D17*
%TO.C,LCH5*%
X-29500000Y34000000D03*
D18*
X-35000000Y34000000D03*
D17*
X-40500000Y34000000D03*
D19*
X-40000000Y30250000D03*
D23*
X-43245000Y30250000D03*
X-31755000Y28050000D03*
D19*
X-35000000Y28050000D03*
%TD*%
D21*
%TO.C,LD6*%
X-20350000Y23000000D03*
X-23650000Y23000000D03*
%TD*%
D17*
%TO.C,LCH16*%
X-27266282Y-23924348D03*
D18*
X-32250975Y-21599948D03*
D17*
X-37235668Y-19275548D03*
D19*
X-38367332Y-22885511D03*
D39*
X-41308301Y-21514115D03*
X-31824585Y-28363876D03*
D19*
X-34765554Y-26992479D03*
%TD*%
D22*
%TO.C,REF\u002A\u002A*%
X-93250000Y45750000D03*
%TD*%
D17*
%TO.C,RCH3*%
X76500000Y39000000D03*
D18*
X71000000Y39000000D03*
D17*
X65500000Y39000000D03*
D19*
X66000000Y35250000D03*
D23*
X62755000Y35250000D03*
X74245000Y33050000D03*
D19*
X71000000Y33050000D03*
%TD*%
D15*
%TO.C,RD3*%
X71400000Y46650000D03*
X71400000Y43350000D03*
%TD*%
D22*
%TO.C,REF\u002A\u002A*%
X-13909849Y-42013868D03*
%TD*%
D15*
%TO.C,RD10*%
X75000000Y28650000D03*
X75000000Y25350000D03*
%TD*%
D16*
%TO.C,RD14*%
X85000000Y-15150000D03*
X85000000Y-11850000D03*
%TD*%
D21*
%TO.C,LD10*%
X-20350000Y11000000D03*
X-23650000Y11000000D03*
%TD*%
D15*
%TO.C,RD4*%
X74400000Y46650000D03*
X74400000Y43350000D03*
%TD*%
D22*
%TO.C,REF\u002A\u002A*%
X-21923023Y45750000D03*
%TD*%
%TO.C,REF\u002A\u002A*%
X21923023Y-12750000D03*
%TD*%
D17*
%TO.C,RCH1*%
X40500000Y34000000D03*
D18*
X35000000Y34000000D03*
D17*
X29500000Y34000000D03*
D19*
X30000000Y30250000D03*
D23*
X26755000Y30250000D03*
X38245000Y28050000D03*
D19*
X35000000Y28050000D03*
%TD*%
%LPD*%
M02*
