%TF.GenerationSoftware,KiCad,Pcbnew,8.0.9*%
%TF.CreationDate,2025-09-11T00:28:19+10:00*%
%TF.ProjectId,forager-pcb,666f7261-6765-4722-9d70-63622e6b6963,rev?*%
%TF.SameCoordinates,Original*%
%TF.FileFunction,Other,Comment*%
%FSLAX46Y46*%
G04 Gerber Fmt 4.6, Leading zero omitted, Abs format (unit mm)*
G04 Created by KiCad (PCBNEW 8.0.9) date 2025-09-11 00:28:19*
%MOMM*%
%LPD*%
G01*
G04 APERTURE LIST*
%ADD10C,0.100000*%
%ADD11C,0.150000*%
G04 APERTURE END LIST*
D10*
X-77950000Y11950000D02*
X-64050000Y-1950000D01*
X-64050000Y-1950000D02*
X-64050000Y11950000D01*
X82050000Y23950000D02*
X95950000Y23950000D01*
X-59950000Y42950000D02*
X-46050000Y29050000D01*
X-41950000Y23950000D02*
X-41950000Y10050000D01*
X28050000Y27050000D02*
X28050000Y40950000D01*
X-35612617Y-12363912D02*
X-28889332Y-30835984D01*
X-113950000Y17950000D02*
X-113950000Y4050000D01*
X41950000Y6950000D02*
X41950000Y-6950000D01*
X-82050000Y-6950000D02*
X-82050000Y6950000D01*
X-90250000Y45750000D02*
G75*
G02*
X-96250000Y45750000I-3000000J0D01*
G01*
X-96250000Y45750000D02*
G75*
G02*
X-90250000Y45750000I3000000J0D01*
G01*
X41950000Y6950000D02*
X28050000Y-6950000D01*
X77950000Y28950000D02*
X77950000Y15050000D01*
X23014939Y-18238306D02*
X35612617Y-12363912D01*
X-100050000Y34950000D02*
X-113950000Y34950000D01*
X100050000Y950000D02*
X113950000Y950000D01*
X28050000Y40950000D02*
X41950000Y40950000D01*
X96250000Y45750000D02*
G75*
G02*
X90250000Y45750000I-3000000J0D01*
G01*
X90250000Y45750000D02*
G75*
G02*
X96250000Y45750000I3000000J0D01*
G01*
X-41950000Y6950000D02*
X-41950000Y-6950000D01*
X-46050000Y25950000D02*
X-59950000Y25950000D01*
X113950000Y17950000D02*
X100050000Y4050000D01*
X0Y0D02*
X0Y50750000D01*
X77950000Y45950000D02*
X77950000Y32050000D01*
X-113950000Y21050000D02*
X-100050000Y21050000D01*
X59950000Y-4950000D02*
X46050000Y-4950000D01*
X77950000Y11950000D02*
X77950000Y-1950000D01*
X8391872Y-29470666D02*
X20989550Y-23596272D01*
X-8391872Y-29470666D02*
X-20989550Y-23596272D01*
X100050000Y34950000D02*
X113950000Y34950000D01*
X-113950000Y34950000D02*
X-100050000Y21050000D01*
X113950000Y34950000D02*
X100050000Y21050000D01*
X46050000Y8950000D02*
X59950000Y8950000D01*
X-10909849Y-42013868D02*
G75*
G02*
X-16909849Y-42013868I-3000000J0D01*
G01*
X-16909849Y-42013868D02*
G75*
G02*
X-10909849Y-42013868I3000000J0D01*
G01*
X-77950000Y28950000D02*
X-77950000Y15050000D01*
X-46050000Y8950000D02*
X-59950000Y8950000D01*
X-28889332Y-30835984D02*
X-23014939Y-18238306D01*
X-35612617Y-12363912D02*
X-41487011Y-24961590D01*
X77950000Y45950000D02*
X64050000Y32050000D01*
X-77950000Y15050000D02*
X-64050000Y15050000D01*
X-82050000Y10050000D02*
X-82050000Y23950000D01*
X41487011Y-24961590D02*
X28889332Y-30835984D01*
X-64050000Y28950000D02*
X-77950000Y28950000D01*
X-41950000Y27050000D02*
X-28050000Y27050000D01*
X-77950000Y11950000D02*
X-77950000Y-1950000D01*
X-95950000Y10050000D02*
X-82050000Y10050000D01*
X-28050000Y23950000D02*
X-41950000Y23950000D01*
X46050000Y29050000D02*
X46050000Y42950000D01*
X-28050000Y6950000D02*
X-41950000Y6950000D01*
X95950000Y23950000D02*
X95950000Y10050000D01*
X95950000Y6950000D02*
X82050000Y-6950000D01*
X-59950000Y25950000D02*
X-59950000Y12050000D01*
X41950000Y23950000D02*
X28050000Y10050000D01*
X-95950000Y-6950000D02*
X-82050000Y-6950000D01*
X41950000Y23950000D02*
X41950000Y10050000D01*
X28050000Y23950000D02*
X41950000Y23950000D01*
X41950000Y40950000D02*
X41950000Y27050000D01*
X-46050000Y12050000D02*
X-46050000Y25950000D01*
X59950000Y42950000D02*
X59950000Y29050000D01*
X41950000Y10050000D02*
X28050000Y10050000D01*
X-82050000Y6950000D02*
X-95950000Y6950000D01*
X96250000Y-12750000D02*
G75*
G02*
X90250000Y-12750000I-3000000J0D01*
G01*
X90250000Y-12750000D02*
G75*
G02*
X96250000Y-12750000I3000000J0D01*
G01*
X-41950000Y40950000D02*
X-28050000Y27050000D01*
X77950000Y15050000D02*
X64050000Y15050000D01*
X77950000Y32050000D02*
X64050000Y32050000D01*
X46050000Y12050000D02*
X59950000Y25950000D01*
X35612617Y-12363912D02*
X41487011Y-24961590D01*
X64050000Y11950000D02*
X77950000Y11950000D01*
X64050000Y45950000D02*
X77950000Y45950000D01*
X82050000Y-6950000D02*
X82050000Y6950000D01*
X82050000Y10050000D02*
X95950000Y23950000D01*
X-95950000Y6950000D02*
X-82050000Y-6950000D01*
X-82050000Y27050000D02*
X-82050000Y40950000D01*
X-113950000Y17950000D02*
X-100050000Y4050000D01*
X-77950000Y45950000D02*
X-77950000Y32050000D01*
X59950000Y42950000D02*
X46050000Y29050000D01*
X100050000Y4050000D02*
X100050000Y17950000D01*
X82050000Y10050000D02*
X82050000Y23950000D01*
X-23014939Y-18238306D02*
X-35612617Y-12363912D01*
X95950000Y27050000D02*
X82050000Y27050000D01*
X82050000Y6950000D02*
X95950000Y6950000D01*
X-77950000Y45950000D02*
X-64050000Y32050000D01*
X100050000Y-12950000D02*
X100050000Y950000D01*
X113950000Y34950000D02*
X113950000Y21050000D01*
X26863944Y-36193950D02*
X14266265Y-42068344D01*
X-59950000Y8950000D02*
X-46050000Y-4950000D01*
X-95950000Y40950000D02*
X-82050000Y27050000D01*
X-59950000Y-4950000D02*
X-46050000Y-4950000D01*
X0Y0D02*
X-28050000Y0D01*
X113950000Y950000D02*
X113950000Y-12950000D01*
X-59950000Y29050000D02*
X-46050000Y29050000D01*
X-59950000Y12050000D02*
X-46050000Y12050000D01*
X-41950000Y40950000D02*
X-41950000Y27050000D01*
X95950000Y40950000D02*
X82050000Y27050000D01*
X-100050000Y-12950000D02*
X-100050000Y950000D01*
X-64050000Y15050000D02*
X-64050000Y28950000D01*
X95950000Y-6950000D02*
X82050000Y-6950000D01*
X16909849Y-42013868D02*
G75*
G02*
X10909849Y-42013868I-3000000J0D01*
G01*
X10909849Y-42013868D02*
G75*
G02*
X16909849Y-42013868I3000000J0D01*
G01*
X59950000Y25950000D02*
X59950000Y12050000D01*
X-100050000Y4050000D02*
X-100050000Y17950000D01*
X113950000Y17950000D02*
X113950000Y4050000D01*
X-82050000Y40950000D02*
X-95950000Y40950000D01*
X82050000Y27050000D02*
X82050000Y40950000D01*
X100050000Y21050000D02*
X100050000Y34950000D01*
X-20989550Y-23596272D02*
X-26863944Y-36193950D01*
X46050000Y12050000D02*
X46050000Y25950000D01*
X-82050000Y10050000D02*
X-95950000Y23950000D01*
X-14266265Y-42068344D02*
X-8391872Y-29470666D01*
X-95950000Y40950000D02*
X-95950000Y27050000D01*
X-64050000Y45950000D02*
X-77950000Y45950000D01*
X-95950000Y23950000D02*
X-95950000Y10050000D01*
X-41950000Y6950000D02*
X-28050000Y-6950000D01*
X20989550Y-23596272D02*
X26863944Y-36193950D01*
X59950000Y29050000D02*
X46050000Y29050000D01*
X-41487011Y-24961590D02*
X-28889332Y-30835984D01*
X-100050000Y21050000D02*
X-100050000Y34950000D01*
X-100050000Y17950000D02*
X-113950000Y17950000D01*
X82050000Y40950000D02*
X95950000Y40950000D01*
X-46050000Y12050000D02*
X-59950000Y25950000D01*
X46050000Y25950000D02*
X59950000Y25950000D01*
X-20989550Y-23596272D02*
X-14266265Y-42068344D01*
X-28050000Y10050000D02*
X-28050000Y23950000D01*
X77950000Y11950000D02*
X64050000Y-1950000D01*
X64050000Y32050000D02*
X64050000Y45950000D01*
X-113950000Y4050000D02*
X-100050000Y4050000D01*
X-113950000Y34950000D02*
X-113950000Y21050000D01*
X64050000Y15050000D02*
X64050000Y28950000D01*
X-18923023Y-12750000D02*
G75*
G02*
X-24923023Y-12750000I-3000000J0D01*
G01*
X-24923023Y-12750000D02*
G75*
G02*
X-18923023Y-12750000I3000000J0D01*
G01*
X64050000Y41950000D02*
X77950000Y41950000D01*
X-18923023Y45750000D02*
G75*
G02*
X-24923023Y45750000I-3000000J0D01*
G01*
X-24923023Y45750000D02*
G75*
G02*
X-18923023Y45750000I3000000J0D01*
G01*
X-46050000Y-4950000D02*
X-46050000Y8950000D01*
X35612617Y-12363912D02*
X28889332Y-30835984D01*
X-28050000Y40950000D02*
X-41950000Y40950000D01*
X41950000Y40950000D02*
X28050000Y27050000D01*
X46050000Y-4950000D02*
X46050000Y8950000D01*
X-59950000Y8950000D02*
X-59950000Y-4950000D01*
X-46050000Y29050000D02*
X-46050000Y42950000D01*
X95950000Y40950000D02*
X95950000Y27050000D01*
X64050000Y-1950000D02*
X64050000Y11950000D01*
X-26863944Y-36193950D02*
X-14266265Y-42068344D01*
X-41950000Y-6950000D02*
X-28050000Y-6950000D01*
X59950000Y8950000D02*
X59950000Y-4950000D01*
X-100050000Y950000D02*
X-113950000Y950000D01*
X-28050000Y27050000D02*
X-28050000Y40950000D01*
X41950000Y-6950000D02*
X28050000Y-6950000D01*
X-77950000Y32050000D02*
X-64050000Y32050000D01*
X28050000Y10050000D02*
X28050000Y23950000D01*
X113950000Y21050000D02*
X100050000Y21050000D01*
X95950000Y10050000D02*
X82050000Y10050000D01*
X113950000Y4050000D02*
X100050000Y4050000D01*
X-64050000Y32050000D02*
X-64050000Y45950000D01*
X-90250000Y-12750000D02*
G75*
G02*
X-96250000Y-12750000I-3000000J0D01*
G01*
X-96250000Y-12750000D02*
G75*
G02*
X-90250000Y-12750000I3000000J0D01*
G01*
X-64050000Y11950000D02*
X-77950000Y11950000D01*
X-113950000Y-12950000D02*
X-100050000Y-12950000D01*
X24923023Y-12750000D02*
G75*
G02*
X18923023Y-12750000I-3000000J0D01*
G01*
X18923023Y-12750000D02*
G75*
G02*
X24923023Y-12750000I3000000J0D01*
G01*
X-113950000Y950000D02*
X-113950000Y-12950000D01*
X-41950000Y23950000D02*
X-28050000Y10050000D01*
X-46050000Y42950000D02*
X-59950000Y42950000D01*
X28050000Y-6950000D02*
X28050000Y6950000D01*
X-95950000Y27050000D02*
X-82050000Y27050000D01*
X14266265Y-42068344D02*
X8391872Y-29470666D01*
X-59950000Y42950000D02*
X-59950000Y29050000D01*
X-28050000Y-6950000D02*
X-28050000Y6950000D01*
X-113950000Y950000D02*
X-100050000Y-12950000D01*
X-95950000Y6950000D02*
X-95950000Y-6950000D01*
X28889332Y-30835984D02*
X23014939Y-18238306D01*
X-77950000Y-1950000D02*
X-64050000Y-1950000D01*
X59950000Y12050000D02*
X46050000Y12050000D01*
X20989550Y-23596272D02*
X14266265Y-42068344D01*
X100050000Y17950000D02*
X113950000Y17950000D01*
X113950000Y-12950000D02*
X100050000Y-12950000D01*
X41950000Y27050000D02*
X28050000Y27050000D01*
X-82050000Y23950000D02*
X-95950000Y23950000D01*
X28050000Y6950000D02*
X41950000Y6950000D01*
X95950000Y6950000D02*
X95950000Y-6950000D01*
X-77950000Y28950000D02*
X-64050000Y15050000D01*
X77950000Y-1950000D02*
X64050000Y-1950000D01*
X-41950000Y10050000D02*
X-28050000Y10050000D01*
X24923023Y45750000D02*
G75*
G02*
X18923023Y45750000I-3000000J0D01*
G01*
X18923023Y45750000D02*
G75*
G02*
X24923023Y45750000I3000000J0D01*
G01*
X64050000Y28950000D02*
X77950000Y28950000D01*
X113950000Y950000D02*
X100050000Y-12950000D01*
X77950000Y28950000D02*
X64050000Y15050000D01*
X59950000Y8950000D02*
X46050000Y-4950000D01*
D11*
X20004625Y-36408065D02*
X20436200Y-36206818D01*
X20436200Y-36206818D02*
X20858819Y-37113126D01*
X19923894Y-37023671D02*
X19621791Y-37164543D01*
X19270947Y-36750185D02*
X19702522Y-36548938D01*
X19702522Y-36548938D02*
X20125141Y-37455246D01*
X20125141Y-37455246D02*
X19693566Y-37656493D01*
X18882530Y-36931307D02*
X19305148Y-37837615D01*
X19305148Y-37837615D02*
X19089360Y-37938238D01*
X19089360Y-37938238D02*
X18939763Y-37955455D01*
X18939763Y-37955455D02*
X18813199Y-37909389D01*
X18813199Y-37909389D02*
X18729792Y-37843199D01*
X18729792Y-37843199D02*
X18606136Y-37690693D01*
X18606136Y-37690693D02*
X18545762Y-37561221D01*
X18545762Y-37561221D02*
X18508420Y-37368466D01*
X18508420Y-37368466D02*
X18511329Y-37262026D01*
X18511329Y-37262026D02*
X18557394Y-37135462D01*
X18557394Y-37135462D02*
X18666742Y-37031930D01*
X18666742Y-37031930D02*
X18882530Y-36931307D01*
X34357142Y21245180D02*
X33880952Y21245180D01*
X33880952Y21245180D02*
X33880952Y22245180D01*
X34690476Y21768990D02*
X35023809Y21768990D01*
X35166666Y21245180D02*
X34690476Y21245180D01*
X34690476Y21245180D02*
X34690476Y22245180D01*
X34690476Y22245180D02*
X35166666Y22245180D01*
X35595238Y21245180D02*
X35595238Y22245180D01*
X35595238Y22245180D02*
X35833333Y22245180D01*
X35833333Y22245180D02*
X35976190Y22197561D01*
X35976190Y22197561D02*
X36071428Y22102323D01*
X36071428Y22102323D02*
X36119047Y22007085D01*
X36119047Y22007085D02*
X36166666Y21816609D01*
X36166666Y21816609D02*
X36166666Y21673752D01*
X36166666Y21673752D02*
X36119047Y21483276D01*
X36119047Y21483276D02*
X36071428Y21388038D01*
X36071428Y21388038D02*
X35976190Y21292800D01*
X35976190Y21292800D02*
X35833333Y21245180D01*
X35833333Y21245180D02*
X35595238Y21245180D01*
X-53642857Y23245180D02*
X-54119047Y23245180D01*
X-54119047Y23245180D02*
X-54119047Y24245180D01*
X-53309523Y23768990D02*
X-52976190Y23768990D01*
X-52833333Y23245180D02*
X-53309523Y23245180D01*
X-53309523Y23245180D02*
X-53309523Y24245180D01*
X-53309523Y24245180D02*
X-52833333Y24245180D01*
X-52404761Y23245180D02*
X-52404761Y24245180D01*
X-52404761Y24245180D02*
X-52166666Y24245180D01*
X-52166666Y24245180D02*
X-52023809Y24197561D01*
X-52023809Y24197561D02*
X-51928571Y24102323D01*
X-51928571Y24102323D02*
X-51880952Y24007085D01*
X-51880952Y24007085D02*
X-51833333Y23816609D01*
X-51833333Y23816609D02*
X-51833333Y23673752D01*
X-51833333Y23673752D02*
X-51880952Y23483276D01*
X-51880952Y23483276D02*
X-51928571Y23388038D01*
X-51928571Y23388038D02*
X-52023809Y23292800D01*
X-52023809Y23292800D02*
X-52166666Y23245180D01*
X-52166666Y23245180D02*
X-52404761Y23245180D01*
X106357142Y15245180D02*
X105880952Y15245180D01*
X105880952Y15245180D02*
X105880952Y16245180D01*
X106690476Y15768990D02*
X107023809Y15768990D01*
X107166666Y15245180D02*
X106690476Y15245180D01*
X106690476Y15245180D02*
X106690476Y16245180D01*
X106690476Y16245180D02*
X107166666Y16245180D01*
X107595238Y15245180D02*
X107595238Y16245180D01*
X107595238Y16245180D02*
X107833333Y16245180D01*
X107833333Y16245180D02*
X107976190Y16197561D01*
X107976190Y16197561D02*
X108071428Y16102323D01*
X108071428Y16102323D02*
X108119047Y16007085D01*
X108119047Y16007085D02*
X108166666Y15816609D01*
X108166666Y15816609D02*
X108166666Y15673752D01*
X108166666Y15673752D02*
X108119047Y15483276D01*
X108119047Y15483276D02*
X108071428Y15388038D01*
X108071428Y15388038D02*
X107976190Y15292800D01*
X107976190Y15292800D02*
X107833333Y15245180D01*
X107833333Y15245180D02*
X107595238Y15245180D01*
X-88357142Y29754819D02*
X-87880952Y29754819D01*
X-87880952Y29754819D02*
X-87880952Y28754819D01*
X-88690476Y29231009D02*
X-89023809Y29231009D01*
X-89166666Y29754819D02*
X-88690476Y29754819D01*
X-88690476Y29754819D02*
X-88690476Y28754819D01*
X-88690476Y28754819D02*
X-89166666Y28754819D01*
X-89595238Y29754819D02*
X-89595238Y28754819D01*
X-89595238Y28754819D02*
X-89833333Y28754819D01*
X-89833333Y28754819D02*
X-89976190Y28802438D01*
X-89976190Y28802438D02*
X-90071428Y28897676D01*
X-90071428Y28897676D02*
X-90119047Y28992914D01*
X-90119047Y28992914D02*
X-90166666Y29183390D01*
X-90166666Y29183390D02*
X-90166666Y29326247D01*
X-90166666Y29326247D02*
X-90119047Y29516723D01*
X-90119047Y29516723D02*
X-90071428Y29611961D01*
X-90071428Y29611961D02*
X-89976190Y29707200D01*
X-89976190Y29707200D02*
X-89833333Y29754819D01*
X-89833333Y29754819D02*
X-89595238Y29754819D01*
X-89642857Y21245180D02*
X-90119047Y21245180D01*
X-90119047Y21245180D02*
X-90119047Y22245180D01*
X-89309523Y21768990D02*
X-88976190Y21768990D01*
X-88833333Y21245180D02*
X-89309523Y21245180D01*
X-89309523Y21245180D02*
X-89309523Y22245180D01*
X-89309523Y22245180D02*
X-88833333Y22245180D01*
X-88404761Y21245180D02*
X-88404761Y22245180D01*
X-88404761Y22245180D02*
X-88166666Y22245180D01*
X-88166666Y22245180D02*
X-88023809Y22197561D01*
X-88023809Y22197561D02*
X-87928571Y22102323D01*
X-87928571Y22102323D02*
X-87880952Y22007085D01*
X-87880952Y22007085D02*
X-87833333Y21816609D01*
X-87833333Y21816609D02*
X-87833333Y21673752D01*
X-87833333Y21673752D02*
X-87880952Y21483276D01*
X-87880952Y21483276D02*
X-87928571Y21388038D01*
X-87928571Y21388038D02*
X-88023809Y21292800D01*
X-88023809Y21292800D02*
X-88166666Y21245180D01*
X-88166666Y21245180D02*
X-88404761Y21245180D01*
X89642857Y-4245180D02*
X90119047Y-4245180D01*
X90119047Y-4245180D02*
X90119047Y-5245180D01*
X89309523Y-4768990D02*
X88976190Y-4768990D01*
X88833333Y-4245180D02*
X89309523Y-4245180D01*
X89309523Y-4245180D02*
X89309523Y-5245180D01*
X89309523Y-5245180D02*
X88833333Y-5245180D01*
X88404761Y-4245180D02*
X88404761Y-5245180D01*
X88404761Y-5245180D02*
X88166666Y-5245180D01*
X88166666Y-5245180D02*
X88023809Y-5197561D01*
X88023809Y-5197561D02*
X87928571Y-5102323D01*
X87928571Y-5102323D02*
X87880952Y-5007085D01*
X87880952Y-5007085D02*
X87833333Y-4816609D01*
X87833333Y-4816609D02*
X87833333Y-4673752D01*
X87833333Y-4673752D02*
X87880952Y-4483276D01*
X87880952Y-4483276D02*
X87928571Y-4388038D01*
X87928571Y-4388038D02*
X88023809Y-4292800D01*
X88023809Y-4292800D02*
X88166666Y-4245180D01*
X88166666Y-4245180D02*
X88404761Y-4245180D01*
X52357142Y40245180D02*
X51880952Y40245180D01*
X51880952Y40245180D02*
X51880952Y41245180D01*
X52690476Y40768990D02*
X53023809Y40768990D01*
X53166666Y40245180D02*
X52690476Y40245180D01*
X52690476Y40245180D02*
X52690476Y41245180D01*
X52690476Y41245180D02*
X53166666Y41245180D01*
X53595238Y40245180D02*
X53595238Y41245180D01*
X53595238Y41245180D02*
X53833333Y41245180D01*
X53833333Y41245180D02*
X53976190Y41197561D01*
X53976190Y41197561D02*
X54071428Y41102323D01*
X54071428Y41102323D02*
X54119047Y41007085D01*
X54119047Y41007085D02*
X54166666Y40816609D01*
X54166666Y40816609D02*
X54166666Y40673752D01*
X54166666Y40673752D02*
X54119047Y40483276D01*
X54119047Y40483276D02*
X54071428Y40388038D01*
X54071428Y40388038D02*
X53976190Y40292800D01*
X53976190Y40292800D02*
X53833333Y40245180D01*
X53833333Y40245180D02*
X53595238Y40245180D01*
X-53642857Y40245180D02*
X-54119047Y40245180D01*
X-54119047Y40245180D02*
X-54119047Y41245180D01*
X-53309523Y40768990D02*
X-52976190Y40768990D01*
X-52833333Y40245180D02*
X-53309523Y40245180D01*
X-53309523Y40245180D02*
X-53309523Y41245180D01*
X-53309523Y41245180D02*
X-52833333Y41245180D01*
X-52404761Y40245180D02*
X-52404761Y41245180D01*
X-52404761Y41245180D02*
X-52166666Y41245180D01*
X-52166666Y41245180D02*
X-52023809Y41197561D01*
X-52023809Y41197561D02*
X-51928571Y41102323D01*
X-51928571Y41102323D02*
X-51880952Y41007085D01*
X-51880952Y41007085D02*
X-51833333Y40816609D01*
X-51833333Y40816609D02*
X-51833333Y40673752D01*
X-51833333Y40673752D02*
X-51880952Y40483276D01*
X-51880952Y40483276D02*
X-51928571Y40388038D01*
X-51928571Y40388038D02*
X-52023809Y40292800D01*
X-52023809Y40292800D02*
X-52166666Y40245180D01*
X-52166666Y40245180D02*
X-52404761Y40245180D01*
X-107642857Y-1754819D02*
X-108119047Y-1754819D01*
X-108119047Y-1754819D02*
X-108119047Y-754819D01*
X-107309523Y-1231009D02*
X-106976190Y-1231009D01*
X-106833333Y-1754819D02*
X-107309523Y-1754819D01*
X-107309523Y-1754819D02*
X-107309523Y-754819D01*
X-107309523Y-754819D02*
X-106833333Y-754819D01*
X-106404761Y-1754819D02*
X-106404761Y-754819D01*
X-106404761Y-754819D02*
X-106166666Y-754819D01*
X-106166666Y-754819D02*
X-106023809Y-802438D01*
X-106023809Y-802438D02*
X-105928571Y-897676D01*
X-105928571Y-897676D02*
X-105880952Y-992914D01*
X-105880952Y-992914D02*
X-105833333Y-1183390D01*
X-105833333Y-1183390D02*
X-105833333Y-1326247D01*
X-105833333Y-1326247D02*
X-105880952Y-1516723D01*
X-105880952Y-1516723D02*
X-105928571Y-1611961D01*
X-105928571Y-1611961D02*
X-106023809Y-1707200D01*
X-106023809Y-1707200D02*
X-106166666Y-1754819D01*
X-106166666Y-1754819D02*
X-106404761Y-1754819D01*
X88357142Y21245180D02*
X87880952Y21245180D01*
X87880952Y21245180D02*
X87880952Y22245180D01*
X88690476Y21768990D02*
X89023809Y21768990D01*
X89166666Y21245180D02*
X88690476Y21245180D01*
X88690476Y21245180D02*
X88690476Y22245180D01*
X88690476Y22245180D02*
X89166666Y22245180D01*
X89595238Y21245180D02*
X89595238Y22245180D01*
X89595238Y22245180D02*
X89833333Y22245180D01*
X89833333Y22245180D02*
X89976190Y22197561D01*
X89976190Y22197561D02*
X90071428Y22102323D01*
X90071428Y22102323D02*
X90119047Y22007085D01*
X90119047Y22007085D02*
X90166666Y21816609D01*
X90166666Y21816609D02*
X90166666Y21673752D01*
X90166666Y21673752D02*
X90119047Y21483276D01*
X90119047Y21483276D02*
X90071428Y21388038D01*
X90071428Y21388038D02*
X89976190Y21292800D01*
X89976190Y21292800D02*
X89833333Y21245180D01*
X89833333Y21245180D02*
X89595238Y21245180D01*
X-70357142Y754819D02*
X-69880952Y754819D01*
X-69880952Y754819D02*
X-69880952Y-245180D01*
X-70690476Y231009D02*
X-71023809Y231009D01*
X-71166666Y754819D02*
X-70690476Y754819D01*
X-70690476Y754819D02*
X-70690476Y-245180D01*
X-70690476Y-245180D02*
X-71166666Y-245180D01*
X-71595238Y754819D02*
X-71595238Y-245180D01*
X-71595238Y-245180D02*
X-71833333Y-245180D01*
X-71833333Y-245180D02*
X-71976190Y-197561D01*
X-71976190Y-197561D02*
X-72071428Y-102323D01*
X-72071428Y-102323D02*
X-72119047Y-7085D01*
X-72119047Y-7085D02*
X-72166666Y183390D01*
X-72166666Y183390D02*
X-72166666Y326247D01*
X-72166666Y326247D02*
X-72119047Y516723D01*
X-72119047Y516723D02*
X-72071428Y611961D01*
X-72071428Y611961D02*
X-71976190Y707200D01*
X-71976190Y707200D02*
X-71833333Y754819D01*
X-71833333Y754819D02*
X-71595238Y754819D01*
X-70357142Y34754819D02*
X-69880952Y34754819D01*
X-69880952Y34754819D02*
X-69880952Y33754819D01*
X-70690476Y34231009D02*
X-71023809Y34231009D01*
X-71166666Y34754819D02*
X-70690476Y34754819D01*
X-70690476Y34754819D02*
X-70690476Y33754819D01*
X-70690476Y33754819D02*
X-71166666Y33754819D01*
X-71595238Y34754819D02*
X-71595238Y33754819D01*
X-71595238Y33754819D02*
X-71833333Y33754819D01*
X-71833333Y33754819D02*
X-71976190Y33802438D01*
X-71976190Y33802438D02*
X-72071428Y33897676D01*
X-72071428Y33897676D02*
X-72119047Y33992914D01*
X-72119047Y33992914D02*
X-72166666Y34183390D01*
X-72166666Y34183390D02*
X-72166666Y34326247D01*
X-72166666Y34326247D02*
X-72119047Y34516723D01*
X-72119047Y34516723D02*
X-72071428Y34611961D01*
X-72071428Y34611961D02*
X-71976190Y34707200D01*
X-71976190Y34707200D02*
X-71833333Y34754819D01*
X-71833333Y34754819D02*
X-71595238Y34754819D01*
X53642857Y-2245180D02*
X54119047Y-2245180D01*
X54119047Y-2245180D02*
X54119047Y-3245180D01*
X53309523Y-2768990D02*
X52976190Y-2768990D01*
X52833333Y-2245180D02*
X53309523Y-2245180D01*
X53309523Y-2245180D02*
X53309523Y-3245180D01*
X53309523Y-3245180D02*
X52833333Y-3245180D01*
X52404761Y-2245180D02*
X52404761Y-3245180D01*
X52404761Y-3245180D02*
X52166666Y-3245180D01*
X52166666Y-3245180D02*
X52023809Y-3197561D01*
X52023809Y-3197561D02*
X51928571Y-3102323D01*
X51928571Y-3102323D02*
X51880952Y-3007085D01*
X51880952Y-3007085D02*
X51833333Y-2816609D01*
X51833333Y-2816609D02*
X51833333Y-2673752D01*
X51833333Y-2673752D02*
X51880952Y-2483276D01*
X51880952Y-2483276D02*
X51928571Y-2388038D01*
X51928571Y-2388038D02*
X52023809Y-2292800D01*
X52023809Y-2292800D02*
X52166666Y-2245180D01*
X52166666Y-2245180D02*
X52404761Y-2245180D01*
X-71642857Y26245180D02*
X-72119047Y26245180D01*
X-72119047Y26245180D02*
X-72119047Y27245180D01*
X-71309523Y26768990D02*
X-70976190Y26768990D01*
X-70833333Y26245180D02*
X-71309523Y26245180D01*
X-71309523Y26245180D02*
X-71309523Y27245180D01*
X-71309523Y27245180D02*
X-70833333Y27245180D01*
X-70404761Y26245180D02*
X-70404761Y27245180D01*
X-70404761Y27245180D02*
X-70166666Y27245180D01*
X-70166666Y27245180D02*
X-70023809Y27197561D01*
X-70023809Y27197561D02*
X-69928571Y27102323D01*
X-69928571Y27102323D02*
X-69880952Y27007085D01*
X-69880952Y27007085D02*
X-69833333Y26816609D01*
X-69833333Y26816609D02*
X-69833333Y26673752D01*
X-69833333Y26673752D02*
X-69880952Y26483276D01*
X-69880952Y26483276D02*
X-69928571Y26388038D01*
X-69928571Y26388038D02*
X-70023809Y26292800D01*
X-70023809Y26292800D02*
X-70166666Y26245180D01*
X-70166666Y26245180D02*
X-70404761Y26245180D01*
X52357142Y23245180D02*
X51880952Y23245180D01*
X51880952Y23245180D02*
X51880952Y24245180D01*
X52690476Y23768990D02*
X53023809Y23768990D01*
X53166666Y23245180D02*
X52690476Y23245180D01*
X52690476Y23245180D02*
X52690476Y24245180D01*
X52690476Y24245180D02*
X53166666Y24245180D01*
X53595238Y23245180D02*
X53595238Y24245180D01*
X53595238Y24245180D02*
X53833333Y24245180D01*
X53833333Y24245180D02*
X53976190Y24197561D01*
X53976190Y24197561D02*
X54071428Y24102323D01*
X54071428Y24102323D02*
X54119047Y24007085D01*
X54119047Y24007085D02*
X54166666Y23816609D01*
X54166666Y23816609D02*
X54166666Y23673752D01*
X54166666Y23673752D02*
X54119047Y23483276D01*
X54119047Y23483276D02*
X54071428Y23388038D01*
X54071428Y23388038D02*
X53976190Y23292800D01*
X53976190Y23292800D02*
X53833333Y23245180D01*
X53833333Y23245180D02*
X53595238Y23245180D01*
X-35642857Y4245180D02*
X-36119047Y4245180D01*
X-36119047Y4245180D02*
X-36119047Y5245180D01*
X-35309523Y4768990D02*
X-34976190Y4768990D01*
X-34833333Y4245180D02*
X-35309523Y4245180D01*
X-35309523Y4245180D02*
X-35309523Y5245180D01*
X-35309523Y5245180D02*
X-34833333Y5245180D01*
X-34404761Y4245180D02*
X-34404761Y5245180D01*
X-34404761Y5245180D02*
X-34166666Y5245180D01*
X-34166666Y5245180D02*
X-34023809Y5197561D01*
X-34023809Y5197561D02*
X-33928571Y5102323D01*
X-33928571Y5102323D02*
X-33880952Y5007085D01*
X-33880952Y5007085D02*
X-33833333Y4816609D01*
X-33833333Y4816609D02*
X-33833333Y4673752D01*
X-33833333Y4673752D02*
X-33880952Y4483276D01*
X-33880952Y4483276D02*
X-33928571Y4388038D01*
X-33928571Y4388038D02*
X-34023809Y4292800D01*
X-34023809Y4292800D02*
X-34166666Y4245180D01*
X-34166666Y4245180D02*
X-34404761Y4245180D01*
X-107642857Y32245180D02*
X-108119047Y32245180D01*
X-108119047Y32245180D02*
X-108119047Y33245180D01*
X-107309523Y32768990D02*
X-106976190Y32768990D01*
X-106833333Y32245180D02*
X-107309523Y32245180D01*
X-107309523Y32245180D02*
X-107309523Y33245180D01*
X-107309523Y33245180D02*
X-106833333Y33245180D01*
X-106404761Y32245180D02*
X-106404761Y33245180D01*
X-106404761Y33245180D02*
X-106166666Y33245180D01*
X-106166666Y33245180D02*
X-106023809Y33197561D01*
X-106023809Y33197561D02*
X-105928571Y33102323D01*
X-105928571Y33102323D02*
X-105880952Y33007085D01*
X-105880952Y33007085D02*
X-105833333Y32816609D01*
X-105833333Y32816609D02*
X-105833333Y32673752D01*
X-105833333Y32673752D02*
X-105880952Y32483276D01*
X-105880952Y32483276D02*
X-105928571Y32388038D01*
X-105928571Y32388038D02*
X-106023809Y32292800D01*
X-106023809Y32292800D02*
X-106166666Y32245180D01*
X-106166666Y32245180D02*
X-106404761Y32245180D01*
X71642857Y754819D02*
X72119047Y754819D01*
X72119047Y754819D02*
X72119047Y-245180D01*
X71309523Y231009D02*
X70976190Y231009D01*
X70833333Y754819D02*
X71309523Y754819D01*
X71309523Y754819D02*
X71309523Y-245180D01*
X71309523Y-245180D02*
X70833333Y-245180D01*
X70404761Y754819D02*
X70404761Y-245180D01*
X70404761Y-245180D02*
X70166666Y-245180D01*
X70166666Y-245180D02*
X70023809Y-197561D01*
X70023809Y-197561D02*
X69928571Y-102323D01*
X69928571Y-102323D02*
X69880952Y-7085D01*
X69880952Y-7085D02*
X69833333Y183390D01*
X69833333Y183390D02*
X69833333Y326247D01*
X69833333Y326247D02*
X69880952Y516723D01*
X69880952Y516723D02*
X69928571Y611961D01*
X69928571Y611961D02*
X70023809Y707200D01*
X70023809Y707200D02*
X70166666Y754819D01*
X70166666Y754819D02*
X70404761Y754819D01*
X-107642857Y15245180D02*
X-108119047Y15245180D01*
X-108119047Y15245180D02*
X-108119047Y16245180D01*
X-107309523Y15768990D02*
X-106976190Y15768990D01*
X-106833333Y15245180D02*
X-107309523Y15245180D01*
X-107309523Y15245180D02*
X-107309523Y16245180D01*
X-107309523Y16245180D02*
X-106833333Y16245180D01*
X-106404761Y15245180D02*
X-106404761Y16245180D01*
X-106404761Y16245180D02*
X-106166666Y16245180D01*
X-106166666Y16245180D02*
X-106023809Y16197561D01*
X-106023809Y16197561D02*
X-105928571Y16102323D01*
X-105928571Y16102323D02*
X-105880952Y16007085D01*
X-105880952Y16007085D02*
X-105833333Y15816609D01*
X-105833333Y15816609D02*
X-105833333Y15673752D01*
X-105833333Y15673752D02*
X-105880952Y15483276D01*
X-105880952Y15483276D02*
X-105928571Y15388038D01*
X-105928571Y15388038D02*
X-106023809Y15292800D01*
X-106023809Y15292800D02*
X-106166666Y15245180D01*
X-106166666Y15245180D02*
X-106404761Y15245180D01*
X106357142Y32245180D02*
X105880952Y32245180D01*
X105880952Y32245180D02*
X105880952Y33245180D01*
X106690476Y32768990D02*
X107023809Y32768990D01*
X107166666Y32245180D02*
X106690476Y32245180D01*
X106690476Y32245180D02*
X106690476Y33245180D01*
X106690476Y33245180D02*
X107166666Y33245180D01*
X107595238Y32245180D02*
X107595238Y33245180D01*
X107595238Y33245180D02*
X107833333Y33245180D01*
X107833333Y33245180D02*
X107976190Y33197561D01*
X107976190Y33197561D02*
X108071428Y33102323D01*
X108071428Y33102323D02*
X108119047Y33007085D01*
X108119047Y33007085D02*
X108166666Y32816609D01*
X108166666Y32816609D02*
X108166666Y32673752D01*
X108166666Y32673752D02*
X108119047Y32483276D01*
X108119047Y32483276D02*
X108071428Y32388038D01*
X108071428Y32388038D02*
X107976190Y32292800D01*
X107976190Y32292800D02*
X107833333Y32245180D01*
X107833333Y32245180D02*
X107595238Y32245180D01*
X-88357142Y-4245180D02*
X-87880952Y-4245180D01*
X-87880952Y-4245180D02*
X-87880952Y-5245180D01*
X-88690476Y-4768990D02*
X-89023809Y-4768990D01*
X-89166666Y-4245180D02*
X-88690476Y-4245180D01*
X-88690476Y-4245180D02*
X-88690476Y-5245180D01*
X-88690476Y-5245180D02*
X-89166666Y-5245180D01*
X-89595238Y-4245180D02*
X-89595238Y-5245180D01*
X-89595238Y-5245180D02*
X-89833333Y-5245180D01*
X-89833333Y-5245180D02*
X-89976190Y-5197561D01*
X-89976190Y-5197561D02*
X-90071428Y-5102323D01*
X-90071428Y-5102323D02*
X-90119047Y-5007085D01*
X-90119047Y-5007085D02*
X-90166666Y-4816609D01*
X-90166666Y-4816609D02*
X-90166666Y-4673752D01*
X-90166666Y-4673752D02*
X-90119047Y-4483276D01*
X-90119047Y-4483276D02*
X-90071428Y-4388038D01*
X-90071428Y-4388038D02*
X-89976190Y-4292800D01*
X-89976190Y-4292800D02*
X-89833333Y-4245180D01*
X-89833333Y-4245180D02*
X-89595238Y-4245180D01*
X70357142Y26245180D02*
X69880952Y26245180D01*
X69880952Y26245180D02*
X69880952Y27245180D01*
X70690476Y26768990D02*
X71023809Y26768990D01*
X71166666Y26245180D02*
X70690476Y26245180D01*
X70690476Y26245180D02*
X70690476Y27245180D01*
X70690476Y27245180D02*
X71166666Y27245180D01*
X71595238Y26245180D02*
X71595238Y27245180D01*
X71595238Y27245180D02*
X71833333Y27245180D01*
X71833333Y27245180D02*
X71976190Y27197561D01*
X71976190Y27197561D02*
X72071428Y27102323D01*
X72071428Y27102323D02*
X72119047Y27007085D01*
X72119047Y27007085D02*
X72166666Y26816609D01*
X72166666Y26816609D02*
X72166666Y26673752D01*
X72166666Y26673752D02*
X72119047Y26483276D01*
X72119047Y26483276D02*
X72071428Y26388038D01*
X72071428Y26388038D02*
X71976190Y26292800D01*
X71976190Y26292800D02*
X71833333Y26245180D01*
X71833333Y26245180D02*
X71595238Y26245180D01*
X-35642857Y21245180D02*
X-36119047Y21245180D01*
X-36119047Y21245180D02*
X-36119047Y22245180D01*
X-35309523Y21768990D02*
X-34976190Y21768990D01*
X-34833333Y21245180D02*
X-35309523Y21245180D01*
X-35309523Y21245180D02*
X-35309523Y22245180D01*
X-35309523Y22245180D02*
X-34833333Y22245180D01*
X-34404761Y21245180D02*
X-34404761Y22245180D01*
X-34404761Y22245180D02*
X-34166666Y22245180D01*
X-34166666Y22245180D02*
X-34023809Y22197561D01*
X-34023809Y22197561D02*
X-33928571Y22102323D01*
X-33928571Y22102323D02*
X-33880952Y22007085D01*
X-33880952Y22007085D02*
X-33833333Y21816609D01*
X-33833333Y21816609D02*
X-33833333Y21673752D01*
X-33833333Y21673752D02*
X-33880952Y21483276D01*
X-33880952Y21483276D02*
X-33928571Y21388038D01*
X-33928571Y21388038D02*
X-34023809Y21292800D01*
X-34023809Y21292800D02*
X-34166666Y21245180D01*
X-34166666Y21245180D02*
X-34404761Y21245180D01*
X-52357142Y-2245180D02*
X-51880952Y-2245180D01*
X-51880952Y-2245180D02*
X-51880952Y-3245180D01*
X-52690476Y-2768990D02*
X-53023809Y-2768990D01*
X-53166666Y-2245180D02*
X-52690476Y-2245180D01*
X-52690476Y-2245180D02*
X-52690476Y-3245180D01*
X-52690476Y-3245180D02*
X-53166666Y-3245180D01*
X-53595238Y-2245180D02*
X-53595238Y-3245180D01*
X-53595238Y-3245180D02*
X-53833333Y-3245180D01*
X-53833333Y-3245180D02*
X-53976190Y-3197561D01*
X-53976190Y-3197561D02*
X-54071428Y-3102323D01*
X-54071428Y-3102323D02*
X-54119047Y-3007085D01*
X-54119047Y-3007085D02*
X-54166666Y-2816609D01*
X-54166666Y-2816609D02*
X-54166666Y-2673752D01*
X-54166666Y-2673752D02*
X-54119047Y-2483276D01*
X-54119047Y-2483276D02*
X-54071428Y-2388038D01*
X-54071428Y-2388038D02*
X-53976190Y-2292800D01*
X-53976190Y-2292800D02*
X-53833333Y-2245180D01*
X-53833333Y-2245180D02*
X-53595238Y-2245180D01*
X34357142Y4245180D02*
X33880952Y4245180D01*
X33880952Y4245180D02*
X33880952Y5245180D01*
X34690476Y4768990D02*
X35023809Y4768990D01*
X35166666Y4245180D02*
X34690476Y4245180D01*
X34690476Y4245180D02*
X34690476Y5245180D01*
X34690476Y5245180D02*
X35166666Y5245180D01*
X35595238Y4245180D02*
X35595238Y5245180D01*
X35595238Y5245180D02*
X35833333Y5245180D01*
X35833333Y5245180D02*
X35976190Y5197561D01*
X35976190Y5197561D02*
X36071428Y5102323D01*
X36071428Y5102323D02*
X36119047Y5007085D01*
X36119047Y5007085D02*
X36166666Y4816609D01*
X36166666Y4816609D02*
X36166666Y4673752D01*
X36166666Y4673752D02*
X36119047Y4483276D01*
X36119047Y4483276D02*
X36071428Y4388038D01*
X36071428Y4388038D02*
X35976190Y4292800D01*
X35976190Y4292800D02*
X35833333Y4245180D01*
X35833333Y4245180D02*
X35595238Y4245180D01*
X88357142Y38245180D02*
X87880952Y38245180D01*
X87880952Y38245180D02*
X87880952Y39245180D01*
X88690476Y38768990D02*
X89023809Y38768990D01*
X89166666Y38245180D02*
X88690476Y38245180D01*
X88690476Y38245180D02*
X88690476Y39245180D01*
X88690476Y39245180D02*
X89166666Y39245180D01*
X89595238Y38245180D02*
X89595238Y39245180D01*
X89595238Y39245180D02*
X89833333Y39245180D01*
X89833333Y39245180D02*
X89976190Y39197561D01*
X89976190Y39197561D02*
X90071428Y39102323D01*
X90071428Y39102323D02*
X90119047Y39007085D01*
X90119047Y39007085D02*
X90166666Y38816609D01*
X90166666Y38816609D02*
X90166666Y38673752D01*
X90166666Y38673752D02*
X90119047Y38483276D01*
X90119047Y38483276D02*
X90071428Y38388038D01*
X90071428Y38388038D02*
X89976190Y38292800D01*
X89976190Y38292800D02*
X89833333Y38245180D01*
X89833333Y38245180D02*
X89595238Y38245180D01*
X-18839372Y-36951432D02*
X-18407797Y-37152678D01*
X-18407797Y-37152678D02*
X-18830415Y-38058986D01*
X-19362846Y-37285292D02*
X-19664949Y-37144419D01*
X-19573050Y-36609312D02*
X-19141475Y-36810559D01*
X-19141475Y-36810559D02*
X-19564093Y-37716867D01*
X-19564093Y-37716867D02*
X-19995668Y-37515620D01*
X-19961468Y-36428190D02*
X-20384086Y-37334498D01*
X-20384086Y-37334498D02*
X-20599874Y-37233874D01*
X-20599874Y-37233874D02*
X-20709221Y-37130343D01*
X-20709221Y-37130343D02*
X-20755287Y-37003778D01*
X-20755287Y-37003778D02*
X-20758195Y-36897339D01*
X-20758195Y-36897339D02*
X-20720854Y-36704584D01*
X-20720854Y-36704584D02*
X-20660480Y-36575111D01*
X-20660480Y-36575111D02*
X-20536824Y-36422606D01*
X-20536824Y-36422606D02*
X-20453417Y-36356416D01*
X-20453417Y-36356416D02*
X-20326853Y-36310350D01*
X-20326853Y-36310350D02*
X-20177255Y-36327567D01*
X-20177255Y-36327567D02*
X-19961468Y-36428190D01*
X106357142Y-1754819D02*
X105880952Y-1754819D01*
X105880952Y-1754819D02*
X105880952Y-754819D01*
X106690476Y-1231009D02*
X107023809Y-1231009D01*
X107166666Y-1754819D02*
X106690476Y-1754819D01*
X106690476Y-1754819D02*
X106690476Y-754819D01*
X106690476Y-754819D02*
X107166666Y-754819D01*
X107595238Y-1754819D02*
X107595238Y-754819D01*
X107595238Y-754819D02*
X107833333Y-754819D01*
X107833333Y-754819D02*
X107976190Y-802438D01*
X107976190Y-802438D02*
X108071428Y-897676D01*
X108071428Y-897676D02*
X108119047Y-992914D01*
X108119047Y-992914D02*
X108166666Y-1183390D01*
X108166666Y-1183390D02*
X108166666Y-1326247D01*
X108166666Y-1326247D02*
X108119047Y-1516723D01*
X108119047Y-1516723D02*
X108071428Y-1611961D01*
X108071428Y-1611961D02*
X107976190Y-1707200D01*
X107976190Y-1707200D02*
X107833333Y-1754819D01*
X107833333Y-1754819D02*
X107595238Y-1754819D01*
X34627692Y-25175705D02*
X35059267Y-24974458D01*
X35059267Y-24974458D02*
X35481886Y-25880766D01*
X34546961Y-25791311D02*
X34244858Y-25932183D01*
X33894014Y-25517825D02*
X34325589Y-25316578D01*
X34325589Y-25316578D02*
X34748208Y-26222886D01*
X34748208Y-26222886D02*
X34316633Y-26424133D01*
X33505597Y-25698947D02*
X33928215Y-26605255D01*
X33928215Y-26605255D02*
X33712427Y-26705878D01*
X33712427Y-26705878D02*
X33562830Y-26723095D01*
X33562830Y-26723095D02*
X33436266Y-26677029D01*
X33436266Y-26677029D02*
X33352859Y-26610839D01*
X33352859Y-26610839D02*
X33229203Y-26458333D01*
X33229203Y-26458333D02*
X33168829Y-26328861D01*
X33168829Y-26328861D02*
X33131487Y-26136106D01*
X33131487Y-26136106D02*
X33134396Y-26029666D01*
X33134396Y-26029666D02*
X33180461Y-25903102D01*
X33180461Y-25903102D02*
X33289809Y-25799570D01*
X33289809Y-25799570D02*
X33505597Y-25698947D01*
X-35642857Y38245180D02*
X-36119047Y38245180D01*
X-36119047Y38245180D02*
X-36119047Y39245180D01*
X-35309523Y38768990D02*
X-34976190Y38768990D01*
X-34833333Y38245180D02*
X-35309523Y38245180D01*
X-35309523Y38245180D02*
X-35309523Y39245180D01*
X-35309523Y39245180D02*
X-34833333Y39245180D01*
X-34404761Y38245180D02*
X-34404761Y39245180D01*
X-34404761Y39245180D02*
X-34166666Y39245180D01*
X-34166666Y39245180D02*
X-34023809Y39197561D01*
X-34023809Y39197561D02*
X-33928571Y39102323D01*
X-33928571Y39102323D02*
X-33880952Y39007085D01*
X-33880952Y39007085D02*
X-33833333Y38816609D01*
X-33833333Y38816609D02*
X-33833333Y38673752D01*
X-33833333Y38673752D02*
X-33880952Y38483276D01*
X-33880952Y38483276D02*
X-33928571Y38388038D01*
X-33928571Y38388038D02*
X-34023809Y38292800D01*
X-34023809Y38292800D02*
X-34166666Y38245180D01*
X-34166666Y38245180D02*
X-34404761Y38245180D01*
X-31039510Y-17480823D02*
X-31471085Y-17279577D01*
X-31471085Y-17279577D02*
X-31048467Y-16373269D01*
X-30516036Y-17146963D02*
X-30213933Y-17287836D01*
X-30305832Y-17822943D02*
X-30737407Y-17621696D01*
X-30737407Y-17621696D02*
X-30314789Y-16715388D01*
X-30314789Y-16715388D02*
X-29883214Y-16916635D01*
X-29917414Y-18004065D02*
X-29494796Y-17097757D01*
X-29494796Y-17097757D02*
X-29279008Y-17198381D01*
X-29279008Y-17198381D02*
X-29169661Y-17301912D01*
X-29169661Y-17301912D02*
X-29123595Y-17428477D01*
X-29123595Y-17428477D02*
X-29120687Y-17534916D01*
X-29120687Y-17534916D02*
X-29158028Y-17727671D01*
X-29158028Y-17727671D02*
X-29218402Y-17857144D01*
X-29218402Y-17857144D02*
X-29342058Y-18009649D01*
X-29342058Y-18009649D02*
X-29425465Y-18075839D01*
X-29425465Y-18075839D02*
X-29552029Y-18121905D01*
X-29552029Y-18121905D02*
X-29701627Y-18104688D01*
X-29701627Y-18104688D02*
X-29917414Y-18004065D01*
X70357142Y43245180D02*
X69880952Y43245180D01*
X69880952Y43245180D02*
X69880952Y44245180D01*
X70690476Y43768990D02*
X71023809Y43768990D01*
X71166666Y43245180D02*
X70690476Y43245180D01*
X70690476Y43245180D02*
X70690476Y44245180D01*
X70690476Y44245180D02*
X71166666Y44245180D01*
X71595238Y43245180D02*
X71595238Y44245180D01*
X71595238Y44245180D02*
X71833333Y44245180D01*
X71833333Y44245180D02*
X71976190Y44197561D01*
X71976190Y44197561D02*
X72071428Y44102323D01*
X72071428Y44102323D02*
X72119047Y44007085D01*
X72119047Y44007085D02*
X72166666Y43816609D01*
X72166666Y43816609D02*
X72166666Y43673752D01*
X72166666Y43673752D02*
X72119047Y43483276D01*
X72119047Y43483276D02*
X72071428Y43388038D01*
X72071428Y43388038D02*
X71976190Y43292800D01*
X71976190Y43292800D02*
X71833333Y43245180D01*
X71833333Y43245180D02*
X71595238Y43245180D01*
X34357142Y38245180D02*
X33880952Y38245180D01*
X33880952Y38245180D02*
X33880952Y39245180D01*
X34690476Y38768990D02*
X35023809Y38768990D01*
X35166666Y38245180D02*
X34690476Y38245180D01*
X34690476Y38245180D02*
X34690476Y39245180D01*
X34690476Y39245180D02*
X35166666Y39245180D01*
X35595238Y38245180D02*
X35595238Y39245180D01*
X35595238Y39245180D02*
X35833333Y39245180D01*
X35833333Y39245180D02*
X35976190Y39197561D01*
X35976190Y39197561D02*
X36071428Y39102323D01*
X36071428Y39102323D02*
X36119047Y39007085D01*
X36119047Y39007085D02*
X36166666Y38816609D01*
X36166666Y38816609D02*
X36166666Y38673752D01*
X36166666Y38673752D02*
X36119047Y38483276D01*
X36119047Y38483276D02*
X36071428Y38388038D01*
X36071428Y38388038D02*
X35976190Y38292800D01*
X35976190Y38292800D02*
X35833333Y38245180D01*
X35833333Y38245180D02*
X35595238Y38245180D01*
D10*
%TO.C,RCH16*%
X22545607Y-37462844D02*
X18014068Y-39575935D01*
X16682822Y-36721065D01*
X21214360Y-34607974D01*
X22545607Y-37462844D01*
%TO.C,RCH6*%
X32500000Y20125000D02*
X37500000Y20125000D01*
X37500000Y23275000D01*
X32500000Y23275000D01*
X32500000Y20125000D01*
%TO.C,LCH9*%
X-55500000Y22125000D02*
X-50500000Y22125000D01*
X-50500000Y25275000D01*
X-55500000Y25275000D01*
X-55500000Y22125000D01*
%TO.C,RCH10*%
X104500000Y14125000D02*
X109500000Y14125000D01*
X109500000Y17275000D01*
X104500000Y17275000D01*
X104500000Y14125000D01*
%TO.C,LCH2*%
X-86500000Y30875000D02*
X-91500000Y30875000D01*
X-91500000Y27725000D01*
X-86500000Y27725000D01*
X-86500000Y30875000D01*
%TO.C,LCH7*%
X-91500000Y20125000D02*
X-86500000Y20125000D01*
X-86500000Y23275000D01*
X-91500000Y23275000D01*
X-91500000Y20125000D01*
%TO.C,RCH14*%
X91500000Y-3125000D02*
X86500000Y-3125000D01*
X86500000Y-6275000D01*
X91500000Y-6275000D01*
X91500000Y-3125000D01*
%TO.C,RCH2*%
X50500000Y39125000D02*
X55500000Y39125000D01*
X55500000Y42275000D01*
X50500000Y42275000D01*
X50500000Y39125000D01*
%TO.C,LCH4*%
X-55500000Y39125000D02*
X-50500000Y39125000D01*
X-50500000Y42275000D01*
X-55500000Y42275000D01*
X-55500000Y39125000D01*
%TO.C,LCH11*%
X-109500000Y-2875000D02*
X-104500000Y-2875000D01*
X-104500000Y275000D01*
X-109500000Y275000D01*
X-109500000Y-2875000D01*
%TO.C,RCH9*%
X86500000Y20125000D02*
X91500000Y20125000D01*
X91500000Y23275000D01*
X86500000Y23275000D01*
X86500000Y20125000D01*
%TO.C,LCH13*%
X-68500000Y1875000D02*
X-73500000Y1875000D01*
X-73500000Y-1275000D01*
X-68500000Y-1275000D01*
X-68500000Y1875000D01*
%TO.C,LCH3*%
X-68500000Y35875000D02*
X-73500000Y35875000D01*
X-73500000Y32725000D01*
X-68500000Y32725000D01*
X-68500000Y35875000D01*
%TO.C,RCH12*%
X55500000Y-1125000D02*
X50500000Y-1125000D01*
X50500000Y-4275000D01*
X55500000Y-4275000D01*
X55500000Y-1125000D01*
%TO.C,LCH8*%
X-73500000Y25125000D02*
X-68500000Y25125000D01*
X-68500000Y28275000D01*
X-73500000Y28275000D01*
X-73500000Y25125000D01*
%TO.C,RCH7*%
X50500000Y22125000D02*
X55500000Y22125000D01*
X55500000Y25275000D01*
X50500000Y25275000D01*
X50500000Y22125000D01*
%TO.C,LCH15*%
X-37500000Y3125000D02*
X-32500000Y3125000D01*
X-32500000Y6275000D01*
X-37500000Y6275000D01*
X-37500000Y3125000D01*
%TO.C,LCH1*%
X-109500000Y31125000D02*
X-104500000Y31125000D01*
X-104500000Y34275000D01*
X-109500000Y34275000D01*
X-109500000Y31125000D01*
%TO.C,RCH13*%
X73500000Y1875000D02*
X68500000Y1875000D01*
X68500000Y-1275000D01*
X73500000Y-1275000D01*
X73500000Y1875000D01*
%TO.C,LCH6*%
X-109500000Y14125000D02*
X-104500000Y14125000D01*
X-104500000Y17275000D01*
X-109500000Y17275000D01*
X-109500000Y14125000D01*
%TO.C,RCH5*%
X104500000Y31125000D02*
X109500000Y31125000D01*
X109500000Y34275000D01*
X104500000Y34275000D01*
X104500000Y31125000D01*
%TO.C,LCH12*%
X-86500000Y-3125000D02*
X-91500000Y-3125000D01*
X-91500000Y-6275000D01*
X-86500000Y-6275000D01*
X-86500000Y-3125000D01*
%TO.C,RCH8*%
X68500000Y25125000D02*
X73500000Y25125000D01*
X73500000Y28275000D01*
X68500000Y28275000D01*
X68500000Y25125000D01*
%TO.C,LCH10*%
X-37500000Y20125000D02*
X-32500000Y20125000D01*
X-32500000Y23275000D01*
X-37500000Y23275000D01*
X-37500000Y20125000D01*
%TO.C,LCH14*%
X-50500000Y-1125000D02*
X-55500000Y-1125000D01*
X-55500000Y-4275000D01*
X-50500000Y-4275000D01*
X-50500000Y-1125000D01*
%TO.C,RCH11*%
X32500000Y3125000D02*
X37500000Y3125000D01*
X37500000Y6275000D01*
X32500000Y6275000D01*
X32500000Y3125000D01*
%TO.C,RCH4*%
X86500000Y37125000D02*
X91500000Y37125000D01*
X91500000Y40275000D01*
X86500000Y40275000D01*
X86500000Y37125000D01*
%TO.C,LCH17*%
X-16682822Y-36721065D02*
X-18014068Y-39575935D01*
X-22545607Y-37462844D01*
X-21214360Y-34607974D01*
X-16682822Y-36721065D01*
%TO.C,RCH15*%
X104500000Y-2875000D02*
X109500000Y-2875000D01*
X109500000Y275000D01*
X104500000Y275000D01*
X104500000Y-2875000D01*
%TO.C,RCH17*%
X37168674Y-26230484D02*
X32637135Y-28343575D01*
X31305889Y-25488705D01*
X35837427Y-23375614D01*
X37168674Y-26230484D01*
%TO.C,LCH5*%
X-37500000Y37125000D02*
X-32500000Y37125000D01*
X-32500000Y40275000D01*
X-37500000Y40275000D01*
X-37500000Y37125000D01*
%TO.C,LCH16*%
X-27333276Y-16969412D02*
X-28664523Y-19824282D01*
X-33196061Y-17711191D01*
X-31864815Y-14856321D01*
X-27333276Y-16969412D01*
%TO.C,RCH3*%
X68500000Y42125000D02*
X73500000Y42125000D01*
X73500000Y45275000D01*
X68500000Y45275000D01*
X68500000Y42125000D01*
%TO.C,RCH1*%
X32500000Y37125000D02*
X37500000Y37125000D01*
X37500000Y40275000D01*
X32500000Y40275000D01*
X32500000Y37125000D01*
%TD*%
M02*
