%TF.GenerationSoftware,KiCad,Pcbnew,8.0.9*%
%TF.CreationDate,2025-09-11T00:28:19+10:00*%
%TF.ProjectId,forager-pcb,666f7261-6765-4722-9d70-63622e6b6963,rev?*%
%TF.SameCoordinates,Original*%
%TF.FileFunction,Legend,Top*%
%TF.FilePolarity,Positive*%
%FSLAX46Y46*%
G04 Gerber Fmt 4.6, Leading zero omitted, Abs format (unit mm)*
G04 Created by KiCad (PCBNEW 8.0.9) date 2025-09-11 00:28:19*
%MOMM*%
%LPD*%
G01*
G04 APERTURE LIST*
%ADD10C,0.200000*%
%ADD11C,0.500000*%
%ADD12C,1.700000*%
%ADD13C,3.400000*%
%ADD14C,6.200000*%
%ADD15C,1.397000*%
%ADD16R,1.700000X1.700000*%
%ADD17O,1.700000X1.700000*%
%ADD18C,0.850000*%
G04 APERTURE END LIST*
D10*
X109010753Y35548753D02*
G75*
G02*
X106610753Y35548753I-1200000J0D01*
G01*
X106610753Y35548753D02*
G75*
G02*
X109010753Y35548753I1200000J0D01*
G01*
X-106610753Y44451247D02*
G75*
G02*
X-109010753Y44451247I-1200000J0D01*
G01*
X-109010753Y44451247D02*
G75*
G02*
X-106610753Y44451247I1200000J0D01*
G01*
%LPC*%
D11*
%TO.C,REF\u002A\u002A*%
X17873023Y-8150000D03*
X17873023Y-8890000D03*
X17873023Y-9630000D03*
X17873023Y-10370000D03*
X17873023Y-11110000D03*
X17873023Y-11850000D03*
%TD*%
%TO.C,REF\u002A\u002A*%
X17873023Y41850000D03*
X17873023Y41110000D03*
X17873023Y40370000D03*
X17873023Y39630000D03*
X17873023Y38890000D03*
X17873023Y38150000D03*
%TD*%
%TO.C,REF\u002A\u002A*%
X-17873023Y-11850000D03*
X-17873023Y-11110000D03*
X-17873023Y-10370000D03*
X-17873023Y-9630000D03*
X-17873023Y-8890000D03*
X-17873023Y-8150000D03*
%TD*%
%TO.C,REF\u002A\u002A*%
X-17873023Y38150000D03*
X-17873023Y38890000D03*
X-17873023Y39630000D03*
X-17873023Y40370000D03*
X-17873023Y41110000D03*
X-17873023Y41850000D03*
%TD*%
D12*
%TO.C,RCH16*%
X12643215Y-35156708D03*
D13*
X17627908Y-32832308D03*
D12*
X22612601Y-30507908D03*
%TD*%
D14*
%TO.C,REF\u002A\u002A*%
X-21923023Y-12750000D03*
%TD*%
D12*
%TO.C,RCH6*%
X40500000Y17000000D03*
D13*
X35000000Y17000000D03*
D12*
X29500000Y17000000D03*
%TD*%
%TO.C,LCH9*%
X-47500000Y19000000D03*
D13*
X-53000000Y19000000D03*
D12*
X-58500000Y19000000D03*
%TD*%
%TO.C,RCH10*%
X112500000Y11000000D03*
D13*
X107000000Y11000000D03*
D12*
X101500000Y11000000D03*
%TD*%
D15*
%TO.C,LU1*%
X-109722000Y44445000D03*
X-107817000Y44445000D03*
X-116072000Y41270000D03*
X-116072000Y38730000D03*
X-113532000Y41270000D03*
X-113532000Y38730000D03*
%TD*%
D12*
%TO.C,LCH2*%
X-94500000Y34000000D03*
D13*
X-89000000Y34000000D03*
D12*
X-83500000Y34000000D03*
%TD*%
%TO.C,LCH7*%
X-83500000Y17000000D03*
D13*
X-89000000Y17000000D03*
D12*
X-94500000Y17000000D03*
%TD*%
%TO.C,RCH14*%
X83500000Y0D03*
D13*
X89000000Y0D03*
D12*
X94500000Y0D03*
%TD*%
%TO.C,RCH2*%
X58500000Y36000000D03*
D13*
X53000000Y36000000D03*
D12*
X47500000Y36000000D03*
%TD*%
%TO.C,LCH4*%
X-47500000Y36000000D03*
D13*
X-53000000Y36000000D03*
D12*
X-58500000Y36000000D03*
%TD*%
%TO.C,LCH11*%
X-101500000Y-6000000D03*
D13*
X-107000000Y-6000000D03*
D12*
X-112500000Y-6000000D03*
%TD*%
%TO.C,RCH9*%
X94500000Y17000000D03*
D13*
X89000000Y17000000D03*
D12*
X83500000Y17000000D03*
%TD*%
%TO.C,LCH13*%
X-76500000Y5000000D03*
D13*
X-71000000Y5000000D03*
D12*
X-65500000Y5000000D03*
%TD*%
D16*
%TO.C,J3*%
X-98000000Y-7250000D03*
D17*
X-98000000Y-4710000D03*
%TD*%
D12*
%TO.C,LCH3*%
X-76500000Y39000000D03*
D13*
X-71000000Y39000000D03*
D12*
X-65500000Y39000000D03*
%TD*%
%TO.C,RCH12*%
X47500000Y2000000D03*
D13*
X53000000Y2000000D03*
D12*
X58500000Y2000000D03*
%TD*%
D14*
%TO.C,REF\u002A\u002A*%
X21923023Y45750000D03*
%TD*%
D16*
%TO.C,J4*%
X98000000Y-3460000D03*
D17*
X98000000Y-6000000D03*
%TD*%
D12*
%TO.C,LCH8*%
X-65500000Y22000000D03*
D13*
X-71000000Y22000000D03*
D12*
X-76500000Y22000000D03*
%TD*%
D14*
%TO.C,REF\u002A\u002A*%
X93250000Y-12750000D03*
%TD*%
%TO.C,REF\u002A\u002A*%
X-93250000Y-12750000D03*
%TD*%
%TO.C,REF\u002A\u002A*%
X93250000Y45750000D03*
%TD*%
D12*
%TO.C,RCH7*%
X58500000Y19000000D03*
D13*
X53000000Y19000000D03*
D12*
X47500000Y19000000D03*
%TD*%
%TO.C,LCH15*%
X-29500000Y0D03*
D13*
X-35000000Y0D03*
D12*
X-40500000Y0D03*
%TD*%
%TO.C,LCH1*%
X-101500000Y28000000D03*
D13*
X-107000000Y28000000D03*
D12*
X-112500000Y28000000D03*
%TD*%
%TO.C,RCH13*%
X65500000Y5000000D03*
D13*
X71000000Y5000000D03*
D12*
X76500000Y5000000D03*
%TD*%
%TO.C,LCH6*%
X-101500000Y11000000D03*
D13*
X-107000000Y11000000D03*
D12*
X-112500000Y11000000D03*
%TD*%
%TO.C,RCH5*%
X112500000Y28000000D03*
D13*
X107000000Y28000000D03*
D12*
X101500000Y28000000D03*
%TD*%
%TO.C,LCH12*%
X-94500000Y0D03*
D13*
X-89000000Y0D03*
D12*
X-83500000Y0D03*
%TD*%
%TO.C,RCH8*%
X76500000Y22000000D03*
D13*
X71000000Y22000000D03*
D12*
X65500000Y22000000D03*
%TD*%
D15*
%TO.C,RU1*%
X109722000Y35555000D03*
X107817000Y35555000D03*
X116072000Y38730000D03*
X116072000Y41270000D03*
X113532000Y38730000D03*
X113532000Y41270000D03*
%TD*%
D14*
%TO.C,REF\u002A\u002A*%
X13909849Y-42013868D03*
%TD*%
D12*
%TO.C,LCH10*%
X-29500000Y17000000D03*
D13*
X-35000000Y17000000D03*
D12*
X-40500000Y17000000D03*
%TD*%
%TO.C,LCH14*%
X-58500000Y2000000D03*
D13*
X-53000000Y2000000D03*
D12*
X-47500000Y2000000D03*
%TD*%
%TO.C,RCH11*%
X40500000Y0D03*
D13*
X35000000Y0D03*
D12*
X29500000Y0D03*
%TD*%
%TO.C,RCH4*%
X94500000Y34000000D03*
D13*
X89000000Y34000000D03*
D12*
X83500000Y34000000D03*
%TD*%
%TO.C,LCH17*%
X-22612601Y-30507908D03*
D13*
X-17627908Y-32832308D03*
D12*
X-12643215Y-35156708D03*
%TD*%
%TO.C,RCH15*%
X112500000Y-6000000D03*
D13*
X107000000Y-6000000D03*
D12*
X101500000Y-6000000D03*
%TD*%
%TO.C,RCH17*%
X27266282Y-23924348D03*
D13*
X32250975Y-21599948D03*
D12*
X37235668Y-19275548D03*
%TD*%
D18*
%TO.C,PSW1*%
X-116450000Y17500000D03*
X-116450000Y14500000D03*
%TD*%
%TO.C,PSW2*%
X116450000Y14500000D03*
X116450000Y17500000D03*
%TD*%
D12*
%TO.C,LCH5*%
X-29500000Y34000000D03*
D13*
X-35000000Y34000000D03*
D12*
X-40500000Y34000000D03*
%TD*%
%TO.C,LCH16*%
X-27266282Y-23924348D03*
D13*
X-32250975Y-21599948D03*
D12*
X-37235668Y-19275548D03*
%TD*%
D14*
%TO.C,REF\u002A\u002A*%
X-93250000Y45750000D03*
%TD*%
D12*
%TO.C,RCH3*%
X76500000Y39000000D03*
D13*
X71000000Y39000000D03*
D12*
X65500000Y39000000D03*
%TD*%
D14*
%TO.C,REF\u002A\u002A*%
X-13909849Y-42013868D03*
%TD*%
%TO.C,REF\u002A\u002A*%
X-21923023Y45750000D03*
%TD*%
%TO.C,REF\u002A\u002A*%
X21923023Y-12750000D03*
%TD*%
D12*
%TO.C,RCH1*%
X40500000Y34000000D03*
D13*
X35000000Y34000000D03*
D12*
X29500000Y34000000D03*
%TD*%
%LPD*%
M02*
