M48
; DRILL file {KiCad 8.0.9} date 2025-09-11T00:28:19+1000
; FORMAT={-:-/ absolute / inch / decimal}
; #@! TF.CreationDate,2025-09-11T00:28:19+10:00
; #@! TF.GenerationSoftware,Kicad,Pcbnew,8.0.9
; #@! TF.FileFunction,Plated,1,2,PTH
FMAT,2
INCH
; #@! TA.AperFunction,Plated,PTH,ViaDrill
T1C0.0118
; #@! TA.AperFunction,Plated,PTH,ComponentDrill
T2C0.0394
; #@! TA.AperFunction,Plated,PTH,ComponentDrill
T3C0.0400
; #@! TA.AperFunction,Plated,PTH,ComponentDrill
T4C0.1181
; #@! TA.AperFunction,Plated,PTH,ComponentDrill
T5C0.1496
%
G90
G05
T1
X-4.5323Y1.811
X-4.5059Y1.4567
X-4.5059Y0.6201
X-4.4323Y1.811
X-4.4291Y0.0
X-4.4094Y1.3386
X-4.4094Y1.1811
X-4.3701Y1.7717
X-4.3504Y1.7913
X-4.2913Y1.1811
X-4.2717Y1.811
X-4.2323Y0.0
X-4.1732Y1.811
X-4.1339Y0.0
X-4.1323Y1.811
X-4.1323Y1.1614
X-4.0354Y0.0
X-4.0323Y1.1614
X-3.937Y0.0
X-3.9323Y1.0433
X-3.7362Y-0.2598
X-3.7146Y0.9626
X-3.6969Y-0.2953
X-3.6909Y0.939
X-3.6535Y-0.2598
X-3.622Y0.748
X-2.9528Y-0.1969
X-2.7559Y-0.1969
X-2.5591Y-0.1969
X-2.3622Y-0.1969
X-0.7874Y1.5748
X-0.7874Y1.378
X-0.7874Y1.1811
X0.7874Y1.5748
X0.7874Y1.378
X0.7874Y1.1811
X2.1654Y-0.1969
X2.3622Y-0.1969
X2.5591Y-0.1969
X2.7559Y-0.1969
X3.4646Y-0.5512
X3.5039Y-0.5512
X3.6535Y-0.2126
X3.6969Y-0.1752
X3.7382Y-0.2126
X4.1323Y1.1673
X4.1339Y1.7717
X4.2323Y1.7717
X4.2913Y1.1811
X4.3323Y1.1811
X4.3465Y1.3504
X4.3701Y1.374
X4.3701Y1.1811
X4.4154Y1.811
X4.4508Y1.811
X4.4685Y1.1811
X4.5059Y0.6398
X4.5059Y0.502
T2
X-3.8583Y-0.1854
X-3.8583Y-0.2854
X3.8583Y-0.1362
X3.8583Y-0.2362
T3
X-4.5698Y1.6248
X-4.5698Y1.5248
X-4.4698Y1.6248
X-4.4698Y1.5248
X-4.3198Y1.7498
X-4.2448Y1.7498
X4.2448Y1.3998
X4.3198Y1.3998
X4.4698Y1.6248
X4.4698Y1.5248
X4.5698Y1.6248
X4.5698Y1.5248
T4
X-4.4094Y0.9547
X-4.4094Y0.2854
X-4.4094Y-0.3839
X-4.2126Y0.8681
X-4.2126Y0.1988
X-4.2126Y-0.4705
X-3.7008Y0.5217
X-3.5039Y1.5728
X-3.5039Y0.435
X-3.5039Y0.2343
X-3.3071Y1.4862
X-3.3071Y0.1476
X-2.9921Y0.7185
X-2.7953Y1.7697
X-2.7953Y0.6319
X-2.7953Y0.4311
X-2.5984Y1.6831
X-2.5984Y0.3445
X-2.2835Y1.2697
X-2.2835Y0.6004
X-2.0866Y1.1831
X-2.0866Y0.5138
X-2.0866Y0.313
X-1.8898Y0.2264
X-1.5748Y1.1909
X-1.5748Y0.5217
X-1.5748Y-0.1476
X-1.5105Y-0.901
X-1.378Y1.1043
X-1.378Y0.435
X-1.378Y-0.2343
X-1.3687Y-1.0627
X-0.595Y-1.0803
X-0.4532Y-1.242
X0.595Y-1.0803
X0.81Y-1.0756
X1.1707Y-0.6381
X1.1811Y1.1909
X1.1811Y0.5217
X1.1811Y-0.1476
X1.378Y1.1043
X1.378Y0.435
X1.378Y-0.2343
X1.3857Y-0.6334
X1.8898Y1.2697
X1.8898Y0.6004
X2.0866Y1.1831
X2.0866Y0.5138
X2.0866Y0.313
X2.2835Y0.2264
X2.5984Y1.3878
X2.5984Y0.7185
X2.7953Y1.3012
X2.7953Y0.6319
X2.7953Y0.4311
X2.9921Y0.3445
X3.3071Y1.1909
X3.3071Y0.5217
X3.5039Y1.1043
X3.5039Y0.435
X3.5039Y0.2343
X3.7008Y0.1476
X4.0157Y0.9547
X4.0157Y0.2854
X4.0157Y-0.3839
X4.2126Y0.8681
X4.2126Y0.1988
X4.2126Y-0.4705
T5
X-3.6713Y1.8012
X-3.6713Y-0.502
X-0.8631Y1.8012
X-0.8631Y-0.502
X-0.5476Y-1.6541
X0.5476Y-1.6541
X0.8631Y1.8012
X0.8631Y-0.502
X3.6713Y1.8012
X3.6713Y-0.502
M30
