M48
; DRILL file {KiCad 8.0.9} date 2025-09-11T00:28:19+1000
; FORMAT={-:-/ absolute / inch / decimal}
; #@! TF.CreationDate,2025-09-11T00:28:19+10:00
; #@! TF.GenerationSoftware,Kicad,Pcbnew,8.0.9
; #@! TF.FileFunction,NonPlated,1,2,NPTH
FMAT,2
INCH
; #@! TA.AperFunction,NonPlated,NPTH,ComponentDrill
T1C0.0197
; #@! TA.AperFunction,NonPlated,NPTH,ComponentDrill
T2C0.0335
; #@! TA.AperFunction,NonPlated,NPTH,ComponentDrill
T3C0.0669
; #@! TA.AperFunction,NonPlated,NPTH,ComponentDrill
T4C0.1339
%
G90
G05
T1
X-0.7037Y1.6476
X-0.7037Y1.6185
X-0.7037Y1.5894
X-0.7037Y1.5602
X-0.7037Y1.5311
X-0.7037Y1.502
X-0.7037Y-0.3209
X-0.7037Y-0.35
X-0.7037Y-0.3791
X-0.7037Y-0.4083
X-0.7037Y-0.4374
X-0.7037Y-0.4665
X0.7037Y1.6476
X0.7037Y1.6185
X0.7037Y1.5894
X0.7037Y1.5602
X0.7037Y1.5311
X0.7037Y1.502
X0.7037Y-0.3209
X0.7037Y-0.35
X0.7037Y-0.3791
X0.7037Y-0.4083
X0.7037Y-0.4374
X0.7037Y-0.4665
T2
X-4.5846Y0.689
X-4.5846Y0.5709
X4.5846Y0.689
X4.5846Y0.5709
T3
X-4.4291Y1.1024
X-4.4291Y0.4331
X-4.4291Y-0.2362
X-3.9961Y1.1024
X-3.9961Y0.4331
X-3.9961Y-0.2362
X-3.7205Y1.3386
X-3.7205Y0.6693
X-3.7205Y0.0
X-3.2874Y1.3386
X-3.2874Y0.6693
X-3.2874Y0.0
X-3.0118Y1.5354
X-3.0118Y0.8661
X-3.0118Y0.1969
X-2.5787Y1.5354
X-2.5787Y0.8661
X-2.5787Y0.1969
X-2.3031Y1.4173
X-2.3031Y0.748
X-2.3031Y0.0787
X-1.8701Y1.4173
X-1.8701Y0.748
X-1.8701Y0.0787
X-1.5945Y1.3386
X-1.5945Y0.6693
X-1.5945Y0.0
X-1.466Y-0.7589
X-1.1614Y1.3386
X-1.1614Y0.6693
X-1.1614Y0.0
X-1.0735Y-0.9419
X-0.8903Y-1.2011
X-0.4978Y-1.3841
X0.4978Y-1.3841
X0.8903Y-1.2011
X1.0735Y-0.9419
X1.1614Y1.3386
X1.1614Y0.6693
X1.1614Y0.0
X1.466Y-0.7589
X1.5945Y1.3386
X1.5945Y0.6693
X1.5945Y0.0
X1.8701Y1.4173
X1.8701Y0.748
X1.8701Y0.0787
X2.3031Y1.4173
X2.3031Y0.748
X2.3031Y0.0787
X2.5787Y1.5354
X2.5787Y0.8661
X2.5787Y0.1969
X3.0118Y1.5354
X3.0118Y0.8661
X3.0118Y0.1969
X3.2874Y1.3386
X3.2874Y0.6693
X3.2874Y0.0
X3.7205Y1.3386
X3.7205Y0.6693
X3.7205Y0.0
X3.9961Y1.1024
X3.9961Y0.4331
X3.9961Y-0.2362
X4.4291Y1.1024
X4.4291Y0.4331
X4.4291Y-0.2362
T4
X-4.2126Y1.1024
X-4.2126Y0.4331
X-4.2126Y-0.2362
X-3.5039Y1.3386
X-3.5039Y0.6693
X-3.5039Y0.0
X-2.7953Y1.5354
X-2.7953Y0.8661
X-2.7953Y0.1969
X-2.0866Y1.4173
X-2.0866Y0.748
X-2.0866Y0.0787
X-1.378Y1.3386
X-1.378Y0.6693
X-1.378Y0.0
X-1.2697Y-0.8504
X-0.694Y-1.2926
X0.694Y-1.2926
X1.2697Y-0.8504
X1.378Y1.3386
X1.378Y0.6693
X1.378Y0.0
X2.0866Y1.4173
X2.0866Y0.748
X2.0866Y0.0787
X2.7953Y1.5354
X2.7953Y0.8661
X2.7953Y0.1969
X3.5039Y1.3386
X3.5039Y0.6693
X3.5039Y0.0
X4.2126Y1.1024
X4.2126Y0.4331
X4.2126Y-0.2362
M30
