%TF.GenerationSoftware,KiCad,Pcbnew,8.0.9*%
%TF.CreationDate,2025-09-11T00:28:19+10:00*%
%TF.ProjectId,forager-pcb,666f7261-6765-4722-9d70-63622e6b6963,rev?*%
%TF.SameCoordinates,Original*%
%TF.FileFunction,Paste,Bot*%
%TF.FilePolarity,Positive*%
%FSLAX46Y46*%
G04 Gerber Fmt 4.6, Leading zero omitted, Abs format (unit mm)*
G04 Created by KiCad (PCBNEW 8.0.9) date 2025-09-11 00:28:19*
%MOMM*%
%LPD*%
G01*
G04 APERTURE LIST*
G04 Aperture macros list*
%AMRoundRect*
0 Rectangle with rounded corners*
0 $1 Rounding radius*
0 $2 $3 $4 $5 $6 $7 $8 $9 X,Y pos of 4 corners*
0 Add a 4 corners polygon primitive as box body*
4,1,4,$2,$3,$4,$5,$6,$7,$8,$9,$2,$3,0*
0 Add four circle primitives for the rounded corners*
1,1,$1+$1,$2,$3*
1,1,$1+$1,$4,$5*
1,1,$1+$1,$6,$7*
1,1,$1+$1,$8,$9*
0 Add four rect primitives between the rounded corners*
20,1,$1+$1,$2,$3,$4,$5,0*
20,1,$1+$1,$4,$5,$6,$7,0*
20,1,$1+$1,$6,$7,$8,$9,0*
20,1,$1+$1,$8,$9,$2,$3,0*%
G04 Aperture macros list end*
%ADD10RoundRect,0.225000X-0.375000X0.225000X-0.375000X-0.225000X0.375000X-0.225000X0.375000X0.225000X0*%
%ADD11RoundRect,0.225000X0.375000X-0.225000X0.375000X0.225000X-0.375000X0.225000X-0.375000X-0.225000X0*%
%ADD12RoundRect,0.260000X-0.525695X-1.392649X1.404741X-0.492472X0.525695X1.392649X-1.404741X0.492472X0*%
%ADD13RoundRect,0.225000X0.225000X0.375000X-0.225000X0.375000X-0.225000X-0.375000X0.225000X-0.375000X0*%
%ADD14RoundRect,0.260000X1.065000X1.040000X-1.065000X1.040000X-1.065000X-1.040000X1.065000X-1.040000X0*%
%ADD15RoundRect,0.150000X-0.275000X0.150000X-0.275000X-0.150000X0.275000X-0.150000X0.275000X0.150000X0*%
%ADD16RoundRect,0.175000X-0.225000X0.175000X-0.225000X-0.175000X0.225000X-0.175000X0.225000X0.175000X0*%
%ADD17O,1.800000X2.750000*%
%ADD18RoundRect,0.260000X-1.065000X-1.040000X1.065000X-1.040000X1.065000X1.040000X-1.065000X1.040000X0*%
%ADD19RoundRect,0.150000X0.275000X-0.150000X0.275000X0.150000X-0.275000X0.150000X-0.275000X-0.150000X0*%
%ADD20RoundRect,0.175000X0.225000X-0.175000X0.225000X0.175000X-0.225000X0.175000X-0.225000X-0.175000X0*%
%ADD21RoundRect,0.260000X-1.404741X-0.492472X0.525695X-1.392649X1.404741X0.492472X-0.525695X1.392649X0*%
%ADD22RoundRect,0.090000X0.535000X-0.210000X0.535000X0.210000X-0.535000X0.210000X-0.535000X-0.210000X0*%
%ADD23RoundRect,0.105000X-0.245000X-0.445000X0.245000X-0.445000X0.245000X0.445000X-0.245000X0.445000X0*%
%ADD24RoundRect,0.090000X-0.535000X0.210000X-0.535000X-0.210000X0.535000X-0.210000X0.535000X0.210000X0*%
%ADD25RoundRect,0.105000X0.245000X0.445000X-0.245000X0.445000X-0.245000X-0.445000X0.245000X-0.445000X0*%
%ADD26RoundRect,0.260000X1.404741X0.492472X-0.525695X1.392649X-1.404741X-0.492472X0.525695X-1.392649X0*%
G04 APERTURE END LIST*
D10*
%TO.C,RD1*%
X65000000Y46650000D03*
X65000000Y43350000D03*
%TD*%
D11*
%TO.C,LD12*%
X-85000000Y-14650000D03*
X-85000000Y-11350000D03*
%TD*%
D12*
%TO.C,RCH16*%
X23515597Y-25949166D03*
X12172361Y-28811173D03*
%TD*%
D13*
%TO.C,RD17*%
X46650000Y-16500000D03*
X43350000Y-16500000D03*
%TD*%
%TO.C,LD17*%
X-20350000Y-6500000D03*
X-23650000Y-6500000D03*
%TD*%
D14*
%TO.C,RCH6*%
X26755000Y13250000D03*
X38245000Y11050000D03*
%TD*%
%TO.C,LCH9*%
X-61245000Y15250000D03*
X-49755000Y13050000D03*
%TD*%
D11*
%TO.C,RD13*%
X82000000Y-15150000D03*
X82000000Y-11850000D03*
%TD*%
D10*
%TO.C,RD5*%
X77400000Y46650000D03*
X77400000Y43350000D03*
%TD*%
%TO.C,RD8*%
X69000000Y28650000D03*
X69000000Y25350000D03*
%TD*%
%TO.C,RD2*%
X68400000Y46650000D03*
X68400000Y43350000D03*
%TD*%
D14*
%TO.C,RCH10*%
X98755000Y7250000D03*
X110245000Y5050000D03*
%TD*%
D13*
%TO.C,LD9*%
X-20350000Y14000000D03*
X-23650000Y14000000D03*
%TD*%
D11*
%TO.C,LD15*%
X-62000000Y-150000D03*
X-62000000Y3150000D03*
%TD*%
D10*
%TO.C,LD4*%
X-44000000Y47650000D03*
X-44000000Y44350000D03*
%TD*%
%TO.C,RD9*%
X72000000Y28650000D03*
X72000000Y25350000D03*
%TD*%
D15*
%TO.C,J1*%
X-93875000Y-5400000D03*
X-93875000Y-6600000D03*
D16*
X-90100000Y-4250000D03*
X-90100000Y-7750000D03*
%TD*%
D17*
%TO.C,LU1*%
X-115120000Y48095000D03*
X-112580000Y48095000D03*
X-110040000Y48095000D03*
X-107500000Y48095000D03*
X-104960000Y48095000D03*
X-102420000Y48095000D03*
X-99880000Y48095000D03*
X-115120000Y31905000D03*
X-112580000Y31905000D03*
X-110040000Y31905000D03*
X-107500000Y31905000D03*
X-104960000Y31905000D03*
X-102420000Y31905000D03*
X-99880000Y31905000D03*
%TD*%
D11*
%TO.C,RD12*%
X44500000Y-11650000D03*
X44500000Y-8350000D03*
%TD*%
D18*
%TO.C,LCH2*%
X-80755000Y37750000D03*
X-92245000Y39950000D03*
%TD*%
D14*
%TO.C,LCH7*%
X-97245000Y13250000D03*
X-85755000Y11050000D03*
%TD*%
D10*
%TO.C,RD6*%
X63000000Y28650000D03*
X63000000Y25350000D03*
%TD*%
D18*
%TO.C,RCH14*%
X97245000Y3750000D03*
X85755000Y5950000D03*
%TD*%
D14*
%TO.C,RCH2*%
X44755000Y32250000D03*
X56245000Y30050000D03*
%TD*%
%TO.C,LCH4*%
X-61245000Y32250000D03*
X-49755000Y30050000D03*
%TD*%
%TO.C,LCH11*%
X-115245000Y-9750000D03*
X-103755000Y-11950000D03*
%TD*%
D10*
%TO.C,RD7*%
X66000000Y28650000D03*
X66000000Y25350000D03*
%TD*%
D14*
%TO.C,RCH9*%
X80755000Y13250000D03*
X92245000Y11050000D03*
%TD*%
D18*
%TO.C,LCH13*%
X-62755000Y8750000D03*
X-74245000Y10950000D03*
%TD*%
%TO.C,LCH3*%
X-62755000Y42750000D03*
X-74245000Y44950000D03*
%TD*%
%TO.C,RCH12*%
X61245000Y5750000D03*
X49755000Y7950000D03*
%TD*%
D14*
%TO.C,LCH8*%
X-79245000Y18250000D03*
X-67755000Y16050000D03*
%TD*%
D11*
%TO.C,LD13*%
X-68000000Y-150000D03*
X-68000000Y3150000D03*
%TD*%
D14*
%TO.C,RCH7*%
X44755000Y15250000D03*
X56245000Y13050000D03*
%TD*%
%TO.C,LCH15*%
X-43245000Y-3750000D03*
X-31755000Y-5950000D03*
%TD*%
%TO.C,LCH1*%
X-115245000Y24250000D03*
X-103755000Y22050000D03*
%TD*%
D18*
%TO.C,RCH13*%
X79245000Y8750000D03*
X67755000Y10950000D03*
%TD*%
D13*
%TO.C,LD7*%
X-20350000Y20000000D03*
X-23650000Y20000000D03*
%TD*%
D14*
%TO.C,LCH6*%
X-115245000Y7250000D03*
X-103755000Y5050000D03*
%TD*%
D11*
%TO.C,RD15*%
X88000000Y-15150000D03*
X88000000Y-11850000D03*
%TD*%
D14*
%TO.C,RCH5*%
X98755000Y24250000D03*
X110245000Y22050000D03*
%TD*%
D19*
%TO.C,J2*%
X93875000Y-6600000D03*
X93875000Y-5400000D03*
D20*
X90100000Y-7750000D03*
X90100000Y-4250000D03*
%TD*%
D18*
%TO.C,LCH12*%
X-80755000Y3750000D03*
X-92245000Y5950000D03*
%TD*%
D14*
%TO.C,RCH8*%
X62755000Y18250000D03*
X74245000Y16050000D03*
%TD*%
D17*
%TO.C,RU1*%
X115120000Y31905000D03*
X112580000Y31905000D03*
X110040000Y31905000D03*
X107500000Y31905000D03*
X104960000Y31905000D03*
X102420000Y31905000D03*
X99880000Y31905000D03*
X115120000Y48095000D03*
X112580000Y48095000D03*
X110040000Y48095000D03*
X107500000Y48095000D03*
X104960000Y48095000D03*
X102420000Y48095000D03*
X99880000Y48095000D03*
%TD*%
D10*
%TO.C,LD5*%
X-41000000Y47650000D03*
X-41000000Y44350000D03*
%TD*%
D14*
%TO.C,LCH10*%
X-43245000Y13250000D03*
X-31755000Y11050000D03*
%TD*%
D13*
%TO.C,RD16*%
X46650000Y-19500000D03*
X43350000Y-19500000D03*
%TD*%
D18*
%TO.C,LCH14*%
X-44755000Y5750000D03*
X-56245000Y7950000D03*
%TD*%
D10*
%TO.C,LD1*%
X-47000000Y47650000D03*
X-47000000Y44350000D03*
%TD*%
D14*
%TO.C,RCH11*%
X26755000Y-3750000D03*
X38245000Y-5950000D03*
%TD*%
D10*
%TO.C,LD2*%
X-50000000Y47650000D03*
X-50000000Y44350000D03*
%TD*%
D11*
%TO.C,LD11*%
X-88000000Y-14650000D03*
X-88000000Y-11350000D03*
%TD*%
D14*
%TO.C,RCH4*%
X80755000Y30250000D03*
X92245000Y28050000D03*
%TD*%
D11*
%TO.C,LD14*%
X-65000000Y-150000D03*
X-65000000Y3150000D03*
%TD*%
D13*
%TO.C,LD16*%
X-20350000Y-3000000D03*
X-23650000Y-3000000D03*
%TD*%
D21*
%TO.C,LCH17*%
X-8570582Y-32918141D03*
X-18054298Y-26068380D03*
%TD*%
D13*
%TO.C,LD8*%
X-20350000Y17000000D03*
X-23650000Y17000000D03*
%TD*%
D14*
%TO.C,RCH15*%
X98755000Y-9750000D03*
X110245000Y-11950000D03*
%TD*%
D11*
%TO.C,RD11*%
X41500000Y-11650000D03*
X41500000Y-8350000D03*
%TD*%
D10*
%TO.C,LD3*%
X-53000000Y47650000D03*
X-53000000Y44350000D03*
%TD*%
D12*
%TO.C,RCH17*%
X38138664Y-14716806D03*
X26795428Y-17578813D03*
%TD*%
D22*
%TO.C,PSW1*%
X-114450000Y13750000D03*
X-114450000Y16750001D03*
X-114450000Y18250000D03*
D23*
X-115300000Y19700000D03*
X-117600000Y19700000D03*
X-115300000Y12300000D03*
X-117600000Y12300000D03*
%TD*%
D24*
%TO.C,PSW2*%
X114450000Y18250000D03*
X114450000Y15249999D03*
X114450000Y13750000D03*
D25*
X115300000Y12300000D03*
X117600000Y12300000D03*
X115300000Y19700000D03*
X117600000Y19700000D03*
%TD*%
D14*
%TO.C,LCH5*%
X-43245000Y30250000D03*
X-31755000Y28050000D03*
%TD*%
D13*
%TO.C,LD6*%
X-20350000Y23000000D03*
X-23650000Y23000000D03*
%TD*%
D26*
%TO.C,LCH16*%
X-41308301Y-21514115D03*
X-31824585Y-28363876D03*
%TD*%
D14*
%TO.C,RCH3*%
X62755000Y35250000D03*
X74245000Y33050000D03*
%TD*%
D10*
%TO.C,RD3*%
X71400000Y46650000D03*
X71400000Y43350000D03*
%TD*%
%TO.C,RD10*%
X75000000Y28650000D03*
X75000000Y25350000D03*
%TD*%
D11*
%TO.C,RD14*%
X85000000Y-15150000D03*
X85000000Y-11850000D03*
%TD*%
D13*
%TO.C,LD10*%
X-20350000Y11000000D03*
X-23650000Y11000000D03*
%TD*%
D10*
%TO.C,RD4*%
X74400000Y46650000D03*
X74400000Y43350000D03*
%TD*%
D14*
%TO.C,RCH1*%
X26755000Y30250000D03*
X38245000Y28050000D03*
%TD*%
M02*
