%TF.GenerationSoftware,KiCad,Pcbnew,8.0.9*%
%TF.CreationDate,2025-09-11T00:21:42+10:00*%
%TF.ProjectId,forager-pcb,666f7261-6765-4722-9d70-63622e6b6963,rev?*%
%TF.SameCoordinates,Original*%
%TF.FileFunction,Legend,Bot*%
%TF.FilePolarity,Positive*%
%FSLAX46Y46*%
G04 Gerber Fmt 4.6, Leading zero omitted, Abs format (unit mm)*
G04 Created by KiCad (PCBNEW 8.0.9) date 2025-09-11 00:21:42*
%MOMM*%
%LPD*%
G01*
G04 APERTURE LIST*
G04 Aperture macros list*
%AMRoundRect*
0 Rectangle with rounded corners*
0 $1 Rounding radius*
0 $2 $3 $4 $5 $6 $7 $8 $9 X,Y pos of 4 corners*
0 Add a 4 corners polygon primitive as box body*
4,1,4,$2,$3,$4,$5,$6,$7,$8,$9,$2,$3,0*
0 Add four circle primitives for the rounded corners*
1,1,$1+$1,$2,$3*
1,1,$1+$1,$4,$5*
1,1,$1+$1,$6,$7*
1,1,$1+$1,$8,$9*
0 Add four rect primitives between the rounded corners*
20,1,$1+$1,$2,$3,$4,$5,0*
20,1,$1+$1,$4,$5,$6,$7,0*
20,1,$1+$1,$6,$7,$8,$9,0*
20,1,$1+$1,$8,$9,$2,$3,0*%
G04 Aperture macros list end*
%ADD10C,0.100000*%
%ADD11C,0.150000*%
%ADD12C,0.300000*%
%ADD13C,0.120000*%
%ADD14C,0.500000*%
%ADD15RoundRect,0.225000X-0.375000X0.225000X-0.375000X-0.225000X0.375000X-0.225000X0.375000X0.225000X0*%
%ADD16RoundRect,0.225000X0.375000X-0.225000X0.375000X0.225000X-0.375000X0.225000X-0.375000X-0.225000X0*%
%ADD17C,1.700000*%
%ADD18C,3.400000*%
%ADD19C,3.300000*%
%ADD20RoundRect,0.260000X-0.525695X-1.392649X1.404741X-0.492472X0.525695X1.392649X-1.404741X0.492472X0*%
%ADD21RoundRect,0.225000X0.225000X0.375000X-0.225000X0.375000X-0.225000X-0.375000X0.225000X-0.375000X0*%
%ADD22C,6.200000*%
%ADD23RoundRect,0.260000X1.065000X1.040000X-1.065000X1.040000X-1.065000X-1.040000X1.065000X-1.040000X0*%
%ADD24RoundRect,0.150000X-0.275000X0.150000X-0.275000X-0.150000X0.275000X-0.150000X0.275000X0.150000X0*%
%ADD25RoundRect,0.175000X-0.225000X0.175000X-0.225000X-0.175000X0.225000X-0.175000X0.225000X0.175000X0*%
%ADD26O,1.800000X2.750000*%
%ADD27C,1.397000*%
%ADD28RoundRect,0.260000X-1.065000X-1.040000X1.065000X-1.040000X1.065000X1.040000X-1.065000X1.040000X0*%
%ADD29R,1.700000X1.700000*%
%ADD30O,1.700000X1.700000*%
%ADD31RoundRect,0.150000X0.275000X-0.150000X0.275000X0.150000X-0.275000X0.150000X-0.275000X-0.150000X0*%
%ADD32RoundRect,0.175000X0.225000X-0.175000X0.225000X0.175000X-0.225000X0.175000X-0.225000X-0.175000X0*%
%ADD33RoundRect,0.260000X-1.404741X-0.492472X0.525695X-1.392649X1.404741X0.492472X-0.525695X1.392649X0*%
%ADD34C,0.850000*%
%ADD35RoundRect,0.090000X0.535000X-0.210000X0.535000X0.210000X-0.535000X0.210000X-0.535000X-0.210000X0*%
%ADD36RoundRect,0.105000X-0.245000X-0.445000X0.245000X-0.445000X0.245000X0.445000X-0.245000X0.445000X0*%
%ADD37RoundRect,0.090000X-0.535000X0.210000X-0.535000X-0.210000X0.535000X-0.210000X0.535000X0.210000X0*%
%ADD38RoundRect,0.105000X0.245000X0.445000X-0.245000X0.445000X-0.245000X-0.445000X0.245000X-0.445000X0*%
%ADD39RoundRect,0.260000X1.404741X0.492472X-0.525695X1.392649X-1.404741X-0.492472X0.525695X-1.392649X0*%
G04 APERTURE END LIST*
D10*
X46000000Y-1000000D02*
X80000000Y-1000000D01*
X80000000Y-15000000D01*
X46000000Y-15000000D01*
X46000000Y-1000000D01*
X-80000000Y-1000000D02*
X-46000000Y-1000000D01*
X-46000000Y-15000000D01*
X-80000000Y-15000000D01*
X-80000000Y-1000000D01*
D11*
X-82158458Y-5581376D02*
X-82158458Y-4381376D01*
X-82158458Y-4381376D02*
X-82615601Y-4381376D01*
X-82615601Y-4381376D02*
X-82729886Y-4438519D01*
X-82729886Y-4438519D02*
X-82787029Y-4495662D01*
X-82787029Y-4495662D02*
X-82844172Y-4609948D01*
X-82844172Y-4609948D02*
X-82844172Y-4781376D01*
X-82844172Y-4781376D02*
X-82787029Y-4895662D01*
X-82787029Y-4895662D02*
X-82729886Y-4952805D01*
X-82729886Y-4952805D02*
X-82615601Y-5009948D01*
X-82615601Y-5009948D02*
X-82158458Y-5009948D01*
X-83529886Y-5581376D02*
X-83415601Y-5524234D01*
X-83415601Y-5524234D02*
X-83358458Y-5467091D01*
X-83358458Y-5467091D02*
X-83301315Y-5352805D01*
X-83301315Y-5352805D02*
X-83301315Y-5009948D01*
X-83301315Y-5009948D02*
X-83358458Y-4895662D01*
X-83358458Y-4895662D02*
X-83415601Y-4838519D01*
X-83415601Y-4838519D02*
X-83529886Y-4781376D01*
X-83529886Y-4781376D02*
X-83701315Y-4781376D01*
X-83701315Y-4781376D02*
X-83815601Y-4838519D01*
X-83815601Y-4838519D02*
X-83872744Y-4895662D01*
X-83872744Y-4895662D02*
X-83929886Y-5009948D01*
X-83929886Y-5009948D02*
X-83929886Y-5352805D01*
X-83929886Y-5352805D02*
X-83872744Y-5467091D01*
X-83872744Y-5467091D02*
X-83815601Y-5524234D01*
X-83815601Y-5524234D02*
X-83701315Y-5581376D01*
X-83701315Y-5581376D02*
X-83529886Y-5581376D01*
X-84387029Y-5524234D02*
X-84501315Y-5581376D01*
X-84501315Y-5581376D02*
X-84729886Y-5581376D01*
X-84729886Y-5581376D02*
X-84844172Y-5524234D01*
X-84844172Y-5524234D02*
X-84901315Y-5409948D01*
X-84901315Y-5409948D02*
X-84901315Y-5352805D01*
X-84901315Y-5352805D02*
X-84844172Y-5238519D01*
X-84844172Y-5238519D02*
X-84729886Y-5181376D01*
X-84729886Y-5181376D02*
X-84558458Y-5181376D01*
X-84558458Y-5181376D02*
X-84444172Y-5124234D01*
X-84444172Y-5124234D02*
X-84387029Y-5009948D01*
X-84387029Y-5009948D02*
X-84387029Y-4952805D01*
X-84387029Y-4952805D02*
X-84444172Y-4838519D01*
X-84444172Y-4838519D02*
X-84558458Y-4781376D01*
X-84558458Y-4781376D02*
X-84729886Y-4781376D01*
X-84729886Y-4781376D02*
X-84844172Y-4838519D01*
X-85415601Y-5581376D02*
X-85415601Y-4781376D01*
X-85415601Y-4381376D02*
X-85358458Y-4438519D01*
X-85358458Y-4438519D02*
X-85415601Y-4495662D01*
X-85415601Y-4495662D02*
X-85472744Y-4438519D01*
X-85472744Y-4438519D02*
X-85415601Y-4381376D01*
X-85415601Y-4381376D02*
X-85415601Y-4495662D01*
X-85815601Y-4781376D02*
X-86272744Y-4781376D01*
X-85987030Y-4381376D02*
X-85987030Y-5409948D01*
X-85987030Y-5409948D02*
X-86044173Y-5524234D01*
X-86044173Y-5524234D02*
X-86158458Y-5581376D01*
X-86158458Y-5581376D02*
X-86272744Y-5581376D01*
X-86672744Y-5581376D02*
X-86672744Y-4781376D01*
X-86672744Y-4381376D02*
X-86615601Y-4438519D01*
X-86615601Y-4438519D02*
X-86672744Y-4495662D01*
X-86672744Y-4495662D02*
X-86729887Y-4438519D01*
X-86729887Y-4438519D02*
X-86672744Y-4381376D01*
X-86672744Y-4381376D02*
X-86672744Y-4495662D01*
X-87129887Y-4781376D02*
X-87415601Y-5581376D01*
X-87415601Y-5581376D02*
X-87701316Y-4781376D01*
X-88615602Y-5524234D02*
X-88501316Y-5581376D01*
X-88501316Y-5581376D02*
X-88272745Y-5581376D01*
X-88272745Y-5581376D02*
X-88158459Y-5524234D01*
X-88158459Y-5524234D02*
X-88101316Y-5409948D01*
X-88101316Y-5409948D02*
X-88101316Y-4952805D01*
X-88101316Y-4952805D02*
X-88158459Y-4838519D01*
X-88158459Y-4838519D02*
X-88272745Y-4781376D01*
X-88272745Y-4781376D02*
X-88501316Y-4781376D01*
X-88501316Y-4781376D02*
X-88615602Y-4838519D01*
X-88615602Y-4838519D02*
X-88672745Y-4952805D01*
X-88672745Y-4952805D02*
X-88672745Y-5067091D01*
X-88672745Y-5067091D02*
X-88101316Y-5181376D01*
X-81529888Y-7513309D02*
X-81529888Y-6313309D01*
X-81529888Y-6313309D02*
X-82215602Y-7513309D01*
X-82215602Y-7513309D02*
X-82215602Y-6313309D01*
X-83244174Y-7456167D02*
X-83129888Y-7513309D01*
X-83129888Y-7513309D02*
X-82901317Y-7513309D01*
X-82901317Y-7513309D02*
X-82787031Y-7456167D01*
X-82787031Y-7456167D02*
X-82729888Y-7341881D01*
X-82729888Y-7341881D02*
X-82729888Y-6884738D01*
X-82729888Y-6884738D02*
X-82787031Y-6770452D01*
X-82787031Y-6770452D02*
X-82901317Y-6713309D01*
X-82901317Y-6713309D02*
X-83129888Y-6713309D01*
X-83129888Y-6713309D02*
X-83244174Y-6770452D01*
X-83244174Y-6770452D02*
X-83301317Y-6884738D01*
X-83301317Y-6884738D02*
X-83301317Y-6999024D01*
X-83301317Y-6999024D02*
X-82729888Y-7113309D01*
X-84329888Y-6713309D02*
X-84329888Y-7684738D01*
X-84329888Y-7684738D02*
X-84272745Y-7799024D01*
X-84272745Y-7799024D02*
X-84215602Y-7856167D01*
X-84215602Y-7856167D02*
X-84101316Y-7913309D01*
X-84101316Y-7913309D02*
X-83929888Y-7913309D01*
X-83929888Y-7913309D02*
X-83815602Y-7856167D01*
X-84329888Y-7456167D02*
X-84215602Y-7513309D01*
X-84215602Y-7513309D02*
X-83987030Y-7513309D01*
X-83987030Y-7513309D02*
X-83872745Y-7456167D01*
X-83872745Y-7456167D02*
X-83815602Y-7399024D01*
X-83815602Y-7399024D02*
X-83758459Y-7284738D01*
X-83758459Y-7284738D02*
X-83758459Y-6941881D01*
X-83758459Y-6941881D02*
X-83815602Y-6827595D01*
X-83815602Y-6827595D02*
X-83872745Y-6770452D01*
X-83872745Y-6770452D02*
X-83987030Y-6713309D01*
X-83987030Y-6713309D02*
X-84215602Y-6713309D01*
X-84215602Y-6713309D02*
X-84329888Y-6770452D01*
X-85415602Y-7513309D02*
X-85415602Y-6884738D01*
X-85415602Y-6884738D02*
X-85358459Y-6770452D01*
X-85358459Y-6770452D02*
X-85244173Y-6713309D01*
X-85244173Y-6713309D02*
X-85015602Y-6713309D01*
X-85015602Y-6713309D02*
X-84901316Y-6770452D01*
X-85415602Y-7456167D02*
X-85301316Y-7513309D01*
X-85301316Y-7513309D02*
X-85015602Y-7513309D01*
X-85015602Y-7513309D02*
X-84901316Y-7456167D01*
X-84901316Y-7456167D02*
X-84844173Y-7341881D01*
X-84844173Y-7341881D02*
X-84844173Y-7227595D01*
X-84844173Y-7227595D02*
X-84901316Y-7113309D01*
X-84901316Y-7113309D02*
X-85015602Y-7056167D01*
X-85015602Y-7056167D02*
X-85301316Y-7056167D01*
X-85301316Y-7056167D02*
X-85415602Y-6999024D01*
X-85815601Y-6713309D02*
X-86272744Y-6713309D01*
X-85987030Y-6313309D02*
X-85987030Y-7341881D01*
X-85987030Y-7341881D02*
X-86044173Y-7456167D01*
X-86044173Y-7456167D02*
X-86158458Y-7513309D01*
X-86158458Y-7513309D02*
X-86272744Y-7513309D01*
X-86672744Y-7513309D02*
X-86672744Y-6713309D01*
X-86672744Y-6313309D02*
X-86615601Y-6370452D01*
X-86615601Y-6370452D02*
X-86672744Y-6427595D01*
X-86672744Y-6427595D02*
X-86729887Y-6370452D01*
X-86729887Y-6370452D02*
X-86672744Y-6313309D01*
X-86672744Y-6313309D02*
X-86672744Y-6427595D01*
X-87129887Y-6713309D02*
X-87415601Y-7513309D01*
X-87415601Y-7513309D02*
X-87701316Y-6713309D01*
X-88615602Y-7456167D02*
X-88501316Y-7513309D01*
X-88501316Y-7513309D02*
X-88272745Y-7513309D01*
X-88272745Y-7513309D02*
X-88158459Y-7456167D01*
X-88158459Y-7456167D02*
X-88101316Y-7341881D01*
X-88101316Y-7341881D02*
X-88101316Y-6884738D01*
X-88101316Y-6884738D02*
X-88158459Y-6770452D01*
X-88158459Y-6770452D02*
X-88272745Y-6713309D01*
X-88272745Y-6713309D02*
X-88501316Y-6713309D01*
X-88501316Y-6713309D02*
X-88615602Y-6770452D01*
X-88615602Y-6770452D02*
X-88672745Y-6884738D01*
X-88672745Y-6884738D02*
X-88672745Y-6999024D01*
X-88672745Y-6999024D02*
X-88101316Y-7113309D01*
D12*
G36*
X34972085Y47854680D02*
G01*
X33940404Y47854680D01*
X33940404Y47596760D01*
X34827371Y47596760D01*
X34648586Y47772248D01*
X34648586Y47086414D01*
X34827371Y47221603D01*
X33975574Y47221603D01*
X33975574Y46963682D01*
X34827371Y46963682D01*
X34648586Y47098871D01*
X34648586Y46377500D01*
X34972085Y46377500D01*
X34972085Y47854680D01*
G37*
G36*
X33308311Y47521907D02*
G01*
X33386369Y47508374D01*
X33459070Y47485820D01*
X33526412Y47454244D01*
X33572849Y47425041D01*
X33634776Y47373218D01*
X33687429Y47311774D01*
X33726447Y47249080D01*
X33730774Y47240727D01*
X33760450Y47170911D01*
X33781333Y47095784D01*
X33793423Y47015344D01*
X33796789Y46940601D01*
X33796720Y46929630D01*
X33792392Y46855193D01*
X33779203Y46775188D01*
X33757221Y46700587D01*
X33726447Y46631390D01*
X33702919Y46591315D01*
X33653357Y46526664D01*
X33594521Y46471634D01*
X33526412Y46426226D01*
X33518287Y46421786D01*
X33450275Y46391337D01*
X33376905Y46369911D01*
X33298177Y46357506D01*
X33224894Y46354052D01*
X33142279Y46358563D01*
X33064793Y46372096D01*
X32992436Y46394650D01*
X32925208Y46426226D01*
X32878746Y46455429D01*
X32816683Y46507252D01*
X32763779Y46568696D01*
X32724441Y46631390D01*
X32720023Y46639744D01*
X32689729Y46709617D01*
X32668411Y46784893D01*
X32656069Y46865573D01*
X32652633Y46940601D01*
X32976133Y46940601D01*
X32976699Y46910599D01*
X32985200Y46828202D01*
X33003902Y46757224D01*
X33040613Y46685978D01*
X33081143Y46642057D01*
X33148437Y46605856D01*
X33223429Y46595120D01*
X33279322Y46600753D01*
X33350883Y46630325D01*
X33407710Y46685245D01*
X33426602Y46715243D01*
X33454781Y46786241D01*
X33469190Y46862680D01*
X33473289Y46940601D01*
X33472713Y46970470D01*
X33465540Y47043949D01*
X33445046Y47123175D01*
X33407710Y47194125D01*
X33366471Y47238223D01*
X33298594Y47274571D01*
X33223429Y47285350D01*
X33167627Y47279649D01*
X33096546Y47249716D01*
X33040613Y47194125D01*
X33022037Y47163979D01*
X32994331Y47093168D01*
X32980163Y47017446D01*
X32976133Y46940601D01*
X32652633Y46940601D01*
X32652703Y46951528D01*
X32657121Y47025689D01*
X32670585Y47105465D01*
X32693025Y47179929D01*
X32724441Y47249080D01*
X32748179Y47289155D01*
X32798031Y47353806D01*
X32857041Y47408836D01*
X32925208Y47454244D01*
X32992436Y47485820D01*
X33064793Y47508374D01*
X33142279Y47521907D01*
X33224894Y47526418D01*
X33308311Y47521907D01*
G37*
G36*
X32441241Y47502971D02*
G01*
X32130198Y47502971D01*
X32130198Y47177639D01*
X32147417Y47183867D01*
X32131434Y47262452D01*
X32107213Y47336847D01*
X32072552Y47402106D01*
X32052162Y47427866D01*
X31993292Y47473633D01*
X31919996Y47498276D01*
X31863118Y47502971D01*
X31761269Y47502971D01*
X31761269Y47245050D01*
X31862752Y47245050D01*
X31938969Y47239657D01*
X32007832Y47220504D01*
X32068938Y47177407D01*
X32090997Y47145765D01*
X32113327Y47073974D01*
X32117741Y47011310D01*
X32117741Y46377500D01*
X32441241Y46377500D01*
X32441241Y47502971D01*
G37*
G36*
X31184502Y47530553D02*
G01*
X31259274Y47521107D01*
X31338858Y47501134D01*
X31410202Y47471519D01*
X31473307Y47432262D01*
X31497678Y47412616D01*
X31553789Y47352166D01*
X31592292Y47289655D01*
X31620908Y47218168D01*
X31639636Y47137705D01*
X31324929Y47137705D01*
X31306092Y47193454D01*
X31258983Y47252744D01*
X31195497Y47283331D01*
X31121963Y47291945D01*
X31044544Y47279789D01*
X30980547Y47236624D01*
X30966509Y47218136D01*
X30938672Y47146893D01*
X30931820Y47072859D01*
X31292323Y47002517D01*
X31348544Y46989766D01*
X31428526Y46964899D01*
X31503835Y46930355D01*
X31569294Y46883815D01*
X31585269Y46868067D01*
X31627172Y46807388D01*
X31651616Y46734115D01*
X31658687Y46657402D01*
X31658266Y46640004D01*
X31643540Y46560012D01*
X31607777Y46491684D01*
X31550976Y46435019D01*
X31492724Y46399596D01*
X31416680Y46371843D01*
X31339744Y46357927D01*
X31265212Y46354052D01*
X31215642Y46355680D01*
X31142060Y46365057D01*
X31067710Y46385568D01*
X30995568Y46420730D01*
X30936076Y46466948D01*
X30887661Y46528284D01*
X30878599Y46549718D01*
X30860256Y46484367D01*
X30814950Y46424028D01*
X30771586Y46396223D01*
X30701957Y46373305D01*
X30626272Y46366509D01*
X30560693Y46370905D01*
X30509768Y46378965D01*
X30509768Y46589991D01*
X30542741Y46589991D01*
X30593300Y46606844D01*
X30608320Y46670591D01*
X30608320Y46822266D01*
X30931820Y46822266D01*
X30937991Y46756699D01*
X30964060Y46684146D01*
X30994432Y46641412D01*
X31054919Y46595486D01*
X31113818Y46573660D01*
X31190107Y46565078D01*
X31228042Y46567483D01*
X31298917Y46595486D01*
X31314785Y46612431D01*
X31335187Y46684146D01*
X31333399Y46707065D01*
X31297818Y46773173D01*
X31254171Y46801112D01*
X31183879Y46822266D01*
X30931820Y46876488D01*
X30931820Y46822266D01*
X30608320Y46822266D01*
X30608320Y47058204D01*
X30611451Y47128379D01*
X30623472Y47205315D01*
X30648892Y47285047D01*
X30686584Y47353979D01*
X30736548Y47412112D01*
X30744684Y47419550D01*
X30808447Y47465006D01*
X30884131Y47498891D01*
X30958492Y47518726D01*
X31041611Y47530061D01*
X31117567Y47533012D01*
X31184502Y47530553D01*
G37*
G36*
X29948581Y47555832D02*
G01*
X30021537Y47546413D01*
X30097092Y47522693D01*
X30166852Y47485019D01*
X30186423Y47471137D01*
X30245613Y47417843D01*
X30295502Y47353743D01*
X30332448Y47286816D01*
X30355289Y47229657D01*
X30376412Y47151169D01*
X30387403Y47076683D01*
X30391066Y46997754D01*
X30388209Y46926861D01*
X30377945Y46850434D01*
X30360216Y46778907D01*
X30331349Y46704296D01*
X30319737Y46681044D01*
X30279915Y46617468D01*
X30226899Y46557705D01*
X30164653Y46509391D01*
X30144318Y46497213D01*
X30072533Y46465270D01*
X29994595Y46446637D01*
X29919189Y46441247D01*
X29865998Y46444292D01*
X29791448Y46460281D01*
X29723184Y46489973D01*
X29697036Y46506075D01*
X29639349Y46555056D01*
X29593858Y46619300D01*
X29593858Y46494370D01*
X29595970Y46451411D01*
X29612869Y46378939D01*
X29653942Y46317049D01*
X29678216Y46297751D01*
X29749482Y46268249D01*
X29826865Y46260263D01*
X29895627Y46265402D01*
X29968282Y46291404D01*
X29997232Y46316068D01*
X30034228Y46382629D01*
X30357361Y46359548D01*
X30345769Y46324742D01*
X30311816Y46255603D01*
X30265770Y46195050D01*
X30225906Y46158564D01*
X30161575Y46117580D01*
X30091380Y46087705D01*
X30055862Y46076623D01*
X29977795Y46060094D01*
X29899520Y46051641D01*
X29823568Y46049237D01*
X29792283Y46049694D01*
X29717613Y46054830D01*
X29634691Y46068525D01*
X29559060Y46090438D01*
X29490719Y46120569D01*
X29420201Y46166107D01*
X29369278Y46213531D01*
X29323184Y46278301D01*
X29291430Y46353239D01*
X29275626Y46425565D01*
X29270358Y46505361D01*
X29270358Y46998487D01*
X29593858Y46998487D01*
X29594115Y46980306D01*
X29602130Y46901506D01*
X29623167Y46828128D01*
X29653120Y46771707D01*
X29705233Y46718951D01*
X29755151Y46693907D01*
X29829430Y46682315D01*
X29874788Y46686382D01*
X29947955Y46715516D01*
X30002720Y46767311D01*
X30010573Y46778175D01*
X30044706Y46846468D01*
X30062437Y46921101D01*
X30067567Y46998487D01*
X30067318Y47016347D01*
X30060034Y47091051D01*
X30040113Y47163179D01*
X30003819Y47229296D01*
X29973686Y47262843D01*
X29905817Y47303285D01*
X29829430Y47315392D01*
X29774463Y47309164D01*
X29704133Y47277657D01*
X29659096Y47234873D01*
X29622068Y47168480D01*
X29615456Y47150196D01*
X29598514Y47074086D01*
X29593858Y46998487D01*
X29270358Y46998487D01*
X29270358Y47530081D01*
X29585431Y47530081D01*
X29585431Y47348365D01*
X29611008Y47394893D01*
X29658733Y47454381D01*
X29717689Y47501505D01*
X29768607Y47528070D01*
X29844882Y47549966D01*
X29923219Y47556460D01*
X29948581Y47555832D01*
G37*
G36*
X28599133Y47528456D02*
G01*
X28676665Y47514786D01*
X28748976Y47492003D01*
X28816066Y47460106D01*
X28862215Y47430752D01*
X28923663Y47378656D01*
X28975778Y47316880D01*
X29014270Y47253843D01*
X29018552Y47245444D01*
X29047919Y47175262D01*
X29068584Y47099768D01*
X29080548Y47018962D01*
X29083879Y46943899D01*
X29083811Y46932881D01*
X29079528Y46858124D01*
X29066476Y46777752D01*
X29044724Y46702785D01*
X29014270Y46633222D01*
X28991050Y46592918D01*
X28941861Y46527855D01*
X28883167Y46472413D01*
X28814967Y46426592D01*
X28747396Y46394856D01*
X28674741Y46372187D01*
X28597004Y46358586D01*
X28514182Y46354052D01*
X28463956Y46355586D01*
X28380743Y46365654D01*
X28303491Y46385119D01*
X28232200Y46413980D01*
X28166869Y46452238D01*
X28140991Y46471389D01*
X28087170Y46521310D01*
X28036910Y46587336D01*
X28002774Y46652960D01*
X27977825Y46725912D01*
X28293265Y46725912D01*
X28317813Y46677657D01*
X28372399Y46627360D01*
X28434223Y46603180D01*
X28509786Y46595120D01*
X28558390Y46598451D01*
X28630698Y46619660D01*
X28693334Y46664729D01*
X28731505Y46720543D01*
X28753832Y46791769D01*
X28760379Y46869893D01*
X27963170Y46869893D01*
X27963170Y46932175D01*
X27963435Y46955021D01*
X27968532Y47032008D01*
X27972608Y47057472D01*
X28286670Y47057472D01*
X28762577Y47057472D01*
X28757300Y47090752D01*
X28731691Y47166230D01*
X28684908Y47229663D01*
X28663686Y47247605D01*
X28594083Y47281666D01*
X28516014Y47291945D01*
X28484510Y47290478D01*
X28412060Y47272934D01*
X28349318Y47231861D01*
X28324908Y47202980D01*
X28295480Y47135576D01*
X28286670Y47057472D01*
X27972608Y47057472D01*
X27980115Y47104366D01*
X28001295Y47181394D01*
X28030948Y47252377D01*
X28053436Y47293296D01*
X28101082Y47359107D01*
X28157944Y47414832D01*
X28224022Y47460472D01*
X28289418Y47492209D01*
X28359943Y47514877D01*
X28435597Y47528479D01*
X28516380Y47533012D01*
X28599133Y47528456D01*
G37*
G36*
X27754709Y47502971D02*
G01*
X27443666Y47502971D01*
X27443666Y47177639D01*
X27460885Y47183867D01*
X27444902Y47262452D01*
X27420682Y47336847D01*
X27386020Y47402106D01*
X27365630Y47427866D01*
X27306760Y47473633D01*
X27233464Y47498276D01*
X27176586Y47502971D01*
X27074737Y47502971D01*
X27074737Y47245050D01*
X27176220Y47245050D01*
X27252437Y47239657D01*
X27321300Y47220504D01*
X27382406Y47177407D01*
X27404465Y47145765D01*
X27426796Y47073974D01*
X27431210Y47011310D01*
X27431210Y46377500D01*
X27754709Y46377500D01*
X27754709Y47502971D01*
G37*
G36*
X-27164131Y47854680D02*
G01*
X-28195812Y47854680D01*
X-28195812Y47596760D01*
X-27308845Y47596760D01*
X-27487630Y47772248D01*
X-27487630Y47086414D01*
X-27308845Y47221603D01*
X-28160642Y47221603D01*
X-28160642Y46963682D01*
X-27308845Y46963682D01*
X-27487630Y47098871D01*
X-27487630Y46377500D01*
X-27164131Y46377500D01*
X-27164131Y47854680D01*
G37*
G36*
X-28827905Y47521907D02*
G01*
X-28749847Y47508374D01*
X-28677146Y47485820D01*
X-28609804Y47454244D01*
X-28563367Y47425041D01*
X-28501440Y47373218D01*
X-28448787Y47311774D01*
X-28409769Y47249080D01*
X-28405442Y47240727D01*
X-28375766Y47170911D01*
X-28354883Y47095784D01*
X-28342793Y47015344D01*
X-28339427Y46940601D01*
X-28339496Y46929630D01*
X-28343824Y46855193D01*
X-28357013Y46775188D01*
X-28378995Y46700587D01*
X-28409769Y46631390D01*
X-28433297Y46591315D01*
X-28482859Y46526664D01*
X-28541695Y46471634D01*
X-28609804Y46426226D01*
X-28617929Y46421786D01*
X-28685941Y46391337D01*
X-28759311Y46369911D01*
X-28838039Y46357506D01*
X-28911322Y46354052D01*
X-28993937Y46358563D01*
X-29071423Y46372096D01*
X-29143780Y46394650D01*
X-29211008Y46426226D01*
X-29257470Y46455429D01*
X-29319533Y46507252D01*
X-29372437Y46568696D01*
X-29411775Y46631390D01*
X-29416193Y46639744D01*
X-29446487Y46709617D01*
X-29467805Y46784893D01*
X-29480147Y46865573D01*
X-29483583Y46940601D01*
X-29160083Y46940601D01*
X-29159517Y46910599D01*
X-29151016Y46828202D01*
X-29132314Y46757224D01*
X-29095603Y46685978D01*
X-29055073Y46642057D01*
X-28987779Y46605856D01*
X-28912787Y46595120D01*
X-28856894Y46600753D01*
X-28785333Y46630325D01*
X-28728506Y46685245D01*
X-28709614Y46715243D01*
X-28681435Y46786241D01*
X-28667026Y46862680D01*
X-28662927Y46940601D01*
X-28663503Y46970470D01*
X-28670676Y47043949D01*
X-28691170Y47123175D01*
X-28728506Y47194125D01*
X-28769745Y47238223D01*
X-28837622Y47274571D01*
X-28912787Y47285350D01*
X-28968589Y47279649D01*
X-29039670Y47249716D01*
X-29095603Y47194125D01*
X-29114179Y47163979D01*
X-29141885Y47093168D01*
X-29156053Y47017446D01*
X-29160083Y46940601D01*
X-29483583Y46940601D01*
X-29483513Y46951528D01*
X-29479095Y47025689D01*
X-29465631Y47105465D01*
X-29443191Y47179929D01*
X-29411775Y47249080D01*
X-29388037Y47289155D01*
X-29338185Y47353806D01*
X-29279175Y47408836D01*
X-29211008Y47454244D01*
X-29143780Y47485820D01*
X-29071423Y47508374D01*
X-28993937Y47521907D01*
X-28911322Y47526418D01*
X-28827905Y47521907D01*
G37*
G36*
X-29694975Y47502971D02*
G01*
X-30006018Y47502971D01*
X-30006018Y47177639D01*
X-29988799Y47183867D01*
X-30004782Y47262452D01*
X-30029003Y47336847D01*
X-30063664Y47402106D01*
X-30084054Y47427866D01*
X-30142924Y47473633D01*
X-30216220Y47498276D01*
X-30273098Y47502971D01*
X-30374947Y47502971D01*
X-30374947Y47245050D01*
X-30273464Y47245050D01*
X-30197247Y47239657D01*
X-30128384Y47220504D01*
X-30067278Y47177407D01*
X-30045219Y47145765D01*
X-30022889Y47073974D01*
X-30018475Y47011310D01*
X-30018475Y46377500D01*
X-29694975Y46377500D01*
X-29694975Y47502971D01*
G37*
G36*
X-30951714Y47530553D02*
G01*
X-30876942Y47521107D01*
X-30797358Y47501134D01*
X-30726014Y47471519D01*
X-30662909Y47432262D01*
X-30638538Y47412616D01*
X-30582427Y47352166D01*
X-30543924Y47289655D01*
X-30515308Y47218168D01*
X-30496580Y47137705D01*
X-30811287Y47137705D01*
X-30830124Y47193454D01*
X-30877233Y47252744D01*
X-30940719Y47283331D01*
X-31014253Y47291945D01*
X-31091672Y47279789D01*
X-31155669Y47236624D01*
X-31169707Y47218136D01*
X-31197544Y47146893D01*
X-31204396Y47072859D01*
X-30843893Y47002517D01*
X-30787672Y46989766D01*
X-30707690Y46964899D01*
X-30632381Y46930355D01*
X-30566922Y46883815D01*
X-30550947Y46868067D01*
X-30509044Y46807388D01*
X-30484600Y46734115D01*
X-30477529Y46657402D01*
X-30477950Y46640004D01*
X-30492676Y46560012D01*
X-30528439Y46491684D01*
X-30585240Y46435019D01*
X-30643492Y46399596D01*
X-30719536Y46371843D01*
X-30796472Y46357927D01*
X-30871004Y46354052D01*
X-30920574Y46355680D01*
X-30994156Y46365057D01*
X-31068506Y46385568D01*
X-31140648Y46420730D01*
X-31200140Y46466948D01*
X-31248555Y46528284D01*
X-31257616Y46549718D01*
X-31275960Y46484367D01*
X-31321266Y46424028D01*
X-31364630Y46396223D01*
X-31434259Y46373305D01*
X-31509944Y46366509D01*
X-31575523Y46370905D01*
X-31626448Y46378965D01*
X-31626448Y46589991D01*
X-31593475Y46589991D01*
X-31542916Y46606844D01*
X-31527896Y46670591D01*
X-31527896Y46822266D01*
X-31204396Y46822266D01*
X-31198225Y46756699D01*
X-31172156Y46684146D01*
X-31141784Y46641412D01*
X-31081297Y46595486D01*
X-31022398Y46573660D01*
X-30946109Y46565078D01*
X-30908174Y46567483D01*
X-30837299Y46595486D01*
X-30821431Y46612431D01*
X-30801029Y46684146D01*
X-30802817Y46707065D01*
X-30838398Y46773173D01*
X-30882045Y46801112D01*
X-30952337Y46822266D01*
X-31204396Y46876488D01*
X-31204396Y46822266D01*
X-31527896Y46822266D01*
X-31527896Y47058204D01*
X-31524765Y47128379D01*
X-31512744Y47205315D01*
X-31487324Y47285047D01*
X-31449632Y47353979D01*
X-31399668Y47412112D01*
X-31391532Y47419550D01*
X-31327769Y47465006D01*
X-31252085Y47498891D01*
X-31177724Y47518726D01*
X-31094605Y47530061D01*
X-31018649Y47533012D01*
X-30951714Y47530553D01*
G37*
G36*
X-32187635Y47555832D02*
G01*
X-32114679Y47546413D01*
X-32039124Y47522693D01*
X-31969364Y47485019D01*
X-31949793Y47471137D01*
X-31890603Y47417843D01*
X-31840714Y47353743D01*
X-31803768Y47286816D01*
X-31780927Y47229657D01*
X-31759804Y47151169D01*
X-31748813Y47076683D01*
X-31745150Y46997754D01*
X-31748007Y46926861D01*
X-31758271Y46850434D01*
X-31776000Y46778907D01*
X-31804867Y46704296D01*
X-31816479Y46681044D01*
X-31856301Y46617468D01*
X-31909317Y46557705D01*
X-31971563Y46509391D01*
X-31991898Y46497213D01*
X-32063683Y46465270D01*
X-32141621Y46446637D01*
X-32217027Y46441247D01*
X-32270218Y46444292D01*
X-32344768Y46460281D01*
X-32413032Y46489973D01*
X-32439180Y46506075D01*
X-32496867Y46555056D01*
X-32542358Y46619300D01*
X-32542358Y46494370D01*
X-32540246Y46451411D01*
X-32523347Y46378939D01*
X-32482274Y46317049D01*
X-32458000Y46297751D01*
X-32386734Y46268249D01*
X-32309351Y46260263D01*
X-32240589Y46265402D01*
X-32167934Y46291404D01*
X-32138984Y46316068D01*
X-32101988Y46382629D01*
X-31778855Y46359548D01*
X-31790447Y46324742D01*
X-31824400Y46255603D01*
X-31870446Y46195050D01*
X-31910310Y46158564D01*
X-31974641Y46117580D01*
X-32044836Y46087705D01*
X-32080354Y46076623D01*
X-32158421Y46060094D01*
X-32236696Y46051641D01*
X-32312648Y46049237D01*
X-32343933Y46049694D01*
X-32418603Y46054830D01*
X-32501525Y46068525D01*
X-32577156Y46090438D01*
X-32645497Y46120569D01*
X-32716015Y46166107D01*
X-32766938Y46213531D01*
X-32813032Y46278301D01*
X-32844786Y46353239D01*
X-32860590Y46425565D01*
X-32865858Y46505361D01*
X-32865858Y46998487D01*
X-32542358Y46998487D01*
X-32542101Y46980306D01*
X-32534086Y46901506D01*
X-32513049Y46828128D01*
X-32483096Y46771707D01*
X-32430983Y46718951D01*
X-32381065Y46693907D01*
X-32306786Y46682315D01*
X-32261428Y46686382D01*
X-32188261Y46715516D01*
X-32133496Y46767311D01*
X-32125643Y46778175D01*
X-32091510Y46846468D01*
X-32073779Y46921101D01*
X-32068649Y46998487D01*
X-32068898Y47016347D01*
X-32076182Y47091051D01*
X-32096103Y47163179D01*
X-32132397Y47229296D01*
X-32162530Y47262843D01*
X-32230399Y47303285D01*
X-32306786Y47315392D01*
X-32361753Y47309164D01*
X-32432083Y47277657D01*
X-32477120Y47234873D01*
X-32514148Y47168480D01*
X-32520760Y47150196D01*
X-32537702Y47074086D01*
X-32542358Y46998487D01*
X-32865858Y46998487D01*
X-32865858Y47530081D01*
X-32550785Y47530081D01*
X-32550785Y47348365D01*
X-32525208Y47394893D01*
X-32477483Y47454381D01*
X-32418527Y47501505D01*
X-32367609Y47528070D01*
X-32291334Y47549966D01*
X-32212997Y47556460D01*
X-32187635Y47555832D01*
G37*
G36*
X-33537083Y47528456D02*
G01*
X-33459551Y47514786D01*
X-33387240Y47492003D01*
X-33320150Y47460106D01*
X-33274001Y47430752D01*
X-33212553Y47378656D01*
X-33160438Y47316880D01*
X-33121946Y47253843D01*
X-33117664Y47245444D01*
X-33088297Y47175262D01*
X-33067632Y47099768D01*
X-33055668Y47018962D01*
X-33052337Y46943899D01*
X-33052405Y46932881D01*
X-33056688Y46858124D01*
X-33069740Y46777752D01*
X-33091492Y46702785D01*
X-33121946Y46633222D01*
X-33145166Y46592918D01*
X-33194355Y46527855D01*
X-33253049Y46472413D01*
X-33321249Y46426592D01*
X-33388820Y46394856D01*
X-33461475Y46372187D01*
X-33539212Y46358586D01*
X-33622034Y46354052D01*
X-33672260Y46355586D01*
X-33755473Y46365654D01*
X-33832725Y46385119D01*
X-33904016Y46413980D01*
X-33969347Y46452238D01*
X-33995225Y46471389D01*
X-34049046Y46521310D01*
X-34099306Y46587336D01*
X-34133442Y46652960D01*
X-34158391Y46725912D01*
X-33842951Y46725912D01*
X-33818403Y46677657D01*
X-33763817Y46627360D01*
X-33701993Y46603180D01*
X-33626430Y46595120D01*
X-33577826Y46598451D01*
X-33505518Y46619660D01*
X-33442882Y46664729D01*
X-33404711Y46720543D01*
X-33382384Y46791769D01*
X-33375837Y46869893D01*
X-34173046Y46869893D01*
X-34173046Y46932175D01*
X-34172781Y46955021D01*
X-34167684Y47032008D01*
X-34163608Y47057472D01*
X-33849546Y47057472D01*
X-33373639Y47057472D01*
X-33378916Y47090752D01*
X-33404525Y47166230D01*
X-33451308Y47229663D01*
X-33472530Y47247605D01*
X-33542133Y47281666D01*
X-33620202Y47291945D01*
X-33651706Y47290478D01*
X-33724156Y47272934D01*
X-33786898Y47231861D01*
X-33811308Y47202980D01*
X-33840736Y47135576D01*
X-33849546Y47057472D01*
X-34163608Y47057472D01*
X-34156101Y47104366D01*
X-34134921Y47181394D01*
X-34105268Y47252377D01*
X-34082780Y47293296D01*
X-34035134Y47359107D01*
X-33978272Y47414832D01*
X-33912194Y47460472D01*
X-33846798Y47492209D01*
X-33776273Y47514877D01*
X-33700619Y47528479D01*
X-33619836Y47533012D01*
X-33537083Y47528456D01*
G37*
G36*
X-34381507Y47502971D02*
G01*
X-34692550Y47502971D01*
X-34692550Y47177639D01*
X-34675331Y47183867D01*
X-34691314Y47262452D01*
X-34715534Y47336847D01*
X-34750196Y47402106D01*
X-34770586Y47427866D01*
X-34829456Y47473633D01*
X-34902752Y47498276D01*
X-34959630Y47502971D01*
X-35061479Y47502971D01*
X-35061479Y47245050D01*
X-34959996Y47245050D01*
X-34883779Y47239657D01*
X-34814916Y47220504D01*
X-34753810Y47177407D01*
X-34731751Y47145765D01*
X-34709420Y47073974D01*
X-34705006Y47011310D01*
X-34705006Y46377500D01*
X-34381507Y46377500D01*
X-34381507Y47502971D01*
G37*
G36*
X-27434508Y41370905D02*
G01*
X-27359617Y41376527D01*
X-27288777Y41395962D01*
X-27220959Y41437607D01*
X-27216154Y41441980D01*
X-27170164Y41506414D01*
X-27148054Y41577111D01*
X-27140757Y41653953D01*
X-27140683Y41663264D01*
X-27140683Y42854680D01*
X-27464183Y42854680D01*
X-27464183Y41703564D01*
X-27485799Y41632489D01*
X-27549912Y41611973D01*
X-27621353Y41611973D01*
X-27621353Y41370905D01*
X-27434508Y41370905D01*
G37*
G36*
X-28227732Y42528456D02*
G01*
X-28150200Y42514786D01*
X-28077889Y42492003D01*
X-28010799Y42460106D01*
X-27964650Y42430752D01*
X-27903202Y42378656D01*
X-27851087Y42316880D01*
X-27812595Y42253843D01*
X-27808313Y42245444D01*
X-27778946Y42175262D01*
X-27758281Y42099768D01*
X-27746317Y42018962D01*
X-27742986Y41943899D01*
X-27743054Y41932881D01*
X-27747337Y41858124D01*
X-27760389Y41777752D01*
X-27782141Y41702785D01*
X-27812595Y41633222D01*
X-27835815Y41592918D01*
X-27885004Y41527855D01*
X-27943698Y41472413D01*
X-28011898Y41426592D01*
X-28079469Y41394856D01*
X-28152124Y41372187D01*
X-28229861Y41358586D01*
X-28312683Y41354052D01*
X-28362909Y41355586D01*
X-28446122Y41365654D01*
X-28523374Y41385119D01*
X-28594665Y41413980D01*
X-28659996Y41452238D01*
X-28685874Y41471389D01*
X-28739695Y41521310D01*
X-28789955Y41587336D01*
X-28824091Y41652960D01*
X-28849040Y41725912D01*
X-28533600Y41725912D01*
X-28509052Y41677657D01*
X-28454466Y41627360D01*
X-28392642Y41603180D01*
X-28317079Y41595120D01*
X-28268475Y41598451D01*
X-28196167Y41619660D01*
X-28133531Y41664729D01*
X-28095360Y41720543D01*
X-28073033Y41791769D01*
X-28066486Y41869893D01*
X-28863695Y41869893D01*
X-28863695Y41932175D01*
X-28863430Y41955021D01*
X-28858333Y42032008D01*
X-28854257Y42057472D01*
X-28540195Y42057472D01*
X-28064288Y42057472D01*
X-28069565Y42090752D01*
X-28095174Y42166230D01*
X-28141957Y42229663D01*
X-28163179Y42247605D01*
X-28232782Y42281666D01*
X-28310851Y42291945D01*
X-28342355Y42290478D01*
X-28414805Y42272934D01*
X-28477547Y42231861D01*
X-28501957Y42202980D01*
X-28531385Y42135576D01*
X-28540195Y42057472D01*
X-28854257Y42057472D01*
X-28846750Y42104366D01*
X-28825570Y42181394D01*
X-28795917Y42252377D01*
X-28773429Y42293296D01*
X-28725783Y42359107D01*
X-28668921Y42414832D01*
X-28602843Y42460472D01*
X-28537447Y42492209D01*
X-28466922Y42514877D01*
X-28391268Y42528479D01*
X-28310484Y42533012D01*
X-28227732Y42528456D01*
G37*
G36*
X-29167411Y42503337D02*
G01*
X-29173158Y42583525D01*
X-29193363Y42661803D01*
X-29228117Y42727446D01*
X-29259368Y42764188D01*
X-29318748Y42807932D01*
X-29393024Y42837360D01*
X-29471552Y42851499D01*
X-29538171Y42854680D01*
X-29777041Y42854680D01*
X-29777041Y42613613D01*
X-29610711Y42613613D01*
X-29537919Y42597336D01*
X-29519120Y42582105D01*
X-29492260Y42511310D01*
X-29490910Y42483553D01*
X-29490910Y41359181D01*
X-29167411Y41359181D01*
X-29167411Y42503337D01*
G37*
G36*
X-29003279Y42439223D02*
G01*
X-29765317Y42439223D01*
X-29765317Y42198155D01*
X-29003279Y42198155D01*
X-29003279Y42439223D01*
G37*
G36*
X-30445655Y41377500D02*
G01*
X-30364414Y41382514D01*
X-30286812Y41400144D01*
X-30217718Y41434619D01*
X-30189933Y41457733D01*
X-30146850Y41517375D01*
X-30121718Y41586898D01*
X-30110229Y41661298D01*
X-30108234Y41713822D01*
X-30108234Y42760891D01*
X-30431734Y42760891D01*
X-30431734Y41757419D01*
X-30441935Y41684222D01*
X-30463974Y41648609D01*
X-30533285Y41620445D01*
X-30565457Y41618567D01*
X-30717864Y41618567D01*
X-30717864Y41377500D01*
X-30445655Y41377500D01*
G37*
G36*
X-29932379Y42502971D02*
G01*
X-30717864Y42502971D01*
X-30717864Y42261903D01*
X-29932379Y42261903D01*
X-29932379Y42502971D01*
G37*
G36*
X32420725Y45002971D02*
G01*
X32109681Y45002971D01*
X32109681Y44677639D01*
X32126900Y44683867D01*
X32110918Y44762452D01*
X32086697Y44836847D01*
X32052036Y44902106D01*
X32031646Y44927866D01*
X31972776Y44973633D01*
X31899480Y44998276D01*
X31842602Y45002971D01*
X31740753Y45002971D01*
X31740753Y44745050D01*
X31842235Y44745050D01*
X31918453Y44739657D01*
X31987316Y44720504D01*
X32048422Y44677407D01*
X32070480Y44645765D01*
X32092811Y44573974D01*
X32097225Y44511310D01*
X32097225Y43877500D01*
X32420725Y43877500D01*
X32420725Y45002971D01*
G37*
G36*
X31187130Y45028456D02*
G01*
X31264662Y45014786D01*
X31336973Y44992003D01*
X31404064Y44960106D01*
X31450213Y44930752D01*
X31511660Y44878656D01*
X31563776Y44816880D01*
X31602267Y44753843D01*
X31606549Y44745444D01*
X31635916Y44675262D01*
X31656581Y44599768D01*
X31668545Y44518962D01*
X31671876Y44443899D01*
X31671808Y44432881D01*
X31667525Y44358124D01*
X31654474Y44277752D01*
X31632721Y44202785D01*
X31602267Y44133222D01*
X31579047Y44092918D01*
X31529858Y44027855D01*
X31471164Y43972413D01*
X31402965Y43926592D01*
X31335393Y43894856D01*
X31262739Y43872187D01*
X31185001Y43858586D01*
X31102180Y43854052D01*
X31051953Y43855586D01*
X30968741Y43865654D01*
X30891489Y43885119D01*
X30820197Y43913980D01*
X30754866Y43952238D01*
X30728988Y43971389D01*
X30675168Y44021310D01*
X30624907Y44087336D01*
X30590772Y44152960D01*
X30565822Y44225912D01*
X30881262Y44225912D01*
X30905811Y44177657D01*
X30960397Y44127360D01*
X31022221Y44103180D01*
X31097783Y44095120D01*
X31146387Y44098451D01*
X31218695Y44119660D01*
X31281332Y44164729D01*
X31319503Y44220543D01*
X31341829Y44291769D01*
X31348376Y44369893D01*
X30551168Y44369893D01*
X30551168Y44432175D01*
X30551433Y44455021D01*
X30556529Y44532008D01*
X30560605Y44557472D01*
X30874667Y44557472D01*
X31350575Y44557472D01*
X31345297Y44590752D01*
X31319688Y44666230D01*
X31272905Y44729663D01*
X31251684Y44747605D01*
X31182080Y44781666D01*
X31104011Y44791945D01*
X31072507Y44790478D01*
X31000057Y44772934D01*
X30937316Y44731861D01*
X30912905Y44702980D01*
X30883477Y44635576D01*
X30874667Y44557472D01*
X30560605Y44557472D01*
X30568112Y44604366D01*
X30589293Y44681394D01*
X30618945Y44752377D01*
X30641433Y44793296D01*
X30689080Y44859107D01*
X30745942Y44914832D01*
X30812019Y44960472D01*
X30877415Y44992209D01*
X30947940Y45014877D01*
X31023594Y45028479D01*
X31104378Y45033012D01*
X31187130Y45028456D01*
G37*
G36*
X30480459Y45002971D02*
G01*
X30150732Y45002971D01*
X29884018Y44194405D01*
X29617305Y45002971D01*
X29289776Y45002971D01*
X29701203Y43877500D01*
X30068666Y43877500D01*
X30480459Y45002971D01*
G37*
G36*
X29283181Y44205762D02*
G01*
X28931471Y44205762D01*
X28931471Y43877500D01*
X29283181Y43877500D01*
X29283181Y44205762D01*
G37*
G36*
X28254430Y43877500D02*
G01*
X28251976Y43960176D01*
X28244613Y44037664D01*
X28232341Y44109962D01*
X28212305Y44186234D01*
X28203139Y44213089D01*
X28173326Y44281668D01*
X28135545Y44346354D01*
X28089795Y44407148D01*
X28036077Y44464049D01*
X27973246Y44518912D01*
X27910154Y44566466D01*
X27839488Y44613600D01*
X27772890Y44653665D01*
X27725400Y44680204D01*
X27656532Y44717296D01*
X27591105Y44756110D01*
X27559437Y44777290D01*
X27503240Y44825405D01*
X27477738Y44858623D01*
X27454039Y44929789D01*
X27452459Y44957541D01*
X27466106Y45032280D01*
X27507047Y45091631D01*
X27573176Y45130648D01*
X27649972Y45143451D01*
X27662385Y45143654D01*
X27740696Y45134484D01*
X27810649Y45103852D01*
X27841904Y45078442D01*
X27887383Y45015600D01*
X27914980Y44940098D01*
X27924702Y44888299D01*
X28252232Y44888299D01*
X28242389Y44961267D01*
X28222125Y45041982D01*
X28192638Y45115226D01*
X28153930Y45181000D01*
X28105999Y45239303D01*
X28078575Y45265654D01*
X28017614Y45311846D01*
X27949312Y45348481D01*
X27873667Y45375559D01*
X27790682Y45393080D01*
X27715919Y45400380D01*
X27668614Y45401575D01*
X27586823Y45398003D01*
X27511077Y45387287D01*
X27433089Y45366692D01*
X27377720Y45344422D01*
X27307546Y45304337D01*
X27248606Y45255521D01*
X27200900Y45197977D01*
X27192706Y45185420D01*
X27159090Y45118508D01*
X27137924Y45045085D01*
X27129208Y44965151D01*
X27128959Y44948382D01*
X27133418Y44872528D01*
X27148453Y44799456D01*
X27166695Y44751278D01*
X27204494Y44688088D01*
X27257168Y44629494D01*
X27286496Y44604000D01*
X27350960Y44556722D01*
X27415296Y44515529D01*
X27481241Y44477015D01*
X27517305Y44457088D01*
X27589213Y44416866D01*
X27652986Y44377627D01*
X27715909Y44333984D01*
X27773998Y44286418D01*
X27779622Y44281233D01*
X27830835Y44226812D01*
X27869277Y44159858D01*
X27874510Y44135420D01*
X27128959Y44135420D01*
X27128959Y43877500D01*
X28254430Y43877500D01*
G37*
G36*
X31775924Y42502971D02*
G01*
X31464880Y42502971D01*
X31464880Y42177639D01*
X31482099Y42183867D01*
X31466117Y42262452D01*
X31441896Y42336847D01*
X31407235Y42402106D01*
X31386845Y42427866D01*
X31327975Y42473633D01*
X31254679Y42498276D01*
X31197801Y42502971D01*
X31095952Y42502971D01*
X31095952Y42245050D01*
X31197434Y42245050D01*
X31273652Y42239657D01*
X31342515Y42220504D01*
X31403621Y42177407D01*
X31425679Y42145765D01*
X31448010Y42073974D01*
X31452424Y42011310D01*
X31452424Y41377500D01*
X31775924Y41377500D01*
X31775924Y42502971D01*
G37*
G36*
X30912769Y42502971D02*
G01*
X30589270Y42502971D01*
X30589270Y41377500D01*
X30912769Y41377500D01*
X30912769Y42502971D01*
G37*
G36*
X30912769Y42884722D02*
G01*
X30589270Y42884722D01*
X30589270Y42643654D01*
X30912769Y42643654D01*
X30912769Y42884722D01*
G37*
G36*
X29960305Y42555832D02*
G01*
X30033260Y42546413D01*
X30108816Y42522693D01*
X30178575Y42485019D01*
X30198147Y42471137D01*
X30257337Y42417843D01*
X30307226Y42353743D01*
X30344172Y42286816D01*
X30367013Y42229657D01*
X30388136Y42151169D01*
X30399127Y42076683D01*
X30402790Y41997754D01*
X30399933Y41926861D01*
X30389669Y41850434D01*
X30371940Y41778907D01*
X30343073Y41704296D01*
X30331461Y41681044D01*
X30291639Y41617468D01*
X30238623Y41557705D01*
X30176377Y41509391D01*
X30156042Y41497213D01*
X30084257Y41465270D01*
X30006319Y41446637D01*
X29930913Y41441247D01*
X29877722Y41444292D01*
X29803172Y41460281D01*
X29734908Y41489973D01*
X29708760Y41506075D01*
X29651072Y41555056D01*
X29605582Y41619300D01*
X29605582Y41494370D01*
X29607694Y41451411D01*
X29624593Y41378939D01*
X29665665Y41317049D01*
X29689940Y41297751D01*
X29761206Y41268249D01*
X29838589Y41260263D01*
X29907351Y41265402D01*
X29980006Y41291404D01*
X30008956Y41316068D01*
X30045952Y41382629D01*
X30369085Y41359548D01*
X30357493Y41324742D01*
X30323540Y41255603D01*
X30277494Y41195050D01*
X30237630Y41158564D01*
X30173299Y41117580D01*
X30103104Y41087705D01*
X30067586Y41076623D01*
X29989519Y41060094D01*
X29911244Y41051641D01*
X29835292Y41049237D01*
X29804007Y41049694D01*
X29729337Y41054830D01*
X29646415Y41068525D01*
X29570784Y41090438D01*
X29502443Y41120569D01*
X29431925Y41166107D01*
X29381002Y41213531D01*
X29334908Y41278301D01*
X29303154Y41353239D01*
X29287350Y41425565D01*
X29282082Y41505361D01*
X29282082Y41998487D01*
X29605582Y41998487D01*
X29605839Y41980306D01*
X29613853Y41901506D01*
X29634891Y41828128D01*
X29664844Y41771707D01*
X29716956Y41718951D01*
X29766875Y41693907D01*
X29841154Y41682315D01*
X29886512Y41686382D01*
X29959678Y41715516D01*
X30014444Y41767311D01*
X30022297Y41778175D01*
X30056430Y41846468D01*
X30074161Y41921101D01*
X30079291Y41998487D01*
X30079042Y42016347D01*
X30071758Y42091051D01*
X30051837Y42163179D01*
X30015543Y42229296D01*
X29985410Y42262843D01*
X29917541Y42303285D01*
X29841154Y42315392D01*
X29786187Y42309164D01*
X29715857Y42277657D01*
X29670820Y42234873D01*
X29633792Y42168480D01*
X29627180Y42150196D01*
X29610237Y42074086D01*
X29605582Y41998487D01*
X29282082Y41998487D01*
X29282082Y42530081D01*
X29597155Y42530081D01*
X29597155Y42348365D01*
X29622732Y42394893D01*
X29670457Y42454381D01*
X29729413Y42501505D01*
X29780331Y42528070D01*
X29856606Y42549966D01*
X29934943Y42556460D01*
X29960305Y42555832D01*
G37*
G36*
X29016468Y42854680D02*
G01*
X28692968Y42854680D01*
X28692968Y42221603D01*
X28736199Y42221603D01*
X28718364Y42293872D01*
X28684747Y42361936D01*
X28630991Y42421930D01*
X28619329Y42431163D01*
X28555294Y42469030D01*
X28483173Y42492873D01*
X28402967Y42502690D01*
X28385955Y42502971D01*
X28310469Y42497448D01*
X28234030Y42477613D01*
X28168079Y42443352D01*
X28112615Y42394666D01*
X28106419Y42387566D01*
X28063463Y42325307D01*
X28032780Y42253568D01*
X28014370Y42172350D01*
X28008329Y42093507D01*
X28008233Y42081652D01*
X28008233Y41365776D01*
X28331733Y41365776D01*
X28331733Y42011310D01*
X28336279Y42090961D01*
X28353372Y42165114D01*
X28370201Y42199987D01*
X28428664Y42250052D01*
X28495132Y42261903D01*
X28569884Y42249070D01*
X28631612Y42206840D01*
X28641677Y42194858D01*
X28676739Y42125295D01*
X28691165Y42047809D01*
X28692968Y42002883D01*
X28692968Y41365776D01*
X29016468Y41365776D01*
X29016468Y42854680D01*
G37*
G36*
X27342550Y41377500D02*
G01*
X27423791Y41382514D01*
X27501393Y41400144D01*
X27570487Y41434619D01*
X27598272Y41457733D01*
X27641355Y41517375D01*
X27666488Y41586898D01*
X27677976Y41661298D01*
X27679971Y41713822D01*
X27679971Y42760891D01*
X27356471Y42760891D01*
X27356471Y41757419D01*
X27346270Y41684222D01*
X27324231Y41648609D01*
X27254920Y41620445D01*
X27222748Y41618567D01*
X27070341Y41618567D01*
X27070341Y41377500D01*
X27342550Y41377500D01*
G37*
G36*
X27855826Y42502971D02*
G01*
X27070341Y42502971D01*
X27070341Y42261903D01*
X27855826Y42261903D01*
X27855826Y42502971D01*
G37*
D11*
X88615601Y-5581376D02*
X88615601Y-4381376D01*
X88615601Y-4381376D02*
X87929887Y-5581376D01*
X87929887Y-5581376D02*
X87929887Y-4381376D01*
X86901315Y-5524234D02*
X87015601Y-5581376D01*
X87015601Y-5581376D02*
X87244173Y-5581376D01*
X87244173Y-5581376D02*
X87358458Y-5524234D01*
X87358458Y-5524234D02*
X87415601Y-5409948D01*
X87415601Y-5409948D02*
X87415601Y-4952805D01*
X87415601Y-4952805D02*
X87358458Y-4838519D01*
X87358458Y-4838519D02*
X87244173Y-4781376D01*
X87244173Y-4781376D02*
X87015601Y-4781376D01*
X87015601Y-4781376D02*
X86901315Y-4838519D01*
X86901315Y-4838519D02*
X86844173Y-4952805D01*
X86844173Y-4952805D02*
X86844173Y-5067091D01*
X86844173Y-5067091D02*
X87415601Y-5181376D01*
X85815602Y-4781376D02*
X85815602Y-5752805D01*
X85815602Y-5752805D02*
X85872744Y-5867091D01*
X85872744Y-5867091D02*
X85929887Y-5924234D01*
X85929887Y-5924234D02*
X86044173Y-5981376D01*
X86044173Y-5981376D02*
X86215602Y-5981376D01*
X86215602Y-5981376D02*
X86329887Y-5924234D01*
X85815602Y-5524234D02*
X85929887Y-5581376D01*
X85929887Y-5581376D02*
X86158459Y-5581376D01*
X86158459Y-5581376D02*
X86272744Y-5524234D01*
X86272744Y-5524234D02*
X86329887Y-5467091D01*
X86329887Y-5467091D02*
X86387030Y-5352805D01*
X86387030Y-5352805D02*
X86387030Y-5009948D01*
X86387030Y-5009948D02*
X86329887Y-4895662D01*
X86329887Y-4895662D02*
X86272744Y-4838519D01*
X86272744Y-4838519D02*
X86158459Y-4781376D01*
X86158459Y-4781376D02*
X85929887Y-4781376D01*
X85929887Y-4781376D02*
X85815602Y-4838519D01*
X84729888Y-5581376D02*
X84729888Y-4952805D01*
X84729888Y-4952805D02*
X84787030Y-4838519D01*
X84787030Y-4838519D02*
X84901316Y-4781376D01*
X84901316Y-4781376D02*
X85129888Y-4781376D01*
X85129888Y-4781376D02*
X85244173Y-4838519D01*
X84729888Y-5524234D02*
X84844173Y-5581376D01*
X84844173Y-5581376D02*
X85129888Y-5581376D01*
X85129888Y-5581376D02*
X85244173Y-5524234D01*
X85244173Y-5524234D02*
X85301316Y-5409948D01*
X85301316Y-5409948D02*
X85301316Y-5295662D01*
X85301316Y-5295662D02*
X85244173Y-5181376D01*
X85244173Y-5181376D02*
X85129888Y-5124234D01*
X85129888Y-5124234D02*
X84844173Y-5124234D01*
X84844173Y-5124234D02*
X84729888Y-5067091D01*
X84329888Y-4781376D02*
X83872745Y-4781376D01*
X84158459Y-4381376D02*
X84158459Y-5409948D01*
X84158459Y-5409948D02*
X84101316Y-5524234D01*
X84101316Y-5524234D02*
X83987031Y-5581376D01*
X83987031Y-5581376D02*
X83872745Y-5581376D01*
X83472745Y-5581376D02*
X83472745Y-4781376D01*
X83472745Y-4381376D02*
X83529888Y-4438519D01*
X83529888Y-4438519D02*
X83472745Y-4495662D01*
X83472745Y-4495662D02*
X83415602Y-4438519D01*
X83415602Y-4438519D02*
X83472745Y-4381376D01*
X83472745Y-4381376D02*
X83472745Y-4495662D01*
X83015602Y-4781376D02*
X82729888Y-5581376D01*
X82729888Y-5581376D02*
X82444173Y-4781376D01*
X81529887Y-5524234D02*
X81644173Y-5581376D01*
X81644173Y-5581376D02*
X81872745Y-5581376D01*
X81872745Y-5581376D02*
X81987030Y-5524234D01*
X81987030Y-5524234D02*
X82044173Y-5409948D01*
X82044173Y-5409948D02*
X82044173Y-4952805D01*
X82044173Y-4952805D02*
X81987030Y-4838519D01*
X81987030Y-4838519D02*
X81872745Y-4781376D01*
X81872745Y-4781376D02*
X81644173Y-4781376D01*
X81644173Y-4781376D02*
X81529887Y-4838519D01*
X81529887Y-4838519D02*
X81472745Y-4952805D01*
X81472745Y-4952805D02*
X81472745Y-5067091D01*
X81472745Y-5067091D02*
X82044173Y-5181376D01*
X88615601Y-7513309D02*
X88615601Y-6313309D01*
X88615601Y-6313309D02*
X88158458Y-6313309D01*
X88158458Y-6313309D02*
X88044173Y-6370452D01*
X88044173Y-6370452D02*
X87987030Y-6427595D01*
X87987030Y-6427595D02*
X87929887Y-6541881D01*
X87929887Y-6541881D02*
X87929887Y-6713309D01*
X87929887Y-6713309D02*
X87987030Y-6827595D01*
X87987030Y-6827595D02*
X88044173Y-6884738D01*
X88044173Y-6884738D02*
X88158458Y-6941881D01*
X88158458Y-6941881D02*
X88615601Y-6941881D01*
X87244173Y-7513309D02*
X87358458Y-7456167D01*
X87358458Y-7456167D02*
X87415601Y-7399024D01*
X87415601Y-7399024D02*
X87472744Y-7284738D01*
X87472744Y-7284738D02*
X87472744Y-6941881D01*
X87472744Y-6941881D02*
X87415601Y-6827595D01*
X87415601Y-6827595D02*
X87358458Y-6770452D01*
X87358458Y-6770452D02*
X87244173Y-6713309D01*
X87244173Y-6713309D02*
X87072744Y-6713309D01*
X87072744Y-6713309D02*
X86958458Y-6770452D01*
X86958458Y-6770452D02*
X86901316Y-6827595D01*
X86901316Y-6827595D02*
X86844173Y-6941881D01*
X86844173Y-6941881D02*
X86844173Y-7284738D01*
X86844173Y-7284738D02*
X86901316Y-7399024D01*
X86901316Y-7399024D02*
X86958458Y-7456167D01*
X86958458Y-7456167D02*
X87072744Y-7513309D01*
X87072744Y-7513309D02*
X87244173Y-7513309D01*
X86387030Y-7456167D02*
X86272744Y-7513309D01*
X86272744Y-7513309D02*
X86044173Y-7513309D01*
X86044173Y-7513309D02*
X85929887Y-7456167D01*
X85929887Y-7456167D02*
X85872744Y-7341881D01*
X85872744Y-7341881D02*
X85872744Y-7284738D01*
X85872744Y-7284738D02*
X85929887Y-7170452D01*
X85929887Y-7170452D02*
X86044173Y-7113309D01*
X86044173Y-7113309D02*
X86215602Y-7113309D01*
X86215602Y-7113309D02*
X86329887Y-7056167D01*
X86329887Y-7056167D02*
X86387030Y-6941881D01*
X86387030Y-6941881D02*
X86387030Y-6884738D01*
X86387030Y-6884738D02*
X86329887Y-6770452D01*
X86329887Y-6770452D02*
X86215602Y-6713309D01*
X86215602Y-6713309D02*
X86044173Y-6713309D01*
X86044173Y-6713309D02*
X85929887Y-6770452D01*
X85358458Y-7513309D02*
X85358458Y-6713309D01*
X85358458Y-6313309D02*
X85415601Y-6370452D01*
X85415601Y-6370452D02*
X85358458Y-6427595D01*
X85358458Y-6427595D02*
X85301315Y-6370452D01*
X85301315Y-6370452D02*
X85358458Y-6313309D01*
X85358458Y-6313309D02*
X85358458Y-6427595D01*
X84958458Y-6713309D02*
X84501315Y-6713309D01*
X84787029Y-6313309D02*
X84787029Y-7341881D01*
X84787029Y-7341881D02*
X84729886Y-7456167D01*
X84729886Y-7456167D02*
X84615601Y-7513309D01*
X84615601Y-7513309D02*
X84501315Y-7513309D01*
X84101315Y-7513309D02*
X84101315Y-6713309D01*
X84101315Y-6313309D02*
X84158458Y-6370452D01*
X84158458Y-6370452D02*
X84101315Y-6427595D01*
X84101315Y-6427595D02*
X84044172Y-6370452D01*
X84044172Y-6370452D02*
X84101315Y-6313309D01*
X84101315Y-6313309D02*
X84101315Y-6427595D01*
X83644172Y-6713309D02*
X83358458Y-7513309D01*
X83358458Y-7513309D02*
X83072743Y-6713309D01*
X82158457Y-7456167D02*
X82272743Y-7513309D01*
X82272743Y-7513309D02*
X82501315Y-7513309D01*
X82501315Y-7513309D02*
X82615600Y-7456167D01*
X82615600Y-7456167D02*
X82672743Y-7341881D01*
X82672743Y-7341881D02*
X82672743Y-6884738D01*
X82672743Y-6884738D02*
X82615600Y-6770452D01*
X82615600Y-6770452D02*
X82501315Y-6713309D01*
X82501315Y-6713309D02*
X82272743Y-6713309D01*
X82272743Y-6713309D02*
X82158457Y-6770452D01*
X82158457Y-6770452D02*
X82101315Y-6884738D01*
X82101315Y-6884738D02*
X82101315Y-6999024D01*
X82101315Y-6999024D02*
X82672743Y-7113309D01*
D12*
G36*
X-27140683Y45002971D02*
G01*
X-27451727Y45002971D01*
X-27451727Y44677639D01*
X-27434508Y44683867D01*
X-27450490Y44762452D01*
X-27474711Y44836847D01*
X-27509372Y44902106D01*
X-27529762Y44927866D01*
X-27588632Y44973633D01*
X-27661928Y44998276D01*
X-27718806Y45002971D01*
X-27820655Y45002971D01*
X-27820655Y44745050D01*
X-27719173Y44745050D01*
X-27642955Y44739657D01*
X-27574092Y44720504D01*
X-27512986Y44677407D01*
X-27490928Y44645765D01*
X-27468597Y44573974D01*
X-27464183Y44511310D01*
X-27464183Y43877500D01*
X-27140683Y43877500D01*
X-27140683Y45002971D01*
G37*
G36*
X-28374278Y45028456D02*
G01*
X-28296746Y45014786D01*
X-28224435Y44992003D01*
X-28157344Y44960106D01*
X-28111195Y44930752D01*
X-28049748Y44878656D01*
X-27997632Y44816880D01*
X-27959141Y44753843D01*
X-27954859Y44745444D01*
X-27925492Y44675262D01*
X-27904827Y44599768D01*
X-27892863Y44518962D01*
X-27889532Y44443899D01*
X-27889600Y44432881D01*
X-27893883Y44358124D01*
X-27906934Y44277752D01*
X-27928687Y44202785D01*
X-27959141Y44133222D01*
X-27982361Y44092918D01*
X-28031550Y44027855D01*
X-28090244Y43972413D01*
X-28158443Y43926592D01*
X-28226015Y43894856D01*
X-28298669Y43872187D01*
X-28376407Y43858586D01*
X-28459228Y43854052D01*
X-28509455Y43855586D01*
X-28592667Y43865654D01*
X-28669919Y43885119D01*
X-28741211Y43913980D01*
X-28806542Y43952238D01*
X-28832420Y43971389D01*
X-28886240Y44021310D01*
X-28936501Y44087336D01*
X-28970636Y44152960D01*
X-28995586Y44225912D01*
X-28680146Y44225912D01*
X-28655597Y44177657D01*
X-28601011Y44127360D01*
X-28539187Y44103180D01*
X-28463625Y44095120D01*
X-28415021Y44098451D01*
X-28342713Y44119660D01*
X-28280076Y44164729D01*
X-28241905Y44220543D01*
X-28219579Y44291769D01*
X-28213032Y44369893D01*
X-29010240Y44369893D01*
X-29010240Y44432175D01*
X-29009975Y44455021D01*
X-29004879Y44532008D01*
X-29000803Y44557472D01*
X-28686741Y44557472D01*
X-28210833Y44557472D01*
X-28216111Y44590752D01*
X-28241720Y44666230D01*
X-28288503Y44729663D01*
X-28309724Y44747605D01*
X-28379328Y44781666D01*
X-28457397Y44791945D01*
X-28488901Y44790478D01*
X-28561351Y44772934D01*
X-28624092Y44731861D01*
X-28648503Y44702980D01*
X-28677931Y44635576D01*
X-28686741Y44557472D01*
X-29000803Y44557472D01*
X-28993296Y44604366D01*
X-28972115Y44681394D01*
X-28942463Y44752377D01*
X-28919975Y44793296D01*
X-28872328Y44859107D01*
X-28815466Y44914832D01*
X-28749389Y44960472D01*
X-28683993Y44992209D01*
X-28613468Y45014877D01*
X-28537814Y45028479D01*
X-28457030Y45033012D01*
X-28374278Y45028456D01*
G37*
G36*
X-29080949Y45002971D02*
G01*
X-29410676Y45002971D01*
X-29677390Y44194405D01*
X-29944103Y45002971D01*
X-30271632Y45002971D01*
X-29860205Y43877500D01*
X-29492742Y43877500D01*
X-29080949Y45002971D01*
G37*
G36*
X-30278227Y44205762D02*
G01*
X-30629937Y44205762D01*
X-30629937Y43877500D01*
X-30278227Y43877500D01*
X-30278227Y44205762D01*
G37*
G36*
X-31306978Y43877500D02*
G01*
X-31309432Y43960176D01*
X-31316795Y44037664D01*
X-31329067Y44109962D01*
X-31349103Y44186234D01*
X-31358269Y44213089D01*
X-31388082Y44281668D01*
X-31425863Y44346354D01*
X-31471613Y44407148D01*
X-31525331Y44464049D01*
X-31588162Y44518912D01*
X-31651254Y44566466D01*
X-31721920Y44613600D01*
X-31788518Y44653665D01*
X-31836008Y44680204D01*
X-31904876Y44717296D01*
X-31970303Y44756110D01*
X-32001971Y44777290D01*
X-32058168Y44825405D01*
X-32083670Y44858623D01*
X-32107369Y44929789D01*
X-32108949Y44957541D01*
X-32095302Y45032280D01*
X-32054361Y45091631D01*
X-31988232Y45130648D01*
X-31911436Y45143451D01*
X-31899023Y45143654D01*
X-31820712Y45134484D01*
X-31750759Y45103852D01*
X-31719504Y45078442D01*
X-31674025Y45015600D01*
X-31646428Y44940098D01*
X-31636706Y44888299D01*
X-31309176Y44888299D01*
X-31319019Y44961267D01*
X-31339283Y45041982D01*
X-31368770Y45115226D01*
X-31407478Y45181000D01*
X-31455409Y45239303D01*
X-31482833Y45265654D01*
X-31543794Y45311846D01*
X-31612096Y45348481D01*
X-31687741Y45375559D01*
X-31770726Y45393080D01*
X-31845489Y45400380D01*
X-31892794Y45401575D01*
X-31974585Y45398003D01*
X-32050331Y45387287D01*
X-32128319Y45366692D01*
X-32183688Y45344422D01*
X-32253862Y45304337D01*
X-32312802Y45255521D01*
X-32360508Y45197977D01*
X-32368702Y45185420D01*
X-32402318Y45118508D01*
X-32423484Y45045085D01*
X-32432200Y44965151D01*
X-32432449Y44948382D01*
X-32427990Y44872528D01*
X-32412955Y44799456D01*
X-32394713Y44751278D01*
X-32356914Y44688088D01*
X-32304240Y44629494D01*
X-32274912Y44604000D01*
X-32210448Y44556722D01*
X-32146112Y44515529D01*
X-32080167Y44477015D01*
X-32044103Y44457088D01*
X-31972195Y44416866D01*
X-31908422Y44377627D01*
X-31845499Y44333984D01*
X-31787410Y44286418D01*
X-31781786Y44281233D01*
X-31730573Y44226812D01*
X-31692131Y44159858D01*
X-31686898Y44135420D01*
X-32432449Y44135420D01*
X-32432449Y43877500D01*
X-31306978Y43877500D01*
G37*
D11*
X-97666666Y-9034819D02*
X-97666666Y-9749104D01*
X-97666666Y-9749104D02*
X-97619047Y-9891961D01*
X-97619047Y-9891961D02*
X-97523809Y-9987200D01*
X-97523809Y-9987200D02*
X-97380952Y-10034819D01*
X-97380952Y-10034819D02*
X-97285714Y-10034819D01*
X-98047619Y-9034819D02*
X-98666666Y-9034819D01*
X-98666666Y-9034819D02*
X-98333333Y-9415771D01*
X-98333333Y-9415771D02*
X-98476190Y-9415771D01*
X-98476190Y-9415771D02*
X-98571428Y-9463390D01*
X-98571428Y-9463390D02*
X-98619047Y-9511009D01*
X-98619047Y-9511009D02*
X-98666666Y-9606247D01*
X-98666666Y-9606247D02*
X-98666666Y-9844342D01*
X-98666666Y-9844342D02*
X-98619047Y-9939580D01*
X-98619047Y-9939580D02*
X-98571428Y-9987200D01*
X-98571428Y-9987200D02*
X-98476190Y-10034819D01*
X-98476190Y-10034819D02*
X-98190476Y-10034819D01*
X-98190476Y-10034819D02*
X-98095238Y-9987200D01*
X-98095238Y-9987200D02*
X-98047619Y-9939580D01*
X98333333Y-584819D02*
X98333333Y-1299104D01*
X98333333Y-1299104D02*
X98380952Y-1441961D01*
X98380952Y-1441961D02*
X98476190Y-1537200D01*
X98476190Y-1537200D02*
X98619047Y-1584819D01*
X98619047Y-1584819D02*
X98714285Y-1584819D01*
X97428571Y-918152D02*
X97428571Y-1584819D01*
X97666666Y-537200D02*
X97904761Y-1251485D01*
X97904761Y-1251485D02*
X97285714Y-1251485D01*
X-111995180Y17785713D02*
X-112995180Y17785713D01*
X-112995180Y17785713D02*
X-112995180Y17404761D01*
X-112995180Y17404761D02*
X-112947561Y17309523D01*
X-112947561Y17309523D02*
X-112899942Y17261904D01*
X-112899942Y17261904D02*
X-112804704Y17214285D01*
X-112804704Y17214285D02*
X-112661847Y17214285D01*
X-112661847Y17214285D02*
X-112566609Y17261904D01*
X-112566609Y17261904D02*
X-112518990Y17309523D01*
X-112518990Y17309523D02*
X-112471371Y17404761D01*
X-112471371Y17404761D02*
X-112471371Y17785713D01*
X-112042800Y16833332D02*
X-111995180Y16690475D01*
X-111995180Y16690475D02*
X-111995180Y16452380D01*
X-111995180Y16452380D02*
X-112042800Y16357142D01*
X-112042800Y16357142D02*
X-112090419Y16309523D01*
X-112090419Y16309523D02*
X-112185657Y16261904D01*
X-112185657Y16261904D02*
X-112280895Y16261904D01*
X-112280895Y16261904D02*
X-112376133Y16309523D01*
X-112376133Y16309523D02*
X-112423752Y16357142D01*
X-112423752Y16357142D02*
X-112471371Y16452380D01*
X-112471371Y16452380D02*
X-112518990Y16642856D01*
X-112518990Y16642856D02*
X-112566609Y16738094D01*
X-112566609Y16738094D02*
X-112614228Y16785713D01*
X-112614228Y16785713D02*
X-112709466Y16833332D01*
X-112709466Y16833332D02*
X-112804704Y16833332D01*
X-112804704Y16833332D02*
X-112899942Y16785713D01*
X-112899942Y16785713D02*
X-112947561Y16738094D01*
X-112947561Y16738094D02*
X-112995180Y16642856D01*
X-112995180Y16642856D02*
X-112995180Y16404761D01*
X-112995180Y16404761D02*
X-112947561Y16261904D01*
X-112995180Y15928570D02*
X-111995180Y15690475D01*
X-111995180Y15690475D02*
X-112709466Y15499999D01*
X-112709466Y15499999D02*
X-111995180Y15309523D01*
X-111995180Y15309523D02*
X-112995180Y15071428D01*
X-111995180Y14166666D02*
X-111995180Y14738094D01*
X-111995180Y14452380D02*
X-112995180Y14452380D01*
X-112995180Y14452380D02*
X-112852323Y14547618D01*
X-112852323Y14547618D02*
X-112757085Y14642856D01*
X-112757085Y14642856D02*
X-112709466Y14738094D01*
X111995180Y14214286D02*
X112995180Y14214286D01*
X112995180Y14214286D02*
X112995180Y14595238D01*
X112995180Y14595238D02*
X112947561Y14690476D01*
X112947561Y14690476D02*
X112899942Y14738095D01*
X112899942Y14738095D02*
X112804704Y14785714D01*
X112804704Y14785714D02*
X112661847Y14785714D01*
X112661847Y14785714D02*
X112566609Y14738095D01*
X112566609Y14738095D02*
X112518990Y14690476D01*
X112518990Y14690476D02*
X112471371Y14595238D01*
X112471371Y14595238D02*
X112471371Y14214286D01*
X112042800Y15166667D02*
X111995180Y15309524D01*
X111995180Y15309524D02*
X111995180Y15547619D01*
X111995180Y15547619D02*
X112042800Y15642857D01*
X112042800Y15642857D02*
X112090419Y15690476D01*
X112090419Y15690476D02*
X112185657Y15738095D01*
X112185657Y15738095D02*
X112280895Y15738095D01*
X112280895Y15738095D02*
X112376133Y15690476D01*
X112376133Y15690476D02*
X112423752Y15642857D01*
X112423752Y15642857D02*
X112471371Y15547619D01*
X112471371Y15547619D02*
X112518990Y15357143D01*
X112518990Y15357143D02*
X112566609Y15261905D01*
X112566609Y15261905D02*
X112614228Y15214286D01*
X112614228Y15214286D02*
X112709466Y15166667D01*
X112709466Y15166667D02*
X112804704Y15166667D01*
X112804704Y15166667D02*
X112899942Y15214286D01*
X112899942Y15214286D02*
X112947561Y15261905D01*
X112947561Y15261905D02*
X112995180Y15357143D01*
X112995180Y15357143D02*
X112995180Y15595238D01*
X112995180Y15595238D02*
X112947561Y15738095D01*
X112995180Y16071429D02*
X111995180Y16309524D01*
X111995180Y16309524D02*
X112709466Y16500000D01*
X112709466Y16500000D02*
X111995180Y16690476D01*
X111995180Y16690476D02*
X112995180Y16928572D01*
X112899942Y17261905D02*
X112947561Y17309524D01*
X112947561Y17309524D02*
X112995180Y17404762D01*
X112995180Y17404762D02*
X112995180Y17642857D01*
X112995180Y17642857D02*
X112947561Y17738095D01*
X112947561Y17738095D02*
X112899942Y17785714D01*
X112899942Y17785714D02*
X112804704Y17833333D01*
X112804704Y17833333D02*
X112709466Y17833333D01*
X112709466Y17833333D02*
X112566609Y17785714D01*
X112566609Y17785714D02*
X111995180Y17214286D01*
X111995180Y17214286D02*
X111995180Y17833333D01*
D13*
%TO.C,RD1*%
X64000000Y43350000D02*
X64000000Y47360000D01*
X66000000Y47360000D02*
X64000000Y47360000D01*
X66000000Y43350000D02*
X66000000Y47360000D01*
%TO.C,LD12*%
X-86000000Y-11350000D02*
X-86000000Y-15360000D01*
X-86000000Y-15360000D02*
X-84000000Y-15360000D01*
X-84000000Y-11350000D02*
X-84000000Y-15360000D01*
%TO.C,RCH16*%
X12771280Y-25966538D02*
X12384329Y-27029679D01*
X13673314Y-29793918D02*
X14736455Y-30180870D01*
X13677588Y-25543920D02*
X12771280Y-25966538D01*
X15642763Y-29758251D02*
X14736455Y-30180870D01*
X22899172Y-28746795D02*
X23805480Y-28324177D01*
X23509647Y-27689761D02*
X23805480Y-28324177D01*
X20885056Y-24555285D02*
G75*
G02*
X21948197Y-24942237I338095J-725046D01*
G01*
%TO.C,RD17*%
X43350000Y-15500000D02*
X47360000Y-15500000D01*
X43350000Y-17500000D02*
X47360000Y-17500000D01*
X47360000Y-17500000D02*
X47360000Y-15500000D01*
%TO.C,LD17*%
X-23650000Y-5500000D02*
X-19640000Y-5500000D01*
X-23650000Y-7500000D02*
X-19640000Y-7500000D01*
X-19640000Y-7500000D02*
X-19640000Y-5500000D01*
%TO.C,RCH6*%
X27496000Y14825000D02*
X27496000Y15525000D01*
X28496000Y15525000D02*
X27496000Y15525000D01*
X35500000Y13375000D02*
X36500000Y13375000D01*
X35500000Y8725000D02*
X36500000Y8725000D01*
X36500000Y8725000D02*
X37300000Y9525000D01*
X37300000Y12575000D02*
X36500000Y13375000D01*
X28550000Y10875000D02*
G75*
G02*
X27750000Y11675000I0J800000D01*
G01*
%TO.C,LCH9*%
X-60504000Y16825000D02*
X-60504000Y17525000D01*
X-59504000Y17525000D02*
X-60504000Y17525000D01*
X-52500000Y15375000D02*
X-51500000Y15375000D01*
X-52500000Y10725000D02*
X-51500000Y10725000D01*
X-51500000Y10725000D02*
X-50700000Y11525000D01*
X-50700000Y14575000D02*
X-51500000Y15375000D01*
X-59450000Y12875000D02*
G75*
G02*
X-60250000Y13675000I0J800000D01*
G01*
%TO.C,RD13*%
X81000000Y-11850000D02*
X81000000Y-15860000D01*
X81000000Y-15860000D02*
X83000000Y-15860000D01*
X83000000Y-11850000D02*
X83000000Y-15860000D01*
%TO.C,RD5*%
X76400000Y43350000D02*
X76400000Y47360000D01*
X78400000Y47360000D02*
X76400000Y47360000D01*
X78400000Y43350000D02*
X78400000Y47360000D01*
%TO.C,RD8*%
X68000000Y25350000D02*
X68000000Y29360000D01*
X70000000Y29360000D02*
X68000000Y29360000D01*
X70000000Y25350000D02*
X70000000Y29360000D01*
%TO.C,RD2*%
X67400000Y43350000D02*
X67400000Y47360000D01*
X69400000Y47360000D02*
X67400000Y47360000D01*
X69400000Y43350000D02*
X69400000Y47360000D01*
%TO.C,RCH10*%
X99496000Y8825000D02*
X99496000Y9525000D01*
X100496000Y9525000D02*
X99496000Y9525000D01*
X107500000Y7375000D02*
X108500000Y7375000D01*
X107500000Y2725000D02*
X108500000Y2725000D01*
X108500000Y2725000D02*
X109300000Y3525000D01*
X109300000Y6575000D02*
X108500000Y7375000D01*
X100550000Y4875000D02*
G75*
G02*
X99750000Y5675000I0J800000D01*
G01*
%TO.C,LD9*%
X-23650000Y15000000D02*
X-19640000Y15000000D01*
X-23650000Y13000000D02*
X-19640000Y13000000D01*
X-19640000Y13000000D02*
X-19640000Y15000000D01*
%TO.C,LD15*%
X-63000000Y3150000D02*
X-63000000Y-860000D01*
X-63000000Y-860000D02*
X-61000000Y-860000D01*
X-61000000Y3150000D02*
X-61000000Y-860000D01*
%TO.C,LD4*%
X-45000000Y44350000D02*
X-45000000Y48360000D01*
X-43000000Y48360000D02*
X-45000000Y48360000D01*
X-43000000Y44350000D02*
X-43000000Y48360000D01*
%TO.C,RD9*%
X71000000Y25350000D02*
X71000000Y29360000D01*
X73000000Y29360000D02*
X71000000Y29360000D01*
X73000000Y25350000D02*
X73000000Y29360000D01*
%TO.C,J1*%
X-95153553Y-5150000D02*
X-95153553Y-5650000D01*
X-95153553Y-5650000D02*
X-94800000Y-5400000D01*
X-94800000Y-5400000D02*
X-95153553Y-5150000D01*
X-94300000Y-4840000D02*
X-94110000Y-4840000D01*
X-94110000Y-3790000D02*
X-90760000Y-3790000D01*
X-94110000Y-4840000D02*
X-94110000Y-3790000D01*
X-94110000Y-7160000D02*
X-94110000Y-8210000D01*
X-94110000Y-8210000D02*
X-90760000Y-8210000D01*
X-90090000Y-5610000D02*
X-89590000Y-5210000D01*
X-90090000Y-6390000D02*
X-90090000Y-5610000D01*
X-89590000Y-5210000D02*
X-89590000Y-4860000D01*
X-89590000Y-6790000D02*
X-90090000Y-6390000D01*
X-89590000Y-7140000D02*
X-89590000Y-6790000D01*
%TO.C,RD12*%
X43500000Y-8350000D02*
X43500000Y-12360000D01*
X43500000Y-12360000D02*
X45500000Y-12360000D01*
X45500000Y-8350000D02*
X45500000Y-12360000D01*
%TO.C,LCH2*%
X-91300000Y38425000D02*
X-90500000Y37625000D01*
X-90500000Y42275000D02*
X-91300000Y41475000D01*
X-89500000Y42275000D02*
X-90500000Y42275000D01*
X-89500000Y37625000D02*
X-90500000Y37625000D01*
X-82496000Y35475000D02*
X-81496000Y35475000D01*
X-81496000Y36175000D02*
X-81496000Y35475000D01*
X-82550000Y40125000D02*
G75*
G02*
X-81750000Y39325000I0J-800000D01*
G01*
%TO.C,LCH7*%
X-96504000Y14825000D02*
X-96504000Y15525000D01*
X-95504000Y15525000D02*
X-96504000Y15525000D01*
X-88500000Y13375000D02*
X-87500000Y13375000D01*
X-88500000Y8725000D02*
X-87500000Y8725000D01*
X-87500000Y8725000D02*
X-86700000Y9525000D01*
X-86700000Y12575000D02*
X-87500000Y13375000D01*
X-95450000Y10875000D02*
G75*
G02*
X-96250000Y11675000I0J800000D01*
G01*
%TO.C,RD6*%
X62000000Y25350000D02*
X62000000Y29360000D01*
X64000000Y29360000D02*
X62000000Y29360000D01*
X64000000Y25350000D02*
X64000000Y29360000D01*
%TO.C,RCH14*%
X86700000Y4425000D02*
X87500000Y3625000D01*
X87500000Y8275000D02*
X86700000Y7475000D01*
X88500000Y8275000D02*
X87500000Y8275000D01*
X88500000Y3625000D02*
X87500000Y3625000D01*
X95504000Y1475000D02*
X96504000Y1475000D01*
X96504000Y2175000D02*
X96504000Y1475000D01*
X95450000Y6125000D02*
G75*
G02*
X96250000Y5325000I0J-800000D01*
G01*
%TO.C,RCH2*%
X45496000Y33825000D02*
X45496000Y34525000D01*
X46496000Y34525000D02*
X45496000Y34525000D01*
X53500000Y32375000D02*
X54500000Y32375000D01*
X53500000Y27725000D02*
X54500000Y27725000D01*
X54500000Y27725000D02*
X55300000Y28525000D01*
X55300000Y31575000D02*
X54500000Y32375000D01*
X46550000Y29875000D02*
G75*
G02*
X45750000Y30675000I0J800000D01*
G01*
%TO.C,LCH4*%
X-60504000Y33825000D02*
X-60504000Y34525000D01*
X-59504000Y34525000D02*
X-60504000Y34525000D01*
X-52500000Y32375000D02*
X-51500000Y32375000D01*
X-52500000Y27725000D02*
X-51500000Y27725000D01*
X-51500000Y27725000D02*
X-50700000Y28525000D01*
X-50700000Y31575000D02*
X-51500000Y32375000D01*
X-59450000Y29875000D02*
G75*
G02*
X-60250000Y30675000I0J800000D01*
G01*
%TO.C,LCH11*%
X-114504000Y-8175000D02*
X-114504000Y-7475000D01*
X-113504000Y-7475000D02*
X-114504000Y-7475000D01*
X-106500000Y-9625000D02*
X-105500000Y-9625000D01*
X-106500000Y-14275000D02*
X-105500000Y-14275000D01*
X-105500000Y-14275000D02*
X-104700000Y-13475000D01*
X-104700000Y-10425000D02*
X-105500000Y-9625000D01*
X-113450000Y-12125000D02*
G75*
G02*
X-114250000Y-11325000I0J800000D01*
G01*
%TO.C,RD7*%
X65000000Y25350000D02*
X65000000Y29360000D01*
X67000000Y29360000D02*
X65000000Y29360000D01*
X67000000Y25350000D02*
X67000000Y29360000D01*
%TO.C,RCH9*%
X81496000Y14825000D02*
X81496000Y15525000D01*
X82496000Y15525000D02*
X81496000Y15525000D01*
X89500000Y13375000D02*
X90500000Y13375000D01*
X89500000Y8725000D02*
X90500000Y8725000D01*
X90500000Y8725000D02*
X91300000Y9525000D01*
X91300000Y12575000D02*
X90500000Y13375000D01*
X82550000Y10875000D02*
G75*
G02*
X81750000Y11675000I0J800000D01*
G01*
%TO.C,LCH13*%
X-73300000Y9425000D02*
X-72500000Y8625000D01*
X-72500000Y13275000D02*
X-73300000Y12475000D01*
X-71500000Y13275000D02*
X-72500000Y13275000D01*
X-71500000Y8625000D02*
X-72500000Y8625000D01*
X-64496000Y6475000D02*
X-63496000Y6475000D01*
X-63496000Y7175000D02*
X-63496000Y6475000D01*
X-64550000Y11125000D02*
G75*
G02*
X-63750000Y10325000I0J-800000D01*
G01*
%TO.C,J3*%
X-99330000Y-3380000D02*
X-99330000Y-5979999D01*
X-99330000Y-8580000D02*
X-99330000Y-7250000D01*
X-98000000Y-8580000D02*
X-99330000Y-8580000D01*
X-96670000Y-3380000D02*
X-99330000Y-3380000D01*
X-96670000Y-3380000D02*
X-96670000Y-5979999D01*
X-96670000Y-5979999D02*
X-99330000Y-5979999D01*
%TO.C,LCH3*%
X-73300000Y43425000D02*
X-72500000Y42625000D01*
X-72500000Y47275000D02*
X-73300000Y46475000D01*
X-71500000Y47275000D02*
X-72500000Y47275000D01*
X-71500000Y42625000D02*
X-72500000Y42625000D01*
X-64496000Y40475000D02*
X-63496000Y40475000D01*
X-63496000Y41175000D02*
X-63496000Y40475000D01*
X-64550000Y45125000D02*
G75*
G02*
X-63750000Y44325000I0J-800000D01*
G01*
%TO.C,RCH12*%
X50700000Y6425000D02*
X51500000Y5625000D01*
X51500000Y10275000D02*
X50700000Y9475000D01*
X52500000Y10275000D02*
X51500000Y10275000D01*
X52500000Y5625000D02*
X51500000Y5625000D01*
X59504000Y3475000D02*
X60504000Y3475000D01*
X60504000Y4175000D02*
X60504000Y3475000D01*
X59450000Y8125000D02*
G75*
G02*
X60250000Y7325000I0J-800000D01*
G01*
%TO.C,J4*%
X96670000Y-4730000D02*
X99330000Y-4730000D01*
X96670000Y-7330000D02*
X96670000Y-4730000D01*
X96670000Y-7330000D02*
X99330000Y-7330000D01*
X98000000Y-2130000D02*
X99330000Y-2130000D01*
X99330000Y-2130000D02*
X99330000Y-3460000D01*
X99330000Y-7330000D02*
X99330000Y-4730000D01*
%TO.C,LCH8*%
X-78504000Y19825000D02*
X-78504000Y20525000D01*
X-77504000Y20525000D02*
X-78504000Y20525000D01*
X-70500000Y18375000D02*
X-69500000Y18375000D01*
X-70500000Y13725000D02*
X-69500000Y13725000D01*
X-69500000Y13725000D02*
X-68700000Y14525000D01*
X-68700000Y17575000D02*
X-69500000Y18375000D01*
X-77450000Y15875000D02*
G75*
G02*
X-78250000Y16675000I0J800000D01*
G01*
%TO.C,LD13*%
X-69000000Y3150000D02*
X-69000000Y-860000D01*
X-69000000Y-860000D02*
X-67000000Y-860000D01*
X-67000000Y3150000D02*
X-67000000Y-860000D01*
%TO.C,RCH7*%
X45496000Y16825000D02*
X45496000Y17525000D01*
X46496000Y17525000D02*
X45496000Y17525000D01*
X53500000Y15375000D02*
X54500000Y15375000D01*
X53500000Y10725000D02*
X54500000Y10725000D01*
X54500000Y10725000D02*
X55300000Y11525000D01*
X55300000Y14575000D02*
X54500000Y15375000D01*
X46550000Y12875000D02*
G75*
G02*
X45750000Y13675000I0J800000D01*
G01*
%TO.C,LCH15*%
X-42504000Y-2175000D02*
X-42504000Y-1475000D01*
X-41504000Y-1475000D02*
X-42504000Y-1475000D01*
X-34500000Y-3625000D02*
X-33500000Y-3625000D01*
X-34500000Y-8275000D02*
X-33500000Y-8275000D01*
X-33500000Y-8275000D02*
X-32700000Y-7475000D01*
X-32700000Y-4425000D02*
X-33500000Y-3625000D01*
X-41450000Y-6125000D02*
G75*
G02*
X-42250000Y-5325000I0J800000D01*
G01*
%TO.C,LCH1*%
X-114504000Y25825000D02*
X-114504000Y26525000D01*
X-113504000Y26525000D02*
X-114504000Y26525000D01*
X-106500000Y24375000D02*
X-105500000Y24375000D01*
X-106500000Y19725000D02*
X-105500000Y19725000D01*
X-105500000Y19725000D02*
X-104700000Y20525000D01*
X-104700000Y23575000D02*
X-105500000Y24375000D01*
X-113450000Y21875000D02*
G75*
G02*
X-114250000Y22675000I0J800000D01*
G01*
%TO.C,RCH13*%
X68700000Y9425000D02*
X69500000Y8625000D01*
X69500000Y13275000D02*
X68700000Y12475000D01*
X70500000Y13275000D02*
X69500000Y13275000D01*
X70500000Y8625000D02*
X69500000Y8625000D01*
X77504000Y6475000D02*
X78504000Y6475000D01*
X78504000Y7175000D02*
X78504000Y6475000D01*
X77450000Y11125000D02*
G75*
G02*
X78250000Y10325000I0J-800000D01*
G01*
%TO.C,LD7*%
X-23650000Y21000000D02*
X-19640000Y21000000D01*
X-23650000Y19000000D02*
X-19640000Y19000000D01*
X-19640000Y19000000D02*
X-19640000Y21000000D01*
%TO.C,LCH6*%
X-114504000Y8825000D02*
X-114504000Y9525000D01*
X-113504000Y9525000D02*
X-114504000Y9525000D01*
X-106500000Y7375000D02*
X-105500000Y7375000D01*
X-106500000Y2725000D02*
X-105500000Y2725000D01*
X-105500000Y2725000D02*
X-104700000Y3525000D01*
X-104700000Y6575000D02*
X-105500000Y7375000D01*
X-113450000Y4875000D02*
G75*
G02*
X-114250000Y5675000I0J800000D01*
G01*
%TO.C,RD15*%
X87000000Y-11850000D02*
X87000000Y-15860000D01*
X87000000Y-15860000D02*
X89000000Y-15860000D01*
X89000000Y-11850000D02*
X89000000Y-15860000D01*
%TO.C,RCH5*%
X99496000Y25825000D02*
X99496000Y26525000D01*
X100496000Y26525000D02*
X99496000Y26525000D01*
X107500000Y24375000D02*
X108500000Y24375000D01*
X107500000Y19725000D02*
X108500000Y19725000D01*
X108500000Y19725000D02*
X109300000Y20525000D01*
X109300000Y23575000D02*
X108500000Y24375000D01*
X100550000Y21875000D02*
G75*
G02*
X99750000Y22675000I0J800000D01*
G01*
%TO.C,J2*%
X89590000Y-4860000D02*
X89590000Y-5210000D01*
X89590000Y-5210000D02*
X90090000Y-5610000D01*
X89590000Y-6790000D02*
X89590000Y-7140000D01*
X90090000Y-5610000D02*
X90090000Y-6390000D01*
X90090000Y-6390000D02*
X89590000Y-6790000D01*
X94110000Y-3790000D02*
X90760000Y-3790000D01*
X94110000Y-4840000D02*
X94110000Y-3790000D01*
X94110000Y-7160000D02*
X94110000Y-8210000D01*
X94110000Y-8210000D02*
X90760000Y-8210000D01*
X94300000Y-7160000D02*
X94110000Y-7160000D01*
X94800000Y-6600000D02*
X95153553Y-6850000D01*
X95153553Y-6350000D02*
X94800000Y-6600000D01*
X95153553Y-6850000D02*
X95153553Y-6350000D01*
%TO.C,LCH12*%
X-91300000Y4425000D02*
X-90500000Y3625000D01*
X-90500000Y8275000D02*
X-91300000Y7475000D01*
X-89500000Y8275000D02*
X-90500000Y8275000D01*
X-89500000Y3625000D02*
X-90500000Y3625000D01*
X-82496000Y1475000D02*
X-81496000Y1475000D01*
X-81496000Y2175000D02*
X-81496000Y1475000D01*
X-82550000Y6125000D02*
G75*
G02*
X-81750000Y5325000I0J-800000D01*
G01*
%TO.C,RCH8*%
X63496000Y19825000D02*
X63496000Y20525000D01*
X64496000Y20525000D02*
X63496000Y20525000D01*
X71500000Y18375000D02*
X72500000Y18375000D01*
X71500000Y13725000D02*
X72500000Y13725000D01*
X72500000Y13725000D02*
X73300000Y14525000D01*
X73300000Y17575000D02*
X72500000Y18375000D01*
X64550000Y15875000D02*
G75*
G02*
X63750000Y16675000I0J800000D01*
G01*
%TO.C,LD5*%
X-42000000Y44350000D02*
X-42000000Y48360000D01*
X-40000000Y48360000D02*
X-42000000Y48360000D01*
X-40000000Y44350000D02*
X-40000000Y48360000D01*
%TO.C,LCH10*%
X-42504000Y14825000D02*
X-42504000Y15525000D01*
X-41504000Y15525000D02*
X-42504000Y15525000D01*
X-34500000Y13375000D02*
X-33500000Y13375000D01*
X-34500000Y8725000D02*
X-33500000Y8725000D01*
X-33500000Y8725000D02*
X-32700000Y9525000D01*
X-32700000Y12575000D02*
X-33500000Y13375000D01*
X-41450000Y10875000D02*
G75*
G02*
X-42250000Y11675000I0J800000D01*
G01*
%TO.C,RD16*%
X43350000Y-18500000D02*
X47360000Y-18500000D01*
X43350000Y-20500000D02*
X47360000Y-20500000D01*
X47360000Y-20500000D02*
X47360000Y-18500000D01*
%TO.C,LCH14*%
X-55300000Y6425000D02*
X-54500000Y5625000D01*
X-54500000Y10275000D02*
X-55300000Y9475000D01*
X-53500000Y10275000D02*
X-54500000Y10275000D01*
X-53500000Y5625000D02*
X-54500000Y5625000D01*
X-46496000Y3475000D02*
X-45496000Y3475000D01*
X-45496000Y4175000D02*
X-45496000Y3475000D01*
X-46550000Y8125000D02*
G75*
G02*
X-45750000Y7325000I0J-800000D01*
G01*
%TO.C,LD1*%
X-48000000Y44350000D02*
X-48000000Y48360000D01*
X-46000000Y48360000D02*
X-48000000Y48360000D01*
X-46000000Y44350000D02*
X-46000000Y48360000D01*
%TO.C,RCH11*%
X27496000Y-2175000D02*
X27496000Y-1475000D01*
X28496000Y-1475000D02*
X27496000Y-1475000D01*
X35500000Y-3625000D02*
X36500000Y-3625000D01*
X35500000Y-8275000D02*
X36500000Y-8275000D01*
X36500000Y-8275000D02*
X37300000Y-7475000D01*
X37300000Y-4425000D02*
X36500000Y-3625000D01*
X28550000Y-6125000D02*
G75*
G02*
X27750000Y-5325000I0J800000D01*
G01*
%TO.C,LD2*%
X-51000000Y44350000D02*
X-51000000Y48360000D01*
X-49000000Y48360000D02*
X-51000000Y48360000D01*
X-49000000Y44350000D02*
X-49000000Y48360000D01*
%TO.C,LD11*%
X-89000000Y-11350000D02*
X-89000000Y-15360000D01*
X-89000000Y-15360000D02*
X-87000000Y-15360000D01*
X-87000000Y-11350000D02*
X-87000000Y-15360000D01*
%TO.C,RCH4*%
X81496000Y31825000D02*
X81496000Y32525000D01*
X82496000Y32525000D02*
X81496000Y32525000D01*
X89500000Y30375000D02*
X90500000Y30375000D01*
X89500000Y25725000D02*
X90500000Y25725000D01*
X90500000Y25725000D02*
X91300000Y26525000D01*
X91300000Y29575000D02*
X90500000Y30375000D01*
X82550000Y27875000D02*
G75*
G02*
X81750000Y28675000I0J800000D01*
G01*
%TO.C,LD14*%
X-66000000Y3150000D02*
X-66000000Y-860000D01*
X-66000000Y-860000D02*
X-64000000Y-860000D01*
X-64000000Y3150000D02*
X-64000000Y-860000D01*
%TO.C,LD16*%
X-23650000Y-2000000D02*
X-19640000Y-2000000D01*
X-23650000Y-4000000D02*
X-19640000Y-4000000D01*
X-19640000Y-4000000D02*
X-19640000Y-2000000D01*
%TO.C,LCH17*%
X-17842330Y-27849874D02*
X-17455378Y-28913015D01*
X-16549071Y-29335633D02*
X-17455378Y-28913015D01*
X-15490204Y-24698684D02*
X-16553344Y-25085635D01*
X-14583896Y-25121302D02*
X-15490204Y-24698684D01*
X-11109920Y-34244213D02*
X-10203612Y-34666831D01*
X-9907780Y-34032416D02*
X-10203612Y-34666831D01*
X-9193686Y-30007061D02*
G75*
G02*
X-8806734Y-31070201I-338095J-725046D01*
G01*
%TO.C,LD8*%
X-23650000Y18000000D02*
X-19640000Y18000000D01*
X-23650000Y16000000D02*
X-19640000Y16000000D01*
X-19640000Y16000000D02*
X-19640000Y18000000D01*
%TO.C,RCH15*%
X99496000Y-8175000D02*
X99496000Y-7475000D01*
X100496000Y-7475000D02*
X99496000Y-7475000D01*
X107500000Y-9625000D02*
X108500000Y-9625000D01*
X107500000Y-14275000D02*
X108500000Y-14275000D01*
X108500000Y-14275000D02*
X109300000Y-13475000D01*
X109300000Y-10425000D02*
X108500000Y-9625000D01*
X100550000Y-12125000D02*
G75*
G02*
X99750000Y-11325000I0J800000D01*
G01*
%TO.C,RD11*%
X40500000Y-8350000D02*
X40500000Y-12360000D01*
X40500000Y-12360000D02*
X42500000Y-12360000D01*
X42500000Y-8350000D02*
X42500000Y-12360000D01*
%TO.C,LD3*%
X-54000000Y44350000D02*
X-54000000Y48360000D01*
X-52000000Y48360000D02*
X-54000000Y48360000D01*
X-52000000Y44350000D02*
X-52000000Y48360000D01*
%TO.C,RCH17*%
X27394347Y-14734178D02*
X27007396Y-15797319D01*
X28296381Y-18561558D02*
X29359522Y-18948510D01*
X28300655Y-14311560D02*
X27394347Y-14734178D01*
X30265830Y-18525891D02*
X29359522Y-18948510D01*
X37522239Y-17514435D02*
X38428547Y-17091817D01*
X38132714Y-16457401D02*
X38428547Y-17091817D01*
X35508123Y-13322925D02*
G75*
G02*
X36571264Y-13709877I338095J-725046D01*
G01*
%TO.C,PSW1*%
X-118000000Y12950000D02*
X-118000000Y19050000D01*
X-117099999Y12450000D02*
X-115800001Y12450000D01*
X-115800001Y19550000D02*
X-117099999Y19550000D01*
X-114900000Y19050000D02*
X-114900000Y18700000D01*
X-114900000Y13300000D02*
X-114900000Y12950000D01*
%TO.C,PSW2*%
X114900000Y18700000D02*
X114900000Y19050000D01*
X114900000Y12950000D02*
X114900000Y13300000D01*
X115800001Y12450000D02*
X117099999Y12450000D01*
X117099999Y19550000D02*
X115800001Y19550000D01*
X118000000Y19050000D02*
X118000000Y12950000D01*
%TO.C,LCH5*%
X-42504000Y31825000D02*
X-42504000Y32525000D01*
X-41504000Y32525000D02*
X-42504000Y32525000D01*
X-34500000Y30375000D02*
X-33500000Y30375000D01*
X-34500000Y25725000D02*
X-33500000Y25725000D01*
X-33500000Y25725000D02*
X-32700000Y26525000D01*
X-32700000Y29575000D02*
X-33500000Y30375000D01*
X-41450000Y27875000D02*
G75*
G02*
X-42250000Y28675000I0J800000D01*
G01*
%TO.C,LD6*%
X-23650000Y24000000D02*
X-19640000Y24000000D01*
X-23650000Y22000000D02*
X-19640000Y22000000D01*
X-19640000Y22000000D02*
X-19640000Y24000000D01*
%TO.C,LCH16*%
X-39971103Y-20399840D02*
X-39675271Y-19765425D01*
X-38768963Y-20188043D02*
X-39675271Y-19765425D01*
X-35294987Y-29310954D02*
X-34388679Y-29733572D01*
X-34388679Y-29733572D02*
X-33325539Y-29346621D01*
X-33329812Y-25096623D02*
X-32423505Y-25519241D01*
X-32036553Y-26582382D02*
X-32423505Y-25519241D01*
X-40685197Y-24425195D02*
G75*
G02*
X-41072149Y-23362055I338095J725046D01*
G01*
%TO.C,RCH3*%
X63496000Y36825000D02*
X63496000Y37525000D01*
X64496000Y37525000D02*
X63496000Y37525000D01*
X71500000Y35375000D02*
X72500000Y35375000D01*
X71500000Y30725000D02*
X72500000Y30725000D01*
X72500000Y30725000D02*
X73300000Y31525000D01*
X73300000Y34575000D02*
X72500000Y35375000D01*
X64550000Y32875000D02*
G75*
G02*
X63750000Y33675000I0J800000D01*
G01*
%TO.C,RD3*%
X70400000Y43350000D02*
X70400000Y47360000D01*
X72400000Y47360000D02*
X70400000Y47360000D01*
X72400000Y43350000D02*
X72400000Y47360000D01*
%TO.C,RD10*%
X74000000Y25350000D02*
X74000000Y29360000D01*
X76000000Y29360000D02*
X74000000Y29360000D01*
X76000000Y25350000D02*
X76000000Y29360000D01*
%TO.C,RD14*%
X84000000Y-11850000D02*
X84000000Y-15860000D01*
X84000000Y-15860000D02*
X86000000Y-15860000D01*
X86000000Y-11850000D02*
X86000000Y-15860000D01*
%TO.C,LD10*%
X-23650000Y12000000D02*
X-19640000Y12000000D01*
X-23650000Y10000000D02*
X-19640000Y10000000D01*
X-19640000Y10000000D02*
X-19640000Y12000000D01*
%TO.C,RD4*%
X73400000Y43350000D02*
X73400000Y47360000D01*
X75400000Y47360000D02*
X73400000Y47360000D01*
X75400000Y43350000D02*
X75400000Y47360000D01*
%TO.C,RCH1*%
X27496000Y31825000D02*
X27496000Y32525000D01*
X28496000Y32525000D02*
X27496000Y32525000D01*
X35500000Y30375000D02*
X36500000Y30375000D01*
X35500000Y25725000D02*
X36500000Y25725000D01*
X36500000Y25725000D02*
X37300000Y26525000D01*
X37300000Y29575000D02*
X36500000Y30375000D01*
X28550000Y27875000D02*
G75*
G02*
X27750000Y28675000I0J800000D01*
G01*
%TD*%
%LPC*%
D14*
%TO.C,REF\u002A\u002A*%
X17873023Y-8150000D03*
X17873023Y-8890000D03*
X17873023Y-9630000D03*
X17873023Y-10370000D03*
X17873023Y-11110000D03*
X17873023Y-11850000D03*
%TD*%
%TO.C,REF\u002A\u002A*%
X17873023Y41850000D03*
X17873023Y41110000D03*
X17873023Y40370000D03*
X17873023Y39630000D03*
X17873023Y38890000D03*
X17873023Y38150000D03*
%TD*%
%TO.C,REF\u002A\u002A*%
X-17873023Y-11850000D03*
X-17873023Y-11110000D03*
X-17873023Y-10370000D03*
X-17873023Y-9630000D03*
X-17873023Y-8890000D03*
X-17873023Y-8150000D03*
%TD*%
%TO.C,REF\u002A\u002A*%
X-17873023Y38150000D03*
X-17873023Y38890000D03*
X-17873023Y39630000D03*
X-17873023Y40370000D03*
X-17873023Y41110000D03*
X-17873023Y41850000D03*
%TD*%
D15*
%TO.C,RD1*%
X65000000Y46650000D03*
X65000000Y43350000D03*
%TD*%
D16*
%TO.C,LD12*%
X-85000000Y-14650000D03*
X-85000000Y-11350000D03*
%TD*%
D17*
%TO.C,RCH16*%
X12643215Y-35156708D03*
D18*
X17627908Y-32832308D03*
D17*
X22612601Y-30507908D03*
D19*
X20574628Y-27320562D03*
D20*
X23515597Y-25949166D03*
X12172361Y-28811173D03*
D19*
X15113329Y-27439777D03*
%TD*%
D21*
%TO.C,RD17*%
X46650000Y-16500000D03*
X43350000Y-16500000D03*
%TD*%
%TO.C,LD17*%
X-20350000Y-6500000D03*
X-23650000Y-6500000D03*
%TD*%
D22*
%TO.C,REF\u002A\u002A*%
X-21923023Y-12750000D03*
%TD*%
D17*
%TO.C,RCH6*%
X40500000Y17000000D03*
D18*
X35000000Y17000000D03*
D17*
X29500000Y17000000D03*
D19*
X30000000Y13250000D03*
D23*
X26755000Y13250000D03*
X38245000Y11050000D03*
D19*
X35000000Y11050000D03*
%TD*%
D17*
%TO.C,LCH9*%
X-47500000Y19000000D03*
D18*
X-53000000Y19000000D03*
D17*
X-58500000Y19000000D03*
D19*
X-58000000Y15250000D03*
D23*
X-61245000Y15250000D03*
X-49755000Y13050000D03*
D19*
X-53000000Y13050000D03*
%TD*%
D16*
%TO.C,RD13*%
X82000000Y-15150000D03*
X82000000Y-11850000D03*
%TD*%
D15*
%TO.C,RD5*%
X77400000Y46650000D03*
X77400000Y43350000D03*
%TD*%
%TO.C,RD8*%
X69000000Y28650000D03*
X69000000Y25350000D03*
%TD*%
%TO.C,RD2*%
X68400000Y46650000D03*
X68400000Y43350000D03*
%TD*%
D17*
%TO.C,RCH10*%
X112500000Y11000000D03*
D18*
X107000000Y11000000D03*
D17*
X101500000Y11000000D03*
D19*
X102000000Y7250000D03*
D23*
X98755000Y7250000D03*
X110245000Y5050000D03*
D19*
X107000000Y5050000D03*
%TD*%
D21*
%TO.C,LD9*%
X-20350000Y14000000D03*
X-23650000Y14000000D03*
%TD*%
D16*
%TO.C,LD15*%
X-62000000Y-150000D03*
X-62000000Y3150000D03*
%TD*%
D15*
%TO.C,LD4*%
X-44000000Y47650000D03*
X-44000000Y44350000D03*
%TD*%
%TO.C,RD9*%
X72000000Y28650000D03*
X72000000Y25350000D03*
%TD*%
D24*
%TO.C,J1*%
X-93875000Y-5400000D03*
X-93875000Y-6600000D03*
D25*
X-90100000Y-4250000D03*
X-90100000Y-7750000D03*
%TD*%
D26*
%TO.C,LU1*%
X-115120000Y48095000D03*
X-112580000Y48095000D03*
X-110040000Y48095000D03*
X-107500000Y48095000D03*
X-104960000Y48095000D03*
X-102420000Y48095000D03*
X-99880000Y48095000D03*
X-115120000Y31905000D03*
X-112580000Y31905000D03*
X-110040000Y31905000D03*
X-107500000Y31905000D03*
X-104960000Y31905000D03*
X-102420000Y31905000D03*
X-99880000Y31905000D03*
D27*
X-109722000Y44445000D03*
X-107817000Y44445000D03*
X-116072000Y41270000D03*
X-116072000Y38730000D03*
X-113532000Y41270000D03*
X-113532000Y38730000D03*
%TD*%
D16*
%TO.C,RD12*%
X44500000Y-11650000D03*
X44500000Y-8350000D03*
%TD*%
D17*
%TO.C,LCH2*%
X-94500000Y34000000D03*
D18*
X-89000000Y34000000D03*
D17*
X-83500000Y34000000D03*
D19*
X-84000000Y37750000D03*
D28*
X-80755000Y37750000D03*
X-92245000Y39950000D03*
D19*
X-89000000Y39950000D03*
%TD*%
D17*
%TO.C,LCH7*%
X-83500000Y17000000D03*
D18*
X-89000000Y17000000D03*
D17*
X-94500000Y17000000D03*
D19*
X-94000000Y13250000D03*
D23*
X-97245000Y13250000D03*
X-85755000Y11050000D03*
D19*
X-89000000Y11050000D03*
%TD*%
D15*
%TO.C,RD6*%
X63000000Y28650000D03*
X63000000Y25350000D03*
%TD*%
D17*
%TO.C,RCH14*%
X83500000Y0D03*
D18*
X89000000Y0D03*
D17*
X94500000Y0D03*
D19*
X94000000Y3750000D03*
D28*
X97245000Y3750000D03*
X85755000Y5950000D03*
D19*
X89000000Y5950000D03*
%TD*%
D17*
%TO.C,RCH2*%
X58500000Y36000000D03*
D18*
X53000000Y36000000D03*
D17*
X47500000Y36000000D03*
D19*
X48000000Y32250000D03*
D23*
X44755000Y32250000D03*
X56245000Y30050000D03*
D19*
X53000000Y30050000D03*
%TD*%
D17*
%TO.C,LCH4*%
X-47500000Y36000000D03*
D18*
X-53000000Y36000000D03*
D17*
X-58500000Y36000000D03*
D19*
X-58000000Y32250000D03*
D23*
X-61245000Y32250000D03*
X-49755000Y30050000D03*
D19*
X-53000000Y30050000D03*
%TD*%
D17*
%TO.C,LCH11*%
X-101500000Y-6000000D03*
D18*
X-107000000Y-6000000D03*
D17*
X-112500000Y-6000000D03*
D19*
X-112000000Y-9750000D03*
D23*
X-115245000Y-9750000D03*
X-103755000Y-11950000D03*
D19*
X-107000000Y-11950000D03*
%TD*%
D15*
%TO.C,RD7*%
X66000000Y28650000D03*
X66000000Y25350000D03*
%TD*%
D17*
%TO.C,RCH9*%
X94500000Y17000000D03*
D18*
X89000000Y17000000D03*
D17*
X83500000Y17000000D03*
D19*
X84000000Y13250000D03*
D23*
X80755000Y13250000D03*
X92245000Y11050000D03*
D19*
X89000000Y11050000D03*
%TD*%
D17*
%TO.C,LCH13*%
X-76500000Y5000000D03*
D18*
X-71000000Y5000000D03*
D17*
X-65500000Y5000000D03*
D19*
X-66000000Y8750000D03*
D28*
X-62755000Y8750000D03*
X-74245000Y10950000D03*
D19*
X-71000000Y10950000D03*
%TD*%
D29*
%TO.C,J3*%
X-98000000Y-7250000D03*
D30*
X-98000000Y-4710000D03*
%TD*%
D17*
%TO.C,LCH3*%
X-76500000Y39000000D03*
D18*
X-71000000Y39000000D03*
D17*
X-65500000Y39000000D03*
D19*
X-66000000Y42750000D03*
D28*
X-62755000Y42750000D03*
X-74245000Y44950000D03*
D19*
X-71000000Y44950000D03*
%TD*%
D17*
%TO.C,RCH12*%
X47500000Y2000000D03*
D18*
X53000000Y2000000D03*
D17*
X58500000Y2000000D03*
D19*
X58000000Y5750000D03*
D28*
X61245000Y5750000D03*
X49755000Y7950000D03*
D19*
X53000000Y7950000D03*
%TD*%
D22*
%TO.C,REF\u002A\u002A*%
X21923023Y45750000D03*
%TD*%
D29*
%TO.C,J4*%
X98000000Y-3460000D03*
D30*
X98000000Y-6000000D03*
%TD*%
D17*
%TO.C,LCH8*%
X-65500000Y22000000D03*
D18*
X-71000000Y22000000D03*
D17*
X-76500000Y22000000D03*
D19*
X-76000000Y18250000D03*
D23*
X-79245000Y18250000D03*
X-67755000Y16050000D03*
D19*
X-71000000Y16050000D03*
%TD*%
D16*
%TO.C,LD13*%
X-68000000Y-150000D03*
X-68000000Y3150000D03*
%TD*%
D22*
%TO.C,REF\u002A\u002A*%
X93250000Y-12750000D03*
%TD*%
%TO.C,REF\u002A\u002A*%
X-93250000Y-12750000D03*
%TD*%
%TO.C,REF\u002A\u002A*%
X93250000Y45750000D03*
%TD*%
D17*
%TO.C,RCH7*%
X58500000Y19000000D03*
D18*
X53000000Y19000000D03*
D17*
X47500000Y19000000D03*
D19*
X48000000Y15250000D03*
D23*
X44755000Y15250000D03*
X56245000Y13050000D03*
D19*
X53000000Y13050000D03*
%TD*%
D17*
%TO.C,LCH15*%
X-29500000Y0D03*
D18*
X-35000000Y0D03*
D17*
X-40500000Y0D03*
D19*
X-40000000Y-3750000D03*
D23*
X-43245000Y-3750000D03*
X-31755000Y-5950000D03*
D19*
X-35000000Y-5950000D03*
%TD*%
D17*
%TO.C,LCH1*%
X-101500000Y28000000D03*
D18*
X-107000000Y28000000D03*
D17*
X-112500000Y28000000D03*
D19*
X-112000000Y24250000D03*
D23*
X-115245000Y24250000D03*
X-103755000Y22050000D03*
D19*
X-107000000Y22050000D03*
%TD*%
D17*
%TO.C,RCH13*%
X65500000Y5000000D03*
D18*
X71000000Y5000000D03*
D17*
X76500000Y5000000D03*
D19*
X76000000Y8750000D03*
D28*
X79245000Y8750000D03*
X67755000Y10950000D03*
D19*
X71000000Y10950000D03*
%TD*%
D21*
%TO.C,LD7*%
X-20350000Y20000000D03*
X-23650000Y20000000D03*
%TD*%
D17*
%TO.C,LCH6*%
X-101500000Y11000000D03*
D18*
X-107000000Y11000000D03*
D17*
X-112500000Y11000000D03*
D19*
X-112000000Y7250000D03*
D23*
X-115245000Y7250000D03*
X-103755000Y5050000D03*
D19*
X-107000000Y5050000D03*
%TD*%
D16*
%TO.C,RD15*%
X88000000Y-15150000D03*
X88000000Y-11850000D03*
%TD*%
D17*
%TO.C,RCH5*%
X112500000Y28000000D03*
D18*
X107000000Y28000000D03*
D17*
X101500000Y28000000D03*
D19*
X102000000Y24250000D03*
D23*
X98755000Y24250000D03*
X110245000Y22050000D03*
D19*
X107000000Y22050000D03*
%TD*%
D31*
%TO.C,J2*%
X93875000Y-6600000D03*
X93875000Y-5400000D03*
D32*
X90100000Y-7750000D03*
X90100000Y-4250000D03*
%TD*%
D17*
%TO.C,LCH12*%
X-94500000Y0D03*
D18*
X-89000000Y0D03*
D17*
X-83500000Y0D03*
D19*
X-84000000Y3750000D03*
D28*
X-80755000Y3750000D03*
X-92245000Y5950000D03*
D19*
X-89000000Y5950000D03*
%TD*%
D17*
%TO.C,RCH8*%
X76500000Y22000000D03*
D18*
X71000000Y22000000D03*
D17*
X65500000Y22000000D03*
D19*
X66000000Y18250000D03*
D23*
X62755000Y18250000D03*
X74245000Y16050000D03*
D19*
X71000000Y16050000D03*
%TD*%
D26*
%TO.C,RU1*%
X115120000Y31905000D03*
X112580000Y31905000D03*
X110040000Y31905000D03*
X107500000Y31905000D03*
X104960000Y31905000D03*
X102420000Y31905000D03*
X99880000Y31905000D03*
X115120000Y48095000D03*
X112580000Y48095000D03*
X110040000Y48095000D03*
X107500000Y48095000D03*
X104960000Y48095000D03*
X102420000Y48095000D03*
X99880000Y48095000D03*
D27*
X109722000Y35555000D03*
X107817000Y35555000D03*
X116072000Y38730000D03*
X116072000Y41270000D03*
X113532000Y38730000D03*
X113532000Y41270000D03*
%TD*%
D15*
%TO.C,LD5*%
X-41000000Y47650000D03*
X-41000000Y44350000D03*
%TD*%
D22*
%TO.C,REF\u002A\u002A*%
X13909849Y-42013868D03*
%TD*%
D17*
%TO.C,LCH10*%
X-29500000Y17000000D03*
D18*
X-35000000Y17000000D03*
D17*
X-40500000Y17000000D03*
D19*
X-40000000Y13250000D03*
D23*
X-43245000Y13250000D03*
X-31755000Y11050000D03*
D19*
X-35000000Y11050000D03*
%TD*%
D21*
%TO.C,RD16*%
X46650000Y-19500000D03*
X43350000Y-19500000D03*
%TD*%
D17*
%TO.C,LCH14*%
X-58500000Y2000000D03*
D18*
X-53000000Y2000000D03*
D17*
X-47500000Y2000000D03*
D19*
X-48000000Y5750000D03*
D28*
X-44755000Y5750000D03*
X-56245000Y7950000D03*
D19*
X-53000000Y7950000D03*
%TD*%
D15*
%TO.C,LD1*%
X-47000000Y47650000D03*
X-47000000Y44350000D03*
%TD*%
D17*
%TO.C,RCH11*%
X40500000Y0D03*
D18*
X35000000Y0D03*
D17*
X29500000Y0D03*
D19*
X30000000Y-3750000D03*
D23*
X26755000Y-3750000D03*
X38245000Y-5950000D03*
D19*
X35000000Y-5950000D03*
%TD*%
D15*
%TO.C,LD2*%
X-50000000Y47650000D03*
X-50000000Y44350000D03*
%TD*%
D16*
%TO.C,LD11*%
X-88000000Y-14650000D03*
X-88000000Y-11350000D03*
%TD*%
D17*
%TO.C,RCH4*%
X94500000Y34000000D03*
D18*
X89000000Y34000000D03*
D17*
X83500000Y34000000D03*
D19*
X84000000Y30250000D03*
D23*
X80755000Y30250000D03*
X92245000Y28050000D03*
D19*
X89000000Y28050000D03*
%TD*%
D16*
%TO.C,LD14*%
X-65000000Y-150000D03*
X-65000000Y3150000D03*
%TD*%
D21*
%TO.C,LD16*%
X-20350000Y-3000000D03*
X-23650000Y-3000000D03*
%TD*%
D17*
%TO.C,LCH17*%
X-22612601Y-30507908D03*
D18*
X-17627908Y-32832308D03*
D17*
X-12643215Y-35156708D03*
D19*
X-11511551Y-31546745D03*
D33*
X-8570582Y-32918141D03*
X-18054298Y-26068380D03*
D19*
X-15113329Y-27439777D03*
%TD*%
D21*
%TO.C,LD8*%
X-20350000Y17000000D03*
X-23650000Y17000000D03*
%TD*%
D17*
%TO.C,RCH15*%
X112500000Y-6000000D03*
D18*
X107000000Y-6000000D03*
D17*
X101500000Y-6000000D03*
D19*
X102000000Y-9750000D03*
D23*
X98755000Y-9750000D03*
X110245000Y-11950000D03*
D19*
X107000000Y-11950000D03*
%TD*%
D16*
%TO.C,RD11*%
X41500000Y-11650000D03*
X41500000Y-8350000D03*
%TD*%
D15*
%TO.C,LD3*%
X-53000000Y47650000D03*
X-53000000Y44350000D03*
%TD*%
D17*
%TO.C,RCH17*%
X27266282Y-23924348D03*
D18*
X32250975Y-21599948D03*
D17*
X37235668Y-19275548D03*
D19*
X35197695Y-16088202D03*
D20*
X38138664Y-14716806D03*
X26795428Y-17578813D03*
D19*
X29736396Y-16207417D03*
%TD*%
D34*
%TO.C,PSW1*%
X-116450000Y17500000D03*
X-116450000Y14500000D03*
D35*
X-114450000Y13750000D03*
X-114450000Y16750001D03*
X-114450000Y18250000D03*
D36*
X-115300000Y19700000D03*
X-117600000Y19700000D03*
X-115300000Y12300000D03*
X-117600000Y12300000D03*
%TD*%
D34*
%TO.C,PSW2*%
X116450000Y14500000D03*
X116450000Y17500000D03*
D37*
X114450000Y18250000D03*
X114450000Y15249999D03*
X114450000Y13750000D03*
D38*
X115300000Y12300000D03*
X117600000Y12300000D03*
X115300000Y19700000D03*
X117600000Y19700000D03*
%TD*%
D17*
%TO.C,LCH5*%
X-29500000Y34000000D03*
D18*
X-35000000Y34000000D03*
D17*
X-40500000Y34000000D03*
D19*
X-40000000Y30250000D03*
D23*
X-43245000Y30250000D03*
X-31755000Y28050000D03*
D19*
X-35000000Y28050000D03*
%TD*%
D21*
%TO.C,LD6*%
X-20350000Y23000000D03*
X-23650000Y23000000D03*
%TD*%
D17*
%TO.C,LCH16*%
X-27266282Y-23924348D03*
D18*
X-32250975Y-21599948D03*
D17*
X-37235668Y-19275548D03*
D19*
X-38367332Y-22885511D03*
D39*
X-41308301Y-21514115D03*
X-31824585Y-28363876D03*
D19*
X-34765554Y-26992479D03*
%TD*%
D22*
%TO.C,REF\u002A\u002A*%
X-93250000Y45750000D03*
%TD*%
D17*
%TO.C,RCH3*%
X76500000Y39000000D03*
D18*
X71000000Y39000000D03*
D17*
X65500000Y39000000D03*
D19*
X66000000Y35250000D03*
D23*
X62755000Y35250000D03*
X74245000Y33050000D03*
D19*
X71000000Y33050000D03*
%TD*%
D15*
%TO.C,RD3*%
X71400000Y46650000D03*
X71400000Y43350000D03*
%TD*%
D22*
%TO.C,REF\u002A\u002A*%
X-13909849Y-42013868D03*
%TD*%
D15*
%TO.C,RD10*%
X75000000Y28650000D03*
X75000000Y25350000D03*
%TD*%
D16*
%TO.C,RD14*%
X85000000Y-15150000D03*
X85000000Y-11850000D03*
%TD*%
D21*
%TO.C,LD10*%
X-20350000Y11000000D03*
X-23650000Y11000000D03*
%TD*%
D15*
%TO.C,RD4*%
X74400000Y46650000D03*
X74400000Y43350000D03*
%TD*%
D22*
%TO.C,REF\u002A\u002A*%
X-21923023Y45750000D03*
%TD*%
%TO.C,REF\u002A\u002A*%
X21923023Y-12750000D03*
%TD*%
D17*
%TO.C,RCH1*%
X40500000Y34000000D03*
D18*
X35000000Y34000000D03*
D17*
X29500000Y34000000D03*
D19*
X30000000Y30250000D03*
D23*
X26755000Y30250000D03*
X38245000Y28050000D03*
D19*
X35000000Y28050000D03*
%TD*%
%LPD*%
M02*
